{"glyphs":{"0":{"ha":964,"x_min":56,"x_max":908,"o":"m 482 -19 q 253 44 349 -19 q 106 226 157 107 q 56 510 56 344 l 56 510 q 106 794 56 675 q 253 976 157 913 q 482 1039 349 1039 l 482 1039 q 711 976 615 1039 q 858 794 807 913 q 908 510 908 675 l 908 510 q 858 226 908 344 q 711 44 807 107 q 482 -19 615 -19 l 482 -19 z m 482 283 q 597 510 597 283 l 597 510 q 482 736 597 736 l 482 736 q 367 510 367 736 l 367 510 q 482 283 367 283 l 482 283 z "},"1":{"ha":667,"x_min":10,"x_max":568,"o":"m 543 0 l 276 0 q 258 7 265 0 q 251 25 251 14 l 251 25 l 251 657 l 88 611 q 79 610 85 610 l 79 610 q 56 626 64 610 l 56 626 l 14 713 q 10 725 10 719 l 10 725 q 21 746 10 738 l 21 746 l 321 1008 q 353 1019 333 1019 l 353 1019 l 543 1019 q 561 1013 554 1019 q 568 994 568 1006 l 568 994 l 568 25 q 561 7 568 14 q 543 0 554 0 l 543 0 z "},"2":{"ha":878,"x_min":33,"x_max":828,"o":"m 803 0 l 90 0 q 72 7 79 0 q 65 25 65 14 l 65 25 l 65 104 q 78 135 65 122 l 78 135 l 344 431 q 456 574 422 517 q 489 678 489 631 l 489 678 q 469 729 489 710 q 415 749 449 749 l 415 749 q 311 657 346 749 l 311 657 q 279 640 303 633 l 279 640 l 58 700 q 40 731 33 707 l 40 731 q 184 956 78 874 q 438 1039 290 1039 l 438 1039 q 629 998 546 1039 q 758 883 713 957 q 804 714 804 810 l 804 714 q 747 508 804 603 q 549 297 690 414 l 549 297 l 803 297 q 821 290 814 297 q 828 272 828 283 l 828 272 l 828 25 q 821 7 828 14 q 803 0 814 0 l 803 0 z "},"3":{"ha":897,"x_min":42,"x_max":842,"o":"m 435 -19 q 184 58 290 -19 q 43 271 78 135 l 43 271 q 42 279 42 274 l 42 279 q 61 300 42 296 l 61 300 l 278 356 q 286 357 281 357 l 286 357 q 310 338 303 357 l 310 338 q 357 279 329 296 q 428 263 385 263 l 428 263 q 497 281 474 263 q 521 333 521 300 l 521 333 q 495 387 521 368 q 424 406 469 406 l 424 406 l 372 406 q 354 413 361 406 q 347 431 347 419 l 347 431 l 347 607 q 354 625 347 618 q 372 632 361 632 l 372 632 l 428 632 q 484 650 463 632 q 506 697 506 668 l 506 697 q 483 749 506 729 q 422 768 461 768 l 422 768 q 365 750 389 768 q 325 690 340 732 l 325 690 q 293 672 314 667 l 293 672 l 68 722 q 51 733 57 725 q 49 753 46 740 l 49 753 q 192 965 86 890 q 443 1039 297 1039 l 443 1039 q 638 1002 553 1039 q 769 900 722 965 q 817 751 817 835 l 817 751 q 777 628 817 685 q 661 532 738 571 l 661 532 q 795 440 749 501 q 842 290 842 378 l 842 290 q 792 127 842 197 q 649 19 742 57 q 435 -19 557 -19 l 435 -19 z "},"4":{"ha":939,"x_min":17,"x_max":917,"o":"m 760 0 l 521 0 q 503 7 510 0 q 496 25 496 14 l 496 25 l 496 156 l 42 156 q 24 163 31 156 q 17 181 17 169 l 17 181 l 17 261 q 26 292 17 276 l 26 292 l 540 1004 q 571 1019 550 1019 l 571 1019 l 760 1019 q 778 1013 771 1019 q 785 994 785 1006 l 785 994 l 785 390 l 892 390 q 910 383 903 390 q 917 365 917 376 l 917 365 l 917 181 q 910 163 917 169 q 892 156 903 156 l 892 156 l 785 156 l 785 25 q 778 7 785 14 q 760 0 771 0 l 760 0 z m 496 622 l 329 390 l 496 390 l 496 622 z "},"5":{"ha":906,"x_min":51,"x_max":856,"o":"m 454 -19 q 206 51 310 -19 q 53 253 101 122 l 53 253 q 51 264 51 257 l 51 264 q 69 285 51 281 l 69 285 l 283 340 q 292 342 286 342 l 292 342 q 317 326 306 342 l 317 326 q 436 263 356 263 l 436 263 q 508 283 482 263 q 535 343 535 304 l 535 343 q 506 405 535 382 q 429 428 478 428 l 429 428 q 366 418 396 428 q 281 379 336 408 l 281 379 q 264 375 272 375 l 264 375 q 246 379 254 375 l 246 379 l 113 450 q 96 481 94 460 l 96 481 l 140 996 q 165 1019 142 1019 l 165 1019 l 769 1019 q 788 1013 781 1019 q 794 994 794 1006 l 794 994 l 794 758 q 788 740 794 747 q 769 733 781 733 l 769 733 l 376 733 l 363 610 q 444 650 404 636 q 538 664 485 664 l 538 664 q 701 623 629 664 q 815 509 774 582 q 856 342 856 436 l 856 342 q 805 154 856 236 q 663 26 754 72 q 454 -19 571 -19 l 454 -19 z "},"6":{"ha":897,"x_min":42,"x_max":861,"o":"m 453 -19 q 240 30 333 -19 q 94 165 146 79 q 42 357 42 251 l 42 357 q 85 551 42 449 q 238 825 128 653 l 238 825 l 351 1003 q 382 1019 363 1019 l 382 1019 l 672 1019 q 688 1015 682 1019 q 693 1004 693 1011 l 693 1004 q 688 989 693 996 l 688 989 l 489 694 q 529 697 517 697 l 529 697 q 701 652 625 697 q 819 528 776 607 q 861 347 861 449 l 861 347 q 810 157 861 240 q 666 27 758 74 q 453 -19 574 -19 l 453 -19 z m 451 251 q 531 284 500 251 q 561 368 561 317 l 561 368 q 531 452 561 419 q 451 485 500 485 l 451 485 q 372 452 403 485 q 342 368 342 419 l 342 368 q 372 284 342 317 q 451 251 403 251 l 451 251 z "},"7":{"ha":810,"x_min":14,"x_max":790,"o":"m 438 0 l 153 0 q 134 8 139 0 q 133 29 129 17 l 133 29 l 399 719 l 39 719 q 21 726 28 719 q 14 744 14 733 l 14 744 l 14 994 q 21 1013 14 1006 q 39 1019 28 1019 l 39 1019 l 765 1019 q 783 1013 776 1019 q 790 994 790 1006 l 790 994 l 790 913 q 785 882 790 894 l 785 882 l 465 21 q 438 0 460 0 l 438 0 z "},"8":{"ha":908,"x_min":49,"x_max":860,"o":"m 454 -19 q 240 18 332 -19 q 99 125 149 56 q 49 286 49 194 l 49 286 q 91 431 49 365 q 210 535 133 497 l 210 535 q 106 622 142 571 q 71 744 71 672 l 71 744 q 119 896 71 829 q 253 1001 167 963 q 454 1039 340 1039 l 454 1039 q 655 1001 568 1039 q 790 896 742 963 q 838 744 838 829 l 838 744 q 802 622 838 672 q 699 535 767 571 l 699 535 q 817 431 775 497 q 860 286 860 365 l 860 286 q 810 125 860 194 q 668 18 760 56 q 454 -19 576 -19 l 454 -19 z m 454 628 q 526 651 499 628 q 553 713 553 675 l 553 713 q 526 774 553 750 q 454 797 499 797 l 454 797 q 382 774 410 797 q 354 713 354 750 l 354 713 q 382 651 354 675 q 454 628 410 628 l 454 628 z m 454 226 q 541 254 508 226 q 574 326 574 282 l 574 326 q 541 399 574 371 q 454 426 508 426 l 454 426 q 367 399 400 426 q 335 326 335 371 l 335 326 q 367 254 335 282 q 454 226 400 226 l 454 226 z "},"9":{"ha":897,"x_min":36,"x_max":856,"o":"m 501 0 l 213 0 q 197 4 203 0 q 190 15 190 8 l 190 15 q 196 31 190 24 l 196 31 l 401 325 q 358 322 374 322 l 358 322 q 194 367 268 322 q 78 492 121 413 q 36 672 36 572 l 36 672 q 88 863 36 779 q 231 992 139 946 q 444 1039 324 1039 l 444 1039 q 658 990 564 1039 q 803 854 751 940 q 856 663 856 768 l 856 663 q 810 464 856 568 q 653 194 765 360 l 653 194 l 532 17 q 501 0 522 0 l 501 0 z m 446 535 q 523 567 490 535 q 556 651 556 600 l 556 651 q 525 735 556 703 q 446 768 494 768 l 446 768 q 367 735 397 768 q 336 651 336 703 l 336 651 q 367 567 336 600 q 446 535 397 535 l 446 535 z "},"\u0000":{"ha":0,"x_min":null,"x_max":null,"o":""},"\r":{"ha":278,"x_min":null,"x_max":null,"o":""}," ":{"ha":278,"x_min":null,"x_max":null,"o":""},"A":{"ha":1089,"x_min":11,"x_max":1078,"o":"m 307 0 l 33 0 q 11 18 11 0 l 11 18 l 14 29 l 410 1000 q 439 1019 418 1019 l 439 1019 l 650 1019 q 679 1000 671 1019 l 679 1000 l 1075 29 l 1078 18 q 1056 0 1078 0 l 1056 0 l 776 0 q 747 21 754 0 l 747 21 l 703 153 l 379 153 l 336 21 q 307 0 331 0 l 307 0 z m 540 642 l 458 392 l 624 392 l 540 642 z "},"B":{"ha":986,"x_min":89,"x_max":931,"o":"m 493 0 l 114 0 q 96 7 103 0 q 89 25 89 14 l 89 25 l 89 994 q 96 1013 89 1006 q 114 1019 103 1019 l 114 1019 l 513 1019 q 793 949 707 1019 q 879 750 879 878 l 879 750 q 842 624 879 679 q 733 539 804 569 l 733 539 q 880 450 829 513 q 931 304 931 388 l 931 304 q 825 76 931 153 q 493 0 719 0 l 493 0 z m 506 783 l 392 783 l 392 619 l 506 619 q 556 640 535 619 q 576 701 576 661 l 576 701 q 556 763 576 742 q 506 783 535 783 l 506 783 z m 517 413 l 392 413 l 392 236 l 517 236 q 583 258 557 236 q 608 324 608 279 l 608 324 q 583 390 608 368 q 517 413 557 413 l 517 413 z "},"C":{"ha":1135,"x_min":64,"x_max":1083,"o":"m 592 -19 q 315 47 435 -19 q 130 234 196 114 q 64 510 64 354 l 64 510 q 133 783 64 663 q 323 972 203 904 q 592 1039 443 1039 l 592 1039 q 878 964 763 1039 q 1051 746 993 889 l 1051 746 q 1054 733 1054 738 l 1054 733 q 1036 714 1054 718 l 1036 714 l 772 644 q 763 643 769 643 l 763 643 q 740 657 750 643 l 740 657 q 677 714 714 696 q 590 732 640 732 l 590 732 q 447 672 504 732 q 390 510 390 611 l 390 510 q 447 348 390 408 q 592 288 504 288 l 592 288 q 700 313 656 288 q 767 396 744 338 l 767 396 q 797 414 775 419 l 797 414 l 1058 346 q 1078 318 1083 339 l 1078 318 q 977 143 1046 219 q 809 24 908 67 q 592 -19 710 -19 l 592 -19 z "},"D":{"ha":1103,"x_min":89,"x_max":1039,"o":"m 521 0 l 114 0 q 96 7 103 0 q 89 25 89 14 l 89 25 l 89 994 q 96 1013 89 1006 q 114 1019 103 1019 l 114 1019 l 521 1019 q 903 890 767 1019 q 1039 510 1039 760 l 1039 510 q 902 131 1039 263 q 521 0 765 0 l 521 0 z m 493 731 l 399 731 l 399 289 l 493 289 q 662 342 604 289 q 719 510 719 396 l 719 510 q 662 677 719 624 q 493 731 604 731 l 493 731 z "},"E":{"ha":897,"x_min":89,"x_max":847,"o":"m 822 0 l 114 0 q 96 7 103 0 q 89 25 89 14 l 89 25 l 89 994 q 96 1013 89 1006 q 114 1019 103 1019 l 114 1019 l 806 1019 q 824 1013 817 1019 q 831 994 831 1006 l 831 994 l 831 783 q 824 765 831 772 q 806 758 817 758 l 806 758 l 400 758 l 400 643 l 750 643 q 768 636 761 643 q 775 618 775 629 l 775 618 l 775 418 q 768 400 775 407 q 750 393 761 393 l 750 393 l 400 393 l 400 261 l 822 261 q 840 254 833 261 q 847 236 847 247 l 847 236 l 847 25 q 840 7 847 14 q 822 0 833 0 l 822 0 z "},"F":{"ha":851,"x_min":89,"x_max":810,"o":"m 381 0 l 114 0 q 96 7 103 0 q 89 25 89 14 l 89 25 l 89 994 q 96 1013 89 1006 q 114 1019 103 1019 l 114 1019 l 785 1019 q 803 1013 796 1019 q 810 994 810 1006 l 810 994 l 810 769 q 803 751 810 758 q 785 744 796 744 l 785 744 l 406 744 l 406 604 l 715 604 q 733 597 726 604 q 740 579 740 590 l 740 579 l 740 354 q 733 336 740 343 q 715 329 726 329 l 715 329 l 406 329 l 406 25 q 399 7 406 14 q 381 0 392 0 l 381 0 z "},"G":{"ha":1154,"x_min":64,"x_max":1090,"o":"m 589 -19 q 314 47 433 -19 q 129 234 194 114 q 64 510 64 354 l 64 510 q 133 783 64 663 q 324 972 203 904 q 594 1039 444 1039 l 594 1039 q 888 966 767 1039 q 1061 758 1010 893 l 1061 758 q 1063 747 1063 754 l 1063 747 q 1044 726 1063 731 l 1044 726 l 781 656 q 772 654 778 654 l 772 654 q 749 668 760 654 l 749 668 q 683 717 724 700 q 600 735 643 735 l 600 735 q 447 676 504 735 q 390 508 390 618 l 390 508 q 448 340 390 399 q 600 281 506 281 l 600 281 q 716 306 671 281 q 771 375 761 331 l 771 375 l 622 375 q 604 382 611 375 q 597 400 597 389 l 597 400 l 597 558 q 604 576 597 569 q 622 583 611 583 l 622 583 l 1065 583 q 1083 576 1076 583 q 1090 558 1090 569 l 1090 558 l 1090 436 q 1031 203 1090 306 q 859 40 972 100 q 589 -19 746 -19 l 589 -19 z "},"H":{"ha":1111,"x_min":89,"x_max":1022,"o":"m 381 0 l 114 0 q 96 7 103 0 q 89 25 89 14 l 89 25 l 89 994 q 96 1013 89 1006 q 114 1019 103 1019 l 114 1019 l 381 1019 q 399 1013 392 1019 q 406 994 406 1006 l 406 994 l 406 668 l 706 668 l 706 994 q 713 1013 706 1006 q 731 1019 719 1019 l 731 1019 l 997 1019 q 1015 1013 1008 1019 q 1022 994 1022 1006 l 1022 994 l 1022 25 q 1015 7 1022 14 q 997 0 1008 0 l 997 0 l 731 0 q 713 7 719 0 q 706 25 706 14 l 706 25 l 706 371 l 406 371 l 406 25 q 399 7 406 14 q 381 0 392 0 l 381 0 z "},"I":{"ha":494,"x_min":89,"x_max":406,"o":"m 381 0 l 114 0 q 96 7 103 0 q 89 25 89 14 l 89 25 l 89 994 q 96 1013 89 1006 q 114 1019 103 1019 l 114 1019 l 381 1019 q 399 1013 392 1019 q 406 994 406 1006 l 406 994 l 406 25 q 399 7 406 14 q 381 0 392 0 l 381 0 z "},"J":{"ha":851,"x_min":7,"x_max":768,"o":"m 375 -19 q 133 58 225 -19 q 8 267 42 135 l 8 267 q 7 275 7 269 l 7 275 q 26 297 7 293 l 26 297 l 256 360 q 264 361 258 361 l 264 361 q 288 343 281 361 l 288 343 q 316 301 299 315 q 364 288 333 288 l 364 288 q 451 411 451 288 l 451 411 l 451 722 l 218 722 q 200 729 207 722 q 193 747 193 736 l 193 747 l 193 994 q 200 1013 193 1006 q 218 1019 207 1019 l 218 1019 l 743 1019 q 761 1013 754 1019 q 768 994 768 1006 l 768 994 l 768 394 q 375 -19 768 -19 l 375 -19 z "},"K":{"ha":1075,"x_min":89,"x_max":1056,"o":"m 381 0 l 114 0 q 96 7 103 0 q 89 25 89 14 l 89 25 l 89 994 q 96 1013 89 1006 q 114 1019 103 1019 l 114 1019 l 381 1019 q 399 1013 392 1019 q 406 994 406 1006 l 406 994 l 406 656 l 674 1004 q 704 1019 686 1019 l 704 1019 l 1004 1019 q 1025 1006 1025 1019 l 1025 1006 q 1018 989 1025 996 l 1018 989 l 718 638 l 1051 29 q 1056 15 1056 21 l 1056 15 q 1035 0 1056 0 l 1035 0 l 731 0 q 701 18 713 0 l 701 18 l 504 388 l 406 272 l 406 25 q 399 7 406 14 q 381 0 392 0 l 381 0 z "},"L":{"ha":878,"x_min":89,"x_max":842,"o":"m 817 0 l 114 0 q 96 7 103 0 q 89 25 89 14 l 89 25 l 89 994 q 96 1013 89 1006 q 114 1019 103 1019 l 114 1019 l 381 1019 q 399 1013 392 1019 q 406 994 406 1006 l 406 994 l 406 300 l 817 300 q 835 293 828 300 q 842 275 842 286 l 842 275 l 842 25 q 835 7 842 14 q 817 0 828 0 l 817 0 z "},"M":{"ha":1364,"x_min":89,"x_max":1275,"o":"m 367 0 l 114 0 q 96 7 103 0 q 89 25 89 14 l 89 25 l 89 994 q 96 1013 89 1006 q 114 1019 103 1019 l 114 1019 l 392 1019 q 421 1003 411 1019 l 421 1003 l 689 553 l 949 1003 q 978 1019 958 1019 l 978 1019 l 1250 1019 q 1268 1013 1261 1019 q 1275 994 1275 1006 l 1275 994 l 1275 25 q 1268 7 1275 14 q 1250 0 1261 0 l 1250 0 l 997 0 q 979 7 986 0 q 972 25 972 14 l 972 25 l 972 519 l 789 211 q 760 194 779 194 l 760 194 l 604 194 q 575 211 585 194 l 575 211 l 392 506 l 392 25 q 385 7 392 14 q 367 0 378 0 l 367 0 z "},"N":{"ha":1104,"x_min":89,"x_max":1015,"o":"m 367 0 l 114 0 q 96 7 103 0 q 89 25 89 14 l 89 25 l 89 994 q 96 1013 89 1006 q 114 1019 103 1019 l 114 1019 l 392 1019 q 421 1001 410 1019 l 421 1001 l 713 482 l 713 994 q 719 1013 713 1006 q 738 1019 726 1019 l 738 1019 l 990 1019 q 1008 1013 1001 1019 q 1015 994 1015 1006 l 1015 994 l 1015 25 q 1008 7 1015 14 q 990 0 1001 0 l 990 0 l 713 0 q 683 18 693 0 l 683 18 l 392 542 l 392 25 q 385 7 392 14 q 367 0 378 0 l 367 0 z "},"O":{"ha":1200,"x_min":64,"x_max":1136,"o":"m 600 -19 q 325 48 447 -19 q 133 235 203 115 q 64 510 64 356 l 64 510 q 133 784 64 664 q 325 972 203 904 q 600 1039 447 1039 l 600 1039 q 875 972 753 1039 q 1067 784 997 904 q 1136 510 1136 664 l 1136 510 q 1067 235 1136 356 q 875 48 997 115 q 600 -19 753 -19 l 600 -19 z m 600 288 q 751 349 692 288 q 810 510 810 411 l 810 510 q 751 670 810 608 q 600 732 692 732 l 600 732 q 449 670 508 732 q 390 510 390 608 l 390 510 q 449 349 390 411 q 600 288 508 288 l 600 288 z "},"P":{"ha":978,"x_min":89,"x_max":928,"o":"m 374 0 l 114 0 q 96 7 103 0 q 89 25 89 14 l 89 25 l 89 994 q 96 1013 89 1006 q 114 1019 103 1019 l 114 1019 l 479 1019 q 928 632 928 1019 l 928 632 q 815 341 928 438 q 479 244 701 244 l 479 244 l 399 244 l 399 25 q 392 7 399 14 q 374 0 385 0 l 374 0 z m 474 769 l 399 769 l 399 494 l 474 494 q 573 526 538 494 q 608 632 608 557 l 608 632 q 573 738 608 707 q 474 769 538 769 l 474 769 z "},"Q":{"ha":1219,"x_min":64,"x_max":1156,"o":"m 1131 0 l 629 0 q 323 63 450 0 q 130 241 196 126 q 64 510 64 356 l 64 510 q 131 783 64 663 q 319 971 197 903 q 599 1039 440 1039 l 599 1039 q 867 976 751 1039 q 1044 806 982 913 q 1107 572 1107 699 l 1107 572 q 1076 410 1107 486 q 988 285 1044 335 l 988 285 l 1131 285 q 1149 278 1142 285 q 1156 260 1156 271 l 1156 260 l 1156 25 q 1149 7 1156 14 q 1131 0 1142 0 l 1131 0 z m 588 288 q 730 349 675 288 q 785 510 785 411 l 785 510 q 730 670 785 608 q 588 732 675 732 l 588 732 q 445 670 500 732 q 390 510 390 608 l 390 510 q 445 349 390 411 q 588 288 500 288 l 588 288 z "},"R":{"ha":978,"x_min":89,"x_max":949,"o":"m 374 0 l 114 0 q 96 7 103 0 q 89 25 89 14 l 89 25 l 89 994 q 96 1013 89 1006 q 114 1019 103 1019 l 114 1019 l 479 1019 q 818 926 708 1019 q 928 644 928 833 l 928 644 q 793 343 928 433 l 793 343 l 946 29 q 949 17 949 25 l 949 17 q 942 5 949 10 q 926 0 936 0 l 926 0 l 635 0 q 606 19 614 0 l 606 19 l 504 269 l 479 269 l 399 269 l 399 25 q 392 7 399 14 q 374 0 385 0 l 374 0 z m 479 769 l 399 769 l 399 519 l 479 519 q 608 644 608 519 l 608 644 q 573 739 608 708 q 479 769 538 769 l 479 769 z "},"S":{"ha":851,"x_min":21,"x_max":828,"o":"m 426 -19 q 174 52 281 -19 q 22 253 67 124 l 22 253 q 21 264 21 257 l 21 264 q 39 285 21 281 l 39 285 l 272 343 l 279 344 q 303 326 297 342 l 303 326 q 356 263 324 282 q 440 244 389 244 l 440 244 q 492 255 472 244 q 511 283 511 265 l 511 283 q 490 319 511 306 q 410 354 468 333 l 410 354 l 293 396 q 110 517 176 438 q 44 710 44 596 l 44 710 q 96 880 44 804 q 235 997 147 956 q 428 1039 324 1039 l 428 1039 q 660 976 561 1039 q 804 785 758 914 l 804 785 q 806 774 806 781 l 806 774 q 788 753 806 757 l 788 753 l 546 686 q 536 685 543 685 l 536 685 q 514 703 519 685 l 514 703 q 472 760 494 744 q 422 775 449 775 l 422 775 q 381 763 399 775 q 364 731 364 751 l 364 731 q 390 694 364 711 q 482 654 415 676 l 482 654 l 561 628 q 763 506 697 582 q 828 306 828 429 l 828 306 q 776 138 828 211 q 633 22 725 64 q 426 -19 542 -19 l 426 -19 z "},"T":{"ha":989,"x_min":36,"x_max":953,"o":"m 628 0 l 361 0 q 343 7 350 0 q 336 25 336 14 l 336 25 l 336 722 l 61 722 q 43 729 50 722 q 36 747 36 736 l 36 747 l 36 994 q 43 1013 36 1006 q 61 1019 50 1019 l 61 1019 l 928 1019 q 946 1013 939 1019 q 953 994 953 1006 l 953 994 l 953 747 q 946 729 953 736 q 928 722 939 722 l 928 722 l 653 722 l 653 25 q 646 7 653 14 q 628 0 639 0 l 628 0 z "},"U":{"ha":1092,"x_min":83,"x_max":1008,"o":"m 546 -19 q 320 24 425 -19 q 149 165 215 68 q 83 415 83 263 l 83 415 l 83 994 q 90 1013 83 1006 q 108 1019 97 1019 l 108 1019 l 375 1019 q 393 1013 386 1019 q 400 994 400 1006 l 400 994 l 400 482 q 438 337 400 386 q 546 288 476 288 l 546 288 q 653 337 615 288 q 692 482 692 386 l 692 482 l 692 994 q 699 1013 692 1006 q 717 1019 706 1019 l 717 1019 l 983 1019 q 1001 1013 994 1019 q 1008 994 1008 1006 l 1008 994 l 1008 415 q 942 165 1008 263 q 772 24 876 68 q 546 -19 667 -19 l 546 -19 z "},"V":{"ha":1083,"x_min":11,"x_max":1075,"o":"m 647 0 l 436 0 q 407 19 415 0 l 407 19 l 14 990 q 11 1000 11 999 l 11 1000 q 17 1015 11 1010 q 35 1019 24 1019 l 35 1019 l 343 1019 q 372 999 367 1019 l 372 999 l 546 461 l 715 999 q 744 1019 722 1019 l 744 1019 l 1049 1019 q 1069 1011 1063 1019 q 1069 990 1075 1003 l 1069 990 l 676 19 q 647 0 668 0 l 647 0 z "},"W":{"ha":1581,"x_min":11,"x_max":1569,"o":"m 611 0 l 401 0 q 374 19 381 0 l 374 19 l 14 990 l 11 1001 q 33 1019 11 1019 l 33 1019 l 344 1019 q 374 999 368 1019 l 374 999 l 521 519 l 661 999 q 689 1019 667 1019 l 689 1019 l 899 1019 q 926 999 921 1019 l 926 999 l 1090 521 l 1214 999 q 1242 1019 1219 1019 l 1242 1019 l 1547 1019 q 1569 1001 1569 1019 l 1569 1001 l 1567 990 l 1207 19 q 1179 0 1200 0 l 1179 0 l 969 0 q 942 21 947 0 l 942 21 l 790 543 l 639 21 q 611 0 633 0 l 611 0 z "},"X":{"ha":1032,"x_min":17,"x_max":1015,"o":"m 335 0 l 38 0 q 17 17 17 0 l 17 17 q 21 31 17 22 l 21 31 l 319 522 l 40 989 q 36 1003 36 997 l 36 1003 q 57 1019 36 1019 l 57 1019 l 364 1019 q 393 1001 382 1019 l 393 1001 l 524 761 l 653 1001 q 682 1019 664 1019 l 682 1019 l 975 1019 q 996 1003 996 1019 l 996 1003 q 992 989 996 997 l 992 989 l 711 524 l 1011 31 q 1015 17 1015 22 l 1015 17 q 994 0 1015 0 l 994 0 l 683 0 q 654 18 665 0 l 654 18 l 510 281 l 364 18 q 335 0 353 0 l 335 0 z "},"Y":{"ha":1061,"x_min":11,"x_max":1050,"o":"m 664 0 l 397 0 q 379 7 386 0 q 372 25 372 14 l 372 25 l 372 363 l 15 989 q 11 1003 11 997 l 11 1003 q 17 1015 11 1010 q 33 1019 24 1019 l 33 1019 l 342 1019 q 371 1001 363 1019 l 371 1001 l 535 654 l 696 1001 q 725 1019 703 1019 l 725 1019 l 1028 1019 q 1044 1015 1038 1019 q 1050 1003 1050 1010 l 1050 1003 q 1046 989 1050 997 l 1046 989 l 689 367 l 689 25 q 682 7 689 14 q 664 0 675 0 l 664 0 z "},"Z":{"ha":871,"x_min":15,"x_max":846,"o":"m 821 0 l 40 0 q 22 7 29 0 q 15 25 15 14 l 15 25 l 15 106 q 24 136 15 119 l 24 136 l 367 722 l 71 722 q 53 729 60 722 q 46 747 46 736 l 46 747 l 46 994 q 53 1013 46 1006 q 71 1019 60 1019 l 71 1019 l 810 1019 q 828 1013 821 1019 q 835 994 835 1006 l 835 994 l 835 914 q 826 883 835 900 l 826 883 l 482 297 l 821 297 q 839 290 832 297 q 846 272 846 283 l 846 272 l 846 25 q 839 7 846 14 q 821 0 832 0 l 821 0 z "},"a":{"ha":925,"x_min":36,"x_max":856,"o":"m 385 -14 q 203 35 282 -14 q 80 172 124 83 q 36 376 36 260 l 36 376 q 80 581 36 493 q 203 718 124 669 q 385 767 282 767 l 385 767 q 593 676 514 767 l 593 676 l 594 728 q 602 746 594 739 q 621 753 610 753 l 621 753 l 831 753 q 849 746 842 753 q 856 728 856 739 l 856 728 l 856 25 q 849 7 856 14 q 831 0 842 0 l 831 0 l 621 0 q 602 7 610 0 q 594 25 594 14 l 594 25 l 593 76 q 385 -14 515 -14 l 385 -14 z m 458 250 q 542 285 510 250 q 575 376 575 321 l 575 376 q 542 467 575 432 q 458 503 510 503 l 458 503 q 374 467 407 503 q 342 376 342 432 l 342 376 q 374 285 342 321 q 458 250 407 250 l 458 250 z "},"b":{"ha":925,"x_min":69,"x_max":889,"o":"m 540 -14 q 332 76 410 -14 l 332 76 l 331 25 q 323 7 331 14 q 304 0 315 0 l 304 0 l 94 0 q 76 7 83 0 q 69 25 69 14 l 69 25 l 69 1017 q 76 1035 69 1028 q 94 1042 83 1042 l 94 1042 l 350 1042 q 368 1035 361 1042 q 375 1017 375 1028 l 375 1017 l 375 717 q 540 767 444 767 l 540 767 q 722 718 643 767 q 845 581 801 669 q 889 376 889 493 l 889 376 q 845 172 889 260 q 722 35 801 83 q 540 -14 643 -14 l 540 -14 z m 467 250 q 551 285 518 250 q 583 376 583 321 l 583 376 q 551 467 583 432 q 467 503 518 503 l 467 503 q 383 467 415 503 q 350 376 350 432 l 350 376 q 383 285 350 321 q 467 250 415 250 l 467 250 z "},"c":{"ha":842,"x_min":36,"x_max":821,"o":"m 428 -14 q 220 35 308 -14 q 84 172 132 83 q 36 376 36 261 l 36 376 q 84 581 36 492 q 220 718 132 669 q 428 767 308 767 l 428 767 q 660 707 561 767 q 799 525 760 647 l 799 525 q 800 514 800 521 l 800 514 q 782 493 800 497 l 782 493 l 567 435 q 558 433 564 433 l 558 433 q 535 450 543 433 l 535 450 q 444 503 504 503 l 444 503 q 371 468 397 503 q 344 376 344 433 l 344 376 q 371 285 344 319 q 444 250 397 250 l 444 250 q 533 307 507 250 l 533 307 q 565 324 544 329 l 565 324 l 796 265 q 813 233 821 258 l 813 233 q 667 49 771 113 q 428 -14 563 -14 l 428 -14 z "},"d":{"ha":925,"x_min":36,"x_max":856,"o":"m 385 -14 q 203 35 282 -14 q 80 172 124 83 q 36 376 36 260 l 36 376 q 80 581 36 493 q 203 718 124 669 q 385 767 282 767 l 385 767 q 550 715 479 767 l 550 715 l 550 1017 q 557 1035 550 1028 q 575 1042 564 1042 l 575 1042 l 831 1042 q 849 1035 842 1042 q 856 1017 856 1028 l 856 1017 l 856 25 q 849 7 856 14 q 831 0 842 0 l 831 0 l 621 0 q 602 7 610 0 q 594 25 594 14 l 594 25 l 593 76 q 385 -14 515 -14 l 385 -14 z m 458 250 q 542 285 510 250 q 575 376 575 321 l 575 376 q 542 467 575 432 q 458 503 510 503 l 458 503 q 374 467 407 503 q 342 376 342 432 l 342 376 q 374 285 342 321 q 458 250 407 250 l 458 250 z "},"e":{"ha":863,"x_min":36,"x_max":826,"o":"m 439 -14 q 228 35 319 -14 q 87 173 138 85 q 36 376 36 261 l 36 376 q 87 580 36 492 q 228 717 138 668 q 439 767 319 767 l 439 767 q 649 717 561 767 q 781 580 736 668 q 826 375 826 492 l 826 375 q 825 329 826 344 l 825 329 q 799 306 822 306 l 799 306 l 339 306 q 442 231 367 231 l 442 231 q 535 260 506 231 l 535 260 q 568 271 550 276 l 568 271 l 788 197 q 804 178 804 192 l 804 178 q 800 165 804 172 l 800 165 q 653 30 750 74 q 439 -14 557 -14 l 439 -14 z m 436 542 q 333 444 350 542 l 333 444 l 538 444 q 436 542 519 542 l 436 542 z "},"f":{"ha":625,"x_min":14,"x_max":729,"o":"m 394 0 l 139 0 q 121 7 128 0 q 114 25 114 14 l 114 25 l 114 496 l 39 496 q 21 503 28 496 q 14 521 14 510 l 14 521 l 14 721 q 21 739 14 732 q 39 746 28 746 l 39 746 l 115 746 q 201 972 124 889 q 429 1056 279 1056 l 429 1056 q 725 899 626 1056 l 725 899 q 729 886 729 893 l 729 886 q 714 865 729 872 l 714 865 l 549 786 q 535 783 544 783 l 535 783 q 514 792 525 783 l 514 792 q 471 806 496 806 l 471 806 q 432 790 447 806 q 413 746 417 775 l 413 746 l 567 746 q 585 739 578 746 q 592 721 592 732 l 592 721 l 592 521 q 585 503 592 510 q 567 496 578 496 l 567 496 l 419 496 l 419 25 q 413 7 419 14 q 394 0 406 0 l 394 0 z "},"g":{"ha":925,"x_min":36,"x_max":856,"o":"m 428 -317 q 190 -256 289 -317 q 54 -94 92 -196 l 54 -94 q 53 -85 53 -90 l 53 -85 q 71 -64 53 -68 l 71 -64 l 265 -10 q 275 -8 269 -8 l 275 -8 q 299 -21 289 -8 l 299 -21 q 349 -60 321 -46 q 419 -74 378 -74 l 419 -74 q 516 -41 482 -74 q 550 44 550 -8 l 550 44 l 550 60 q 385 8 479 8 l 385 8 q 203 57 282 8 q 80 192 124 106 q 36 388 36 278 l 36 388 q 80 583 36 497 q 203 718 124 669 q 385 767 282 767 l 385 767 q 593 676 514 767 l 593 676 l 594 728 q 602 746 594 739 q 621 753 610 753 l 621 753 l 831 753 q 849 746 842 753 q 856 728 856 739 l 856 728 l 856 97 q 737 -217 856 -117 q 428 -317 618 -317 l 428 -317 z m 458 250 q 542 285 510 250 q 575 376 575 321 l 575 376 q 542 467 575 432 q 458 503 510 503 l 458 503 q 374 467 407 503 q 342 376 342 432 l 342 376 q 374 285 342 321 q 458 250 407 250 l 458 250 z "},"h":{"ha":910,"x_min":69,"x_max":846,"o":"m 350 0 l 94 0 q 76 7 83 0 q 69 25 69 14 l 69 25 l 69 1017 q 76 1035 69 1028 q 94 1042 83 1042 l 94 1042 l 350 1042 q 368 1035 361 1042 q 375 1017 375 1028 l 375 1017 l 375 690 q 459 748 411 729 q 571 767 507 767 l 571 767 q 773 693 700 767 q 846 490 846 619 l 846 490 l 846 25 q 839 7 846 14 q 821 0 832 0 l 821 0 l 565 0 q 547 7 554 0 q 540 25 540 14 l 540 25 l 540 382 q 522 476 540 449 q 461 503 504 503 l 461 503 q 375 372 375 503 l 375 372 l 375 25 q 368 7 375 14 q 350 0 361 0 l 350 0 z "},"i":{"ha":444,"x_min":60,"x_max":385,"o":"m 222 824 q 106 867 153 824 q 60 978 60 910 l 60 978 q 106 1089 60 1046 q 222 1132 153 1132 l 222 1132 q 338 1089 292 1132 q 385 978 385 1046 l 385 978 q 338 867 385 910 q 222 824 292 824 l 222 824 z m 350 0 l 94 0 q 76 7 83 0 q 69 25 69 14 l 69 25 l 69 728 q 76 746 69 739 q 94 753 83 753 l 94 753 l 350 753 q 368 746 361 753 q 375 728 375 739 l 375 728 l 375 25 q 368 7 375 14 q 350 0 361 0 l 350 0 z "},"j":{"ha":444,"x_min":-257,"x_max":385,"o":"m 222 824 q 106 867 153 824 q 60 978 60 910 l 60 978 q 106 1089 60 1046 q 222 1132 153 1132 l 222 1132 q 338 1089 292 1132 q 385 978 385 1046 l 385 978 q 338 867 385 910 q 222 824 292 824 l 222 824 z m 54 -318 q -138 -265 -51 -318 q -256 -108 -225 -211 l -256 -108 q -257 -99 -257 -104 l -257 -99 q -239 -78 -257 -82 l -239 -78 l -46 -25 q -36 -24 -43 -24 l -36 -24 q -15 -40 -24 -24 l -15 -40 q 25 -68 -1 -68 l 25 -68 q 69 3 69 -68 l 69 3 l 69 728 q 76 746 69 739 q 94 753 83 753 l 94 753 l 350 753 q 368 746 361 753 q 375 728 375 739 l 375 728 l 375 38 q 54 -318 375 -318 l 54 -318 z "},"k":{"ha":928,"x_min":69,"x_max":900,"o":"m 350 0 l 94 0 q 76 7 83 0 q 69 25 69 14 l 69 25 l 69 1017 q 76 1035 69 1028 q 94 1042 83 1042 l 94 1042 l 350 1042 q 368 1035 361 1042 q 375 1017 375 1028 l 375 1017 l 375 539 l 536 738 q 567 753 547 753 l 567 753 l 854 753 q 869 749 864 753 q 875 739 875 746 l 875 739 q 867 722 875 731 l 867 722 l 663 501 l 897 29 q 900 17 900 25 l 900 17 q 879 0 900 0 l 879 0 l 600 0 q 571 18 578 0 l 571 18 l 451 275 l 375 192 l 375 25 q 368 7 375 14 q 350 0 361 0 l 350 0 z "},"l":{"ha":444,"x_min":69,"x_max":375,"o":"m 350 0 l 94 0 q 76 7 83 0 q 69 25 69 14 l 69 25 l 69 1017 q 76 1035 69 1028 q 94 1042 83 1042 l 94 1042 l 350 1042 q 368 1035 361 1042 q 375 1017 375 1028 l 375 1017 l 375 25 q 368 7 375 14 q 350 0 361 0 l 350 0 z "},"m":{"ha":1369,"x_min":69,"x_max":1306,"o":"m 350 0 l 94 0 q 76 7 83 0 q 69 25 69 14 l 69 25 l 69 728 q 76 746 69 739 q 94 753 83 753 l 94 753 l 306 753 q 331 729 329 753 l 331 729 l 335 669 q 428 743 374 719 q 558 767 483 767 l 558 767 q 790 667 718 767 l 790 667 q 1024 767 869 767 l 1024 767 q 1232 694 1158 767 q 1306 490 1306 621 l 1306 490 l 1306 25 q 1299 7 1306 14 q 1281 0 1292 0 l 1281 0 l 1025 0 q 1007 7 1014 0 q 1000 25 1000 14 l 1000 25 l 1000 382 q 982 476 1000 449 q 921 503 964 503 l 921 503 q 859 470 878 503 q 840 372 840 438 l 840 372 l 840 25 q 833 7 840 14 q 815 0 826 0 l 815 0 l 560 0 q 542 7 549 0 q 535 25 535 14 l 535 25 l 535 382 q 517 476 535 449 q 456 503 499 503 l 456 503 q 394 470 413 503 q 375 372 375 438 l 375 372 l 375 25 q 368 7 375 14 q 350 0 361 0 l 350 0 z "},"n":{"ha":910,"x_min":69,"x_max":846,"o":"m 350 0 l 94 0 q 76 7 83 0 q 69 25 69 14 l 69 25 l 69 728 q 76 746 69 739 q 94 753 83 753 l 94 753 l 304 753 q 331 728 329 753 l 331 728 l 333 675 q 564 767 417 767 l 564 767 q 772 694 699 767 q 846 490 846 621 l 846 490 l 846 25 q 839 7 846 14 q 821 0 832 0 l 821 0 l 565 0 q 547 7 554 0 q 540 25 540 14 l 540 25 l 540 382 q 522 476 540 449 q 461 503 504 503 l 461 503 q 375 372 375 503 l 375 372 l 375 25 q 368 7 375 14 q 350 0 361 0 l 350 0 z "},"o":{"ha":917,"x_min":36,"x_max":881,"o":"m 458 -14 q 236 35 332 -14 q 88 173 140 85 q 36 376 36 261 l 36 376 q 88 580 36 492 q 236 717 140 668 q 458 767 332 767 l 458 767 q 681 717 585 767 q 828 580 776 668 q 881 376 881 492 l 881 376 q 828 173 881 261 q 681 35 776 85 q 458 -14 585 -14 l 458 -14 z m 458 250 q 542 285 510 250 q 575 376 575 321 l 575 376 q 542 467 575 432 q 458 503 510 503 l 458 503 q 374 467 407 503 q 342 376 342 432 l 342 376 q 374 285 342 321 q 458 250 407 250 l 458 250 z "},"p":{"ha":925,"x_min":69,"x_max":889,"o":"m 350 -303 l 94 -303 q 76 -296 83 -303 q 69 -278 69 -289 l 69 -278 l 69 728 q 76 746 69 739 q 94 753 83 753 l 94 753 l 304 753 q 323 746 315 753 q 331 728 331 739 l 331 728 l 332 676 q 540 767 410 767 l 540 767 q 722 718 643 767 q 845 581 801 669 q 889 376 889 493 l 889 376 q 845 172 889 260 q 722 35 801 83 q 540 -14 643 -14 l 540 -14 q 375 36 444 -14 l 375 36 l 375 -278 q 368 -296 375 -289 q 350 -303 361 -303 l 350 -303 z m 467 250 q 551 285 518 250 q 583 376 583 321 l 583 376 q 551 467 583 432 q 467 503 518 503 l 467 503 q 383 467 415 503 q 350 376 350 432 l 350 376 q 383 285 350 321 q 467 250 415 250 l 467 250 z "},"q":{"ha":925,"x_min":36,"x_max":856,"o":"m 831 -303 l 575 -303 q 557 -296 564 -303 q 550 -278 550 -289 l 550 -278 l 550 36 q 385 -14 482 -14 l 385 -14 q 203 35 282 -14 q 80 172 124 83 q 36 376 36 260 l 36 376 q 80 581 36 493 q 203 718 124 669 q 385 767 282 767 l 385 767 q 593 676 514 767 l 593 676 l 594 728 q 602 746 594 739 q 621 753 610 753 l 621 753 l 831 753 q 849 746 842 753 q 856 728 856 739 l 856 728 l 856 -278 q 849 -296 856 -289 q 831 -303 842 -303 l 831 -303 z m 458 250 q 542 285 510 250 q 575 376 575 321 l 575 376 q 542 467 575 432 q 458 503 510 503 l 458 503 q 374 467 407 503 q 342 376 342 432 l 342 376 q 374 285 342 321 q 458 250 407 250 l 458 250 z "},"r":{"ha":640,"x_min":69,"x_max":626,"o":"m 350 0 l 94 0 q 76 7 83 0 q 69 25 69 14 l 69 25 l 69 728 q 76 746 69 739 q 94 753 83 753 l 94 753 l 304 753 q 331 728 329 753 l 331 728 l 333 665 q 549 763 406 763 l 549 763 q 606 754 579 763 l 606 754 q 626 726 626 749 l 626 726 l 626 499 q 619 480 626 486 q 599 476 613 474 l 599 476 q 525 485 565 485 l 525 485 q 423 452 471 485 q 375 350 375 419 l 375 350 l 375 25 q 368 7 375 14 q 350 0 361 0 l 350 0 z "},"s":{"ha":722,"x_min":14,"x_max":706,"o":"m 361 -14 q 140 35 229 -14 q 15 179 51 85 l 15 179 q 14 189 14 183 l 14 189 q 33 208 14 204 l 33 208 l 232 243 l 240 244 q 264 229 253 244 l 264 229 q 301 198 279 210 q 350 186 324 186 l 350 186 q 383 194 371 186 q 394 214 394 201 l 394 214 q 384 235 394 226 q 339 253 374 244 l 339 253 l 317 258 q 43 524 43 325 l 43 524 q 85 650 43 594 q 201 736 126 706 q 369 767 275 767 l 369 767 q 578 721 499 767 q 692 578 657 675 l 692 578 q 693 567 693 574 l 693 567 q 674 547 693 551 l 674 547 l 485 514 l 478 513 q 454 529 464 513 l 454 529 q 427 558 442 550 q 389 567 413 567 l 389 567 q 363 560 372 567 q 353 540 353 553 l 353 540 q 410 497 353 513 l 410 497 l 432 492 q 645 394 585 454 q 706 233 706 335 l 706 233 q 661 103 706 160 q 538 17 617 47 q 361 -14 460 -14 l 361 -14 z "},"t":{"ha":678,"x_min":3,"x_max":682,"o":"m 390 -14 q 169 76 238 -14 q 101 340 101 167 l 101 340 l 101 496 l 28 496 q 10 503 17 496 q 3 521 3 510 l 3 521 l 3 721 q 10 739 3 732 q 28 746 17 746 l 28 746 l 101 746 l 101 906 q 108 924 101 917 q 126 931 115 931 l 126 931 l 382 931 q 400 924 393 931 q 407 906 407 917 l 407 906 l 407 746 l 535 746 q 553 739 546 746 q 560 721 560 732 l 560 721 l 560 521 q 553 503 560 510 q 535 496 546 496 l 535 496 l 407 496 l 407 307 q 415 253 407 269 q 442 236 424 236 l 442 236 q 457 240 450 236 q 472 256 464 243 l 472 256 q 486 263 479 263 l 486 263 q 501 258 490 263 l 501 258 l 667 189 q 682 167 682 182 l 682 167 q 678 151 682 160 l 678 151 q 560 28 640 69 q 390 -14 479 -14 l 390 -14 z "},"u":{"ha":906,"x_min":64,"x_max":836,"o":"m 344 -14 q 137 59 210 -14 q 64 263 64 132 l 64 263 l 64 728 q 71 746 64 739 q 89 753 78 753 l 89 753 l 344 753 q 363 746 356 753 q 369 728 369 739 l 369 728 l 369 371 q 388 277 369 304 q 447 250 406 250 l 447 250 q 510 283 490 250 q 531 381 531 315 l 531 381 l 531 728 q 538 746 531 739 q 556 753 544 753 l 556 753 l 811 753 q 829 746 822 753 q 836 728 836 739 l 836 728 l 836 25 q 829 7 836 14 q 811 0 822 0 l 811 0 l 601 0 q 575 25 578 0 l 575 25 l 572 79 q 477 9 533 32 q 344 -14 421 -14 l 344 -14 z "},"v":{"ha":886,"x_min":14,"x_max":872,"o":"m 525 0 l 361 0 q 332 19 340 0 l 332 19 l 17 724 l 14 735 q 36 753 14 753 l 36 753 l 297 753 q 325 733 318 753 l 325 733 l 450 392 l 572 733 q 600 753 579 753 l 600 753 l 850 753 q 872 735 872 753 l 872 735 l 869 724 l 554 19 q 525 0 546 0 l 525 0 z "},"w":{"ha":1253,"x_min":15,"x_max":1240,"o":"m 465 0 l 301 0 q 274 19 281 0 l 274 19 l 17 724 q 15 735 15 728 l 15 735 q 36 753 15 753 l 36 753 l 297 753 q 326 732 321 753 l 326 732 l 418 429 l 535 736 q 563 756 543 756 l 563 756 l 726 756 q 754 735 749 756 l 754 735 l 861 422 l 963 732 q 992 753 969 753 l 992 753 l 1217 753 q 1235 744 1231 753 q 1236 724 1240 736 l 1236 724 l 979 19 q 951 0 972 0 l 951 0 l 788 0 q 760 21 767 0 l 760 21 l 633 388 l 493 19 q 465 0 485 0 l 465 0 z "},"x":{"ha":868,"x_min":14,"x_max":854,"o":"m 293 0 l 35 0 q 19 4 25 0 q 14 15 14 8 l 14 15 q 19 31 14 24 l 19 31 l 258 381 l 25 722 q 19 738 19 729 l 19 738 q 25 749 19 744 q 40 753 31 753 l 40 753 l 310 753 q 340 736 331 753 l 340 736 l 439 578 l 539 736 q 569 753 549 753 l 569 753 l 828 753 q 843 749 838 753 q 849 738 849 744 l 849 738 q 843 722 849 729 l 843 722 l 608 381 l 849 31 q 854 15 854 24 l 854 15 q 849 4 854 8 q 833 0 843 0 l 833 0 l 564 0 q 535 17 544 0 l 535 17 l 432 188 l 324 17 q 293 0 314 0 l 293 0 z "},"y":{"ha":906,"x_min":14,"x_max":892,"o":"m 447 -303 l 200 -303 q 178 -285 178 -303 l 178 -285 l 181 -274 l 314 60 l 17 724 l 14 735 q 36 753 14 753 l 36 753 l 299 753 q 326 733 318 753 l 326 733 l 461 382 l 601 733 q 631 753 610 753 l 631 753 l 869 753 q 892 735 892 753 l 892 735 l 889 724 l 476 -283 q 447 -303 468 -303 l 447 -303 z "},"z":{"ha":729,"x_min":22,"x_max":707,"o":"m 682 0 l 47 0 q 29 7 36 0 q 22 25 22 14 l 22 25 l 22 85 q 31 115 22 101 l 31 115 l 275 503 l 54 503 q 36 510 43 503 q 29 528 29 517 l 29 528 l 29 728 q 36 746 29 739 q 54 753 43 753 l 54 753 l 676 753 q 694 746 688 753 q 701 728 701 739 l 701 728 l 701 668 q 693 638 701 653 l 693 638 l 449 250 l 682 250 q 700 243 693 250 q 707 225 707 236 l 707 225 l 707 25 q 700 7 707 14 q 682 0 693 0 l 682 0 z "},"ก":{"ha":950,"x_min":83,"x_max":878,"o":"m 108 822 l 503 822 q 781 733 683 822 q 878 475 878 643 l 878 475 l 878 25 q 871 7 878 14 q 853 0 864 0 l 853 0 l 592 0 q 574 7 581 0 q 567 25 567 14 l 567 25 l 567 475 q 467 564 567 564 l 467 564 l 394 564 l 394 25 q 388 7 394 14 q 369 0 381 0 l 369 0 l 108 0 q 90 7 97 0 q 83 25 83 14 l 83 25 l 83 797 q 90 815 83 808 q 108 822 97 822 l 108 822 z "},"ถ":{"ha":953,"x_min":75,"x_max":881,"o":"m 100 822 l 506 822 q 783 733 686 822 q 881 475 881 643 l 881 475 l 881 25 q 874 7 881 14 q 856 0 867 0 l 856 0 l 594 0 q 576 7 583 0 q 569 25 569 14 l 569 25 l 569 475 q 469 564 569 564 l 469 564 l 386 564 l 386 329 q 400 272 386 290 q 444 253 414 253 l 444 253 l 469 253 q 488 248 483 253 q 492 228 492 243 l 492 228 l 492 22 q 469 -4 492 0 l 469 -4 q 374 -11 435 -11 l 374 -11 q 149 62 222 -11 q 75 283 75 135 l 75 283 l 75 797 q 82 815 75 808 q 100 822 89 822 l 100 822 z "},"ฤ":{"ha":953,"x_min":75,"x_max":881,"o":"m 100 822 l 506 822 q 783 733 686 822 q 881 475 881 643 l 881 475 l 881 -292 q 874 -310 881 -303 q 856 -317 867 -317 l 856 -317 l 594 -317 q 576 -310 583 -317 q 569 -292 569 -303 l 569 -292 l 569 475 q 469 564 569 564 l 469 564 l 386 564 l 386 329 q 400 272 386 290 q 444 253 414 253 l 444 253 l 469 253 q 488 248 483 253 q 492 228 492 243 l 492 228 l 492 22 q 469 -4 492 0 l 469 -4 q 374 -11 435 -11 l 374 -11 q 149 62 222 -11 q 75 283 75 135 l 75 283 l 75 797 q 82 815 75 808 q 100 822 89 822 l 100 822 z "},"ภ":{"ha":972,"x_min":14,"x_max":900,"o":"m 136 822 l 525 822 q 803 733 706 822 q 900 475 900 643 l 900 475 l 900 25 q 893 7 900 14 q 875 0 886 0 l 875 0 l 614 0 q 596 7 603 0 q 589 25 589 14 l 589 25 l 589 475 q 489 564 589 564 l 489 564 l 422 564 l 422 269 q 347 62 422 135 q 132 -11 272 -11 l 132 -11 q 36 -4 71 -11 l 36 -4 q 14 22 14 0 l 14 22 l 14 228 q 18 248 14 243 q 36 253 22 253 l 36 253 l 50 253 q 111 315 111 253 l 111 315 l 111 797 q 118 815 111 808 q 136 822 125 822 l 136 822 z "},"ฦ":{"ha":972,"x_min":14,"x_max":900,"o":"m 136 822 l 525 822 q 803 733 706 822 q 900 475 900 643 l 900 475 l 900 -292 q 893 -310 900 -303 q 875 -317 886 -317 l 875 -317 l 614 -317 q 596 -310 603 -317 q 589 -292 589 -303 l 589 -292 l 589 475 q 489 564 589 564 l 489 564 l 422 564 l 422 269 q 347 62 422 135 q 132 -11 272 -11 l 132 -11 q 36 -4 71 -11 l 36 -4 q 14 22 14 0 l 14 22 l 14 228 q 18 248 14 243 q 36 253 22 253 l 36 253 l 50 253 q 111 315 111 253 l 111 315 l 111 797 q 118 815 111 808 q 136 822 125 822 l 136 822 z "},"ฎ":{"ha":972,"x_min":14,"x_max":900,"o":"m 136 822 l 525 822 q 803 733 706 822 q 900 475 900 643 l 900 475 l 900 -347 q 893 -365 900 -358 q 875 -372 886 -372 l 875 -372 l 575 -372 q 559 -368 565 -372 q 546 -354 553 -364 l 546 -354 q 508 -322 532 -333 q 454 -311 485 -311 l 454 -311 q 399 -324 421 -311 q 358 -365 376 -337 l 358 -365 q 326 -378 347 -385 l 326 -378 l 85 -301 q 69 -269 61 -293 l 69 -269 q 183 -126 106 -176 q 363 -75 261 -75 l 363 -75 q 589 -178 511 -75 l 589 -178 l 589 475 q 489 564 589 564 l 489 564 l 422 564 l 422 269 q 347 62 422 135 q 132 -11 272 -11 l 132 -11 q 36 -4 71 -11 l 36 -4 q 14 22 14 0 l 14 22 l 14 228 q 18 248 14 243 q 36 253 22 253 l 36 253 l 50 253 q 111 315 111 253 l 111 315 l 111 797 q 118 815 111 808 q 136 822 125 822 l 136 822 z "},"ฏ":{"ha":972,"x_min":14,"x_max":900,"o":"m 136 822 l 525 822 q 803 733 706 822 q 900 475 900 643 l 900 475 l 900 -157 q 833 -328 900 -264 q 650 -392 765 -392 l 650 -392 q 538 -372 589 -392 q 451 -315 486 -353 l 451 -315 q 375 -372 419 -353 q 278 -392 331 -392 l 278 -392 q 136 -342 194 -392 q 46 -197 78 -292 l 46 -197 q 44 -186 44 -193 l 44 -186 q 63 -167 44 -171 l 63 -167 l 279 -100 q 289 -99 282 -99 l 289 -99 q 310 -117 304 -99 l 310 -117 q 354 -156 325 -156 l 354 -156 q 397 -122 383 -156 l 397 -122 q 425 -100 406 -100 l 425 -100 l 471 -100 q 497 -124 490 -100 l 497 -124 q 542 -156 508 -156 l 542 -156 q 576 -141 564 -156 q 589 -100 589 -126 l 589 -100 l 589 475 q 489 564 589 564 l 489 564 l 422 564 l 422 269 q 347 62 422 135 q 132 -11 272 -11 l 132 -11 q 36 -4 71 -11 l 36 -4 q 14 22 14 0 l 14 22 l 14 228 q 18 248 14 243 q 36 253 22 253 l 36 253 l 50 253 q 111 315 111 253 l 111 315 l 111 797 q 118 815 111 808 q 136 822 125 822 l 136 822 z "},"ญ":{"ha":1406,"x_min":75,"x_max":1322,"o":"m 1036 822 l 1297 822 q 1322 797 1322 822 l 1322 797 l 1322 36 q 1274 -169 1322 -82 q 1137 -303 1226 -257 q 926 -350 1047 -350 l 926 -350 q 702 -291 796 -350 q 575 -129 608 -232 l 575 -129 q 574 -119 574 -125 l 574 -119 q 592 -99 574 -103 l 592 -99 l 786 -44 q 796 -43 790 -43 l 796 -43 q 818 -54 808 -43 l 818 -54 q 936 -107 865 -107 l 936 -107 q 1023 -76 990 -107 q 1056 6 1056 -46 l 1056 6 l 1056 101 q 832 0 976 0 l 832 0 q 630 73 701 0 q 558 276 558 146 l 558 276 l 558 475 q 458 564 558 564 l 458 564 l 386 564 l 386 329 q 442 253 386 253 l 442 253 l 467 253 q 485 248 481 253 q 489 228 489 243 l 489 228 l 489 22 q 467 -4 489 0 l 467 -4 q 371 -11 432 -11 l 371 -11 q 149 62 222 -11 q 75 283 75 135 l 75 283 l 75 797 q 82 815 75 808 q 100 822 89 822 l 100 822 l 494 822 q 772 733 675 822 q 869 475 869 643 l 869 475 l 869 376 q 885 289 869 314 q 938 264 900 264 l 938 264 q 994 294 976 264 q 1011 385 1011 324 l 1011 385 l 1011 797 q 1036 822 1011 822 l 1036 822 z "},"ฌ":{"ha":1397,"x_min":75,"x_max":1322,"o":"m 1036 822 l 1297 822 q 1322 797 1322 822 l 1322 797 l 1322 268 q 1250 56 1322 132 q 1049 -19 1178 -19 l 1049 -19 q 825 82 904 -19 l 825 82 l 821 24 q 796 0 819 0 l 796 0 l 583 0 q 565 7 572 0 q 558 25 558 14 l 558 25 l 558 475 q 458 564 558 564 l 458 564 l 386 564 l 386 329 q 442 253 386 253 l 442 253 l 467 253 q 485 248 481 253 q 489 228 489 243 l 489 228 l 489 22 q 467 -4 489 0 l 467 -4 q 371 -11 432 -11 l 371 -11 q 149 62 222 -11 q 75 283 75 135 l 75 283 l 75 797 q 82 815 75 808 q 100 822 89 822 l 100 822 l 494 822 q 772 733 675 822 q 869 475 869 643 l 869 475 l 869 365 q 888 274 869 303 q 943 244 906 244 l 943 244 q 996 272 981 244 q 1011 368 1011 300 l 1011 368 l 1011 797 q 1036 822 1011 822 l 1036 822 z "},"ณ":{"ha":1406,"x_min":75,"x_max":1322,"o":"m 1036 822 l 1297 822 q 1322 797 1322 822 l 1322 797 l 1322 25 q 1315 7 1322 14 q 1297 0 1308 0 l 1297 0 l 1085 0 q 1060 24 1061 0 l 1060 24 l 1056 82 q 832 -19 976 -19 l 832 -19 q 630 53 701 -19 q 558 257 558 125 l 558 257 l 558 475 q 458 564 558 564 l 458 564 l 386 564 l 386 329 q 442 253 386 253 l 442 253 l 467 253 q 485 248 481 253 q 489 228 489 243 l 489 228 l 489 22 q 467 -4 489 0 l 467 -4 q 371 -11 432 -11 l 371 -11 q 149 62 222 -11 q 75 283 75 135 l 75 283 l 75 797 q 82 815 75 808 q 100 822 89 822 l 100 822 l 494 822 q 772 733 675 822 q 869 475 869 643 l 869 475 l 869 357 q 885 269 869 294 q 938 244 900 244 l 938 244 q 993 274 975 244 q 1011 365 1011 303 l 1011 365 l 1011 797 q 1036 822 1011 822 l 1036 822 z "},"ข":{"ha":894,"x_min":44,"x_max":822,"o":"m 536 822 l 797 822 q 815 815 808 822 q 822 797 822 808 l 822 797 l 822 318 q 725 69 822 157 q 450 -19 628 -19 l 450 -19 q 175 69 272 -19 q 78 318 78 157 l 78 318 l 78 389 q 102 515 78 471 q 164 586 126 558 l 164 586 l 69 586 q 51 593 58 586 q 44 611 44 600 l 44 611 l 44 797 q 51 815 44 808 q 69 822 58 822 l 69 822 l 428 822 q 446 815 439 822 q 453 797 453 808 l 453 797 l 453 710 q 445 653 453 679 q 421 592 438 628 l 421 592 q 391 513 401 547 q 381 429 381 478 l 381 429 l 381 326 q 397 266 381 288 q 444 244 414 244 l 444 244 q 494 265 476 244 q 511 326 511 286 l 511 326 l 511 797 q 518 815 511 808 q 536 822 525 822 l 536 822 z "},"ช":{"ha":906,"x_min":44,"x_max":869,"o":"m 611 842 l 847 842 q 863 837 857 842 q 869 825 869 832 l 869 825 q 867 813 869 817 l 867 813 l 765 606 q 833 415 833 540 l 833 415 l 833 324 q 735 70 833 160 q 456 -19 636 -19 l 456 -19 q 176 70 275 -19 q 78 324 78 160 l 78 324 l 78 389 q 102 515 78 471 q 164 586 126 558 l 164 586 l 69 586 q 51 593 58 586 q 44 611 44 600 l 44 611 l 44 797 q 51 815 44 808 q 69 822 58 822 l 69 822 l 428 822 q 446 815 439 822 q 453 797 453 808 l 453 797 l 453 710 q 449 668 453 688 l 449 668 l 519 668 l 582 822 q 611 842 590 842 l 611 842 z m 522 332 l 522 410 q 503 474 522 451 q 447 496 483 496 l 447 496 l 388 496 q 381 429 381 464 l 381 429 l 381 332 q 399 267 381 290 q 451 244 418 244 l 451 244 q 503 267 485 244 q 522 332 522 290 l 522 332 z "},"ฃ":{"ha":911,"x_min":33,"x_max":839,"o":"m 553 822 l 814 822 q 832 815 825 822 q 839 797 839 808 l 839 797 l 839 335 q 741 73 839 165 q 463 -19 643 -19 l 463 -19 q 184 69 282 -19 q 86 321 86 158 l 86 321 l 86 389 q 113 519 86 475 q 181 592 140 563 l 181 592 l 58 592 q 40 599 47 592 q 33 617 33 606 l 33 617 l 33 797 q 40 815 33 808 q 58 822 47 822 l 58 822 l 119 822 q 150 813 136 822 l 150 813 l 242 753 l 321 813 q 351 822 332 822 l 351 822 l 444 822 q 463 815 456 822 q 469 797 469 808 l 469 797 l 469 710 q 460 647 469 675 q 433 579 451 618 l 433 579 q 401 492 413 533 q 389 396 389 450 l 389 396 l 389 329 q 407 267 389 289 q 457 244 425 244 l 457 244 q 509 269 490 244 q 528 340 528 294 l 528 340 l 528 797 q 535 815 528 808 q 553 822 542 822 l 553 822 z "},"ซ":{"ha":917,"x_min":33,"x_max":881,"o":"m 628 842 l 858 842 q 874 837 868 842 q 881 825 881 832 l 881 825 q 878 813 881 817 l 878 813 l 776 604 q 844 415 844 536 l 844 415 l 844 342 q 747 74 844 168 q 468 -19 650 -19 l 468 -19 q 186 72 286 -19 q 86 328 86 163 l 86 328 l 86 389 q 112 517 86 475 q 181 592 138 560 l 181 592 l 58 592 q 40 599 47 592 q 33 617 33 606 l 33 617 l 33 797 q 40 815 33 808 q 58 822 47 822 l 58 822 l 113 822 q 143 813 129 822 l 143 813 l 235 753 l 314 813 q 344 822 325 822 l 344 822 l 431 822 q 449 815 442 822 q 456 797 456 808 l 456 797 l 456 724 q 449 663 456 694 l 449 663 l 535 663 l 600 822 q 628 842 608 842 l 628 842 z m 539 347 l 539 410 q 519 474 539 451 q 464 496 500 496 l 464 496 l 392 496 q 383 410 383 458 l 383 410 l 383 336 q 405 269 383 294 q 463 244 426 244 l 463 244 q 519 272 499 244 q 539 347 539 299 l 539 347 z "},"ค":{"ha":947,"x_min":72,"x_max":875,"o":"m 353 0 l 97 0 q 79 7 86 0 q 72 25 72 14 l 72 25 l 72 481 q 173 747 72 653 q 460 842 274 842 l 460 842 q 767 748 658 842 q 875 481 875 654 l 875 481 l 875 25 q 868 7 875 14 q 850 0 861 0 l 850 0 l 594 0 q 576 7 583 0 q 569 25 569 14 l 569 25 l 569 450 q 541 549 569 514 q 460 583 513 583 l 460 583 q 378 549 407 583 q 350 450 350 514 l 350 450 l 350 422 l 483 422 q 501 415 494 422 q 508 397 508 408 l 508 397 l 508 211 q 501 193 508 200 q 483 186 494 186 l 483 186 l 378 186 l 378 25 q 371 7 378 14 q 353 0 364 0 l 353 0 z "},"ศ":{"ha":961,"x_min":72,"x_max":947,"o":"m 474 833 l 922 833 q 940 826 933 833 q 947 808 947 819 l 947 808 l 947 617 q 922 592 947 592 l 922 592 l 819 592 q 860 537 846 571 q 875 461 875 503 l 875 461 l 875 25 q 868 7 875 14 q 850 0 861 0 l 850 0 l 594 0 q 576 7 583 0 q 569 25 569 14 l 569 25 l 569 458 q 541 555 569 521 q 460 589 513 589 l 460 589 q 378 555 407 589 q 350 458 350 521 l 350 458 l 350 422 l 483 422 q 501 415 494 422 q 508 397 508 408 l 508 397 l 508 211 q 501 193 508 200 q 483 186 494 186 l 483 186 l 378 186 l 378 25 q 371 7 378 14 q 353 0 364 0 l 353 0 l 97 0 q 79 7 86 0 q 72 25 72 14 l 72 25 l 72 481 q 177 741 72 649 q 474 833 282 833 l 474 833 z "},"ฅ":{"ha":961,"x_min":72,"x_max":889,"o":"m 353 0 l 97 0 q 79 7 86 0 q 72 25 72 14 l 72 25 l 72 486 q 321 836 72 782 l 321 836 l 471 722 l 607 836 q 889 486 889 786 l 889 486 l 889 25 q 882 7 889 14 q 864 0 875 0 l 864 0 l 608 0 q 590 7 597 0 q 583 25 583 14 l 583 25 l 583 500 q 574 547 583 531 q 542 569 564 564 l 542 569 l 479 521 l 460 521 l 392 569 q 360 547 369 564 q 350 500 350 531 l 350 500 l 350 411 l 483 411 q 501 404 494 411 q 508 386 508 397 l 508 386 l 508 200 q 501 182 508 189 q 483 175 494 175 l 483 175 l 378 175 l 378 25 q 371 7 378 14 q 353 0 364 0 l 353 0 z "},"ด":{"ha":958,"x_min":58,"x_max":886,"o":"m 374 -14 q 140 73 221 -14 q 58 322 58 160 l 58 322 l 58 478 q 109 670 58 588 q 253 797 160 753 q 472 842 347 842 l 472 842 q 691 797 597 842 q 835 670 785 753 q 886 478 886 588 l 886 478 l 886 25 q 879 7 886 14 q 861 0 872 0 l 861 0 l 600 0 q 582 7 589 0 q 575 25 575 14 l 575 25 l 575 447 q 547 542 575 507 q 472 578 519 578 l 472 578 q 397 542 425 578 q 369 447 369 507 l 369 447 l 369 353 q 444 250 369 250 l 444 250 l 469 250 q 488 245 483 250 q 492 225 492 240 l 492 225 l 492 19 q 469 -7 492 -3 l 469 -7 q 374 -14 435 -14 l 374 -14 z "},"ต":{"ha":972,"x_min":58,"x_max":900,"o":"m 381 -14 q 143 74 228 -14 q 58 322 58 161 l 58 322 l 58 486 q 131 717 58 625 q 332 836 203 808 l 332 836 l 485 722 l 633 836 q 830 718 760 810 q 900 486 900 626 l 900 486 l 900 25 q 893 7 900 14 q 875 0 886 0 l 875 0 l 614 0 q 596 7 603 0 q 589 25 589 14 l 589 25 l 589 506 q 579 547 589 531 q 553 569 569 563 l 553 569 l 489 521 l 475 521 l 411 569 q 381 547 392 563 q 369 506 369 531 l 369 506 l 369 353 q 391 276 369 301 q 451 250 413 250 l 451 250 l 476 250 q 494 245 490 250 q 499 225 499 240 l 499 225 l 499 19 q 476 -7 499 -3 l 476 -7 q 381 -14 442 -14 l 381 -14 z "},"ฒ":{"ha":1417,"x_min":58,"x_max":1342,"o":"m 375 -14 q 140 73 222 -14 q 58 322 58 160 l 58 322 l 58 486 q 129 718 58 626 q 329 836 200 810 l 329 836 l 479 722 l 625 836 q 820 718 751 810 q 889 486 889 626 l 889 486 l 889 365 q 906 274 889 304 q 963 244 924 244 l 963 244 q 1015 272 1000 244 q 1031 368 1031 300 l 1031 368 l 1031 797 q 1056 822 1031 822 l 1056 822 l 1317 822 q 1342 797 1342 822 l 1342 797 l 1342 268 q 1270 57 1342 133 q 1068 -19 1199 -19 l 1068 -19 q 844 82 924 -19 l 844 82 l 840 24 q 815 0 839 0 l 815 0 l 603 0 q 585 7 592 0 q 578 25 578 14 l 578 25 l 578 506 q 544 569 578 557 l 544 569 l 483 521 l 469 521 l 408 569 q 369 506 369 557 l 369 506 l 369 353 q 446 250 369 250 l 446 250 l 471 250 q 489 245 485 250 q 493 225 493 240 l 493 225 l 493 19 q 471 -7 493 -3 l 471 -7 q 375 -14 436 -14 l 375 -14 z "},"ท":{"ha":953,"x_min":83,"x_max":878,"o":"m 369 0 l 108 0 q 83 25 83 0 l 83 25 l 83 797 q 90 815 83 808 q 108 822 97 822 l 108 822 l 321 822 q 346 799 344 822 l 346 799 l 350 740 q 588 842 433 842 l 588 842 q 802 765 726 842 q 878 554 878 689 l 878 554 l 878 25 q 853 0 878 0 l 853 0 l 592 0 q 567 25 567 0 l 567 25 l 567 447 q 548 549 567 519 q 483 578 529 578 l 483 578 q 394 438 394 578 l 394 438 l 394 25 q 369 0 394 0 l 369 0 z "},"ฑ":{"ha":958,"x_min":24,"x_max":878,"o":"m 646 836 q 816 778 754 836 q 878 610 878 719 l 878 610 l 878 25 q 853 0 878 0 l 853 0 l 592 0 q 567 25 567 0 l 567 25 l 567 497 q 507 572 567 572 l 507 572 q 471 562 488 572 q 435 525 454 551 l 435 525 q 403 469 413 494 q 394 404 394 443 l 394 404 l 394 25 q 369 0 394 0 l 369 0 l 108 0 q 83 25 83 0 l 83 25 l 83 375 q 96 486 83 446 q 143 563 108 526 l 143 563 q 169 592 156 575 l 169 592 l 49 592 q 31 599 38 592 q 24 617 24 606 l 24 617 l 24 797 q 31 815 24 808 q 49 822 38 822 l 49 822 l 110 822 q 140 813 126 822 l 140 813 l 232 753 l 311 813 q 342 822 322 822 l 342 822 l 406 822 q 424 815 417 822 q 431 797 431 808 l 431 797 l 431 750 q 529 815 478 794 q 646 836 581 836 l 646 836 z "},"น":{"ha":950,"x_min":75,"x_max":867,"o":"m 364 -19 q 150 56 225 -19 q 75 265 75 131 l 75 265 l 75 797 q 100 822 75 822 l 100 822 l 361 822 q 386 797 386 822 l 386 797 l 386 372 q 405 273 386 301 q 468 244 424 244 l 468 244 q 535 279 514 244 q 556 382 556 314 l 556 382 l 556 797 q 581 822 556 822 l 581 822 l 842 822 q 867 797 867 822 l 867 797 l 867 25 q 860 7 867 14 q 842 0 853 0 l 842 0 l 629 0 q 604 24 606 0 l 604 24 l 600 82 q 364 -19 517 -19 l 364 -19 z "},"ม":{"ha":950,"x_min":83,"x_max":875,"o":"m 586 -19 q 350 82 433 -19 l 350 82 l 346 24 q 321 0 344 0 l 321 0 l 108 0 q 90 7 97 0 q 83 25 83 14 l 83 25 l 83 797 q 108 822 83 822 l 108 822 l 369 822 q 394 797 394 822 l 394 797 l 394 382 q 416 278 394 313 q 482 244 438 244 l 482 244 q 546 273 528 244 q 564 372 564 301 l 564 372 l 564 797 q 589 822 564 822 l 589 822 l 850 822 q 875 797 875 822 l 875 797 l 875 276 q 799 58 875 136 q 586 -19 722 -19 l 586 -19 z "},"ฆ":{"ha":969,"x_min":42,"x_max":894,"o":"m 608 822 l 869 822 q 894 797 894 822 l 894 797 l 894 276 q 813 60 894 139 q 592 -19 732 -19 l 592 -19 q 356 82 439 -19 l 356 82 l 351 24 q 326 0 350 0 l 326 0 l 119 0 q 101 7 108 0 q 94 25 94 14 l 94 25 l 94 389 q 120 517 94 475 q 189 592 146 560 l 189 592 l 67 592 q 49 599 56 592 q 42 617 42 606 l 42 617 l 42 797 q 49 815 42 808 q 67 822 56 822 l 67 822 l 128 822 q 158 813 144 822 l 158 813 l 250 753 l 329 813 q 360 822 340 822 l 360 822 l 453 822 q 471 815 464 822 q 478 797 478 808 l 478 797 l 478 710 q 469 649 478 676 q 443 585 460 622 l 443 585 q 411 501 422 540 q 400 407 400 461 l 400 407 l 400 382 q 421 279 400 314 q 488 244 442 244 l 488 244 q 559 274 535 244 q 583 372 583 303 l 583 372 l 583 797 q 608 822 583 822 l 608 822 z "},"ธ":{"ha":832,"x_min":56,"x_max":801,"o":"m 344 568 l 508 538 q 801 253 801 483 l 801 253 q 709 61 801 122 q 419 0 617 0 l 419 0 l 97 0 q 79 7 86 0 q 72 25 72 14 l 72 25 l 72 310 q 79 328 72 321 q 97 335 86 335 l 97 335 l 336 335 q 354 328 347 335 q 361 310 361 321 l 361 310 l 361 222 l 413 222 q 501 290 501 222 l 501 290 q 476 341 501 324 q 385 369 451 358 l 385 369 l 78 422 q 56 450 56 426 l 56 450 l 56 510 q 156 755 56 668 q 442 842 257 842 l 442 842 q 667 792 582 842 q 788 639 751 742 l 788 639 q 789 629 789 635 l 789 629 q 769 610 789 614 l 769 610 l 581 576 l 574 575 q 549 590 561 575 l 549 590 q 450 625 519 625 l 450 625 q 344 568 357 625 l 344 568 z "},"ร":{"ha":747,"x_min":25,"x_max":717,"o":"m 372 -19 q 150 33 239 -19 q 26 188 61 85 l 26 188 q 25 197 25 192 l 25 197 q 44 218 25 214 l 44 218 l 243 257 l 250 258 q 275 243 267 258 l 275 243 q 308 211 288 222 q 354 200 329 200 l 354 200 q 408 236 408 200 l 408 236 q 350 289 408 272 l 350 289 l 315 299 q 54 571 54 371 l 54 571 q 142 769 54 697 q 385 842 229 842 l 385 842 q 590 792 513 842 q 703 639 667 743 l 703 639 q 704 629 704 635 l 704 629 q 685 610 704 614 l 685 610 l 496 576 l 488 575 q 464 590 475 575 l 464 590 q 400 625 438 625 l 400 625 q 369 616 381 625 q 357 592 357 607 l 357 592 q 421 539 357 557 l 421 539 l 456 529 q 656 421 596 490 q 717 251 717 351 l 717 251 q 623 49 717 117 q 372 -19 529 -19 l 372 -19 z "},"จ":{"ha":889,"x_min":35,"x_max":844,"o":"m 432 842 q 735 738 626 842 q 844 450 844 635 l 844 450 q 794 217 844 328 q 646 13 743 106 l 646 13 q 615 0 636 0 l 615 0 l 261 0 q 233 21 240 0 l 233 21 l 163 265 l 100 265 q 82 272 89 265 q 75 290 75 279 l 75 290 l 75 454 q 82 472 75 465 q 100 479 89 479 l 100 479 l 375 479 q 394 473 386 479 q 403 457 401 467 l 403 457 l 458 229 q 524 417 524 308 l 524 417 q 492 540 524 497 q 404 583 461 583 l 404 583 q 314 542 346 583 l 314 542 q 299 529 307 532 q 282 529 292 526 l 282 529 l 53 590 q 35 610 35 594 l 35 610 q 38 622 35 614 l 38 622 q 185 784 82 726 q 432 842 289 842 l 432 842 z "},"ฐ":{"ha":903,"x_min":33,"x_max":889,"o":"m 428 833 l 864 833 q 882 826 875 833 q 889 808 889 819 l 889 808 l 889 617 q 864 592 889 592 l 864 592 l 758 592 q 821 508 799 560 q 843 396 843 457 l 843 396 q 797 208 843 296 q 644 13 751 119 l 644 13 q 631 3 638 6 q 614 0 625 0 l 614 0 l 260 0 q 232 21 239 0 l 232 21 l 163 257 l 99 257 q 81 264 88 257 q 74 282 74 271 l 74 282 l 74 446 q 81 464 74 457 q 99 471 88 471 l 99 471 l 374 471 q 392 465 385 471 q 401 449 400 458 l 401 449 l 457 229 q 522 414 522 308 l 522 414 q 492 533 522 492 q 403 575 461 575 l 403 575 q 313 533 344 575 l 313 533 q 298 521 306 524 q 281 521 290 518 l 281 521 l 51 582 q 33 601 33 586 l 33 601 q 36 614 33 606 l 36 614 q 183 776 81 719 q 428 833 285 833 l 428 833 z m 589 -44 l 804 -44 q 822 -51 815 -44 q 829 -69 829 -58 l 829 -69 l 829 -87 q 769 -279 829 -208 q 610 -350 708 -350 l 610 -350 q 433 -258 499 -350 l 433 -258 q 358 -326 403 -301 q 260 -350 313 -350 l 260 -350 q 126 -298 183 -350 q 43 -156 69 -246 l 43 -156 q 42 -146 42 -153 l 42 -146 q 60 -125 42 -131 l 60 -125 l 263 -58 q 272 -57 267 -57 l 272 -57 q 293 -75 286 -57 l 293 -75 q 338 -114 308 -114 l 338 -114 q 381 -81 367 -114 l 381 -81 q 392 -63 386 -68 q 408 -58 399 -58 l 408 -58 l 454 -58 q 471 -64 465 -58 q 481 -82 476 -69 l 481 -82 q 526 -114 492 -114 l 526 -114 q 560 -103 547 -114 q 572 -72 572 -92 l 572 -72 l 572 -61 q 577 -49 572 -54 q 589 -44 582 -44 l 589 -44 z "},"ว":{"ha":906,"x_min":42,"x_max":861,"o":"m 444 -19 q 199 48 297 -19 q 65 240 101 115 l 65 240 q 64 250 64 243 l 64 250 q 83 271 64 267 l 83 271 l 329 335 q 338 336 332 336 l 338 336 q 360 317 351 336 l 360 317 q 444 244 389 244 l 444 244 q 515 290 489 244 q 542 411 542 336 l 542 411 q 513 533 542 489 q 436 578 485 578 l 436 578 q 378 558 404 578 q 339 499 353 538 l 339 499 q 307 481 331 474 l 307 481 l 67 540 q 49 572 42 547 l 49 572 q 192 772 89 703 q 446 842 294 842 l 446 842 q 666 790 572 842 q 810 640 760 738 q 861 411 861 543 l 861 411 q 811 182 861 279 q 667 33 761 85 q 444 -19 572 -19 l 444 -19 z "},"ง":{"ha":889,"x_min":14,"x_max":844,"o":"m 547 836 q 701 786 633 836 q 807 646 769 736 q 844 440 844 556 l 844 440 q 779 181 844 293 q 593 7 714 68 l 593 7 q 561 0 581 0 l 561 0 l 258 0 q 231 22 236 0 l 231 22 l 15 794 q 14 803 14 797 l 14 803 q 20 817 14 813 q 38 822 26 822 l 38 822 l 294 822 q 322 800 315 822 l 322 800 l 460 253 q 536 432 536 311 l 536 432 q 515 536 536 500 q 453 572 493 572 l 453 572 l 432 571 q 419 576 424 571 q 414 592 414 582 l 414 592 l 414 792 q 419 811 414 804 q 438 822 425 818 l 438 822 q 547 836 483 836 l 547 836 z "},"ฉ":{"ha":908,"x_min":58,"x_max":836,"o":"m 346 -19 q 144 53 215 -19 q 72 257 72 125 l 72 257 l 72 419 q 79 438 72 431 q 97 444 86 444 l 97 444 l 358 444 q 376 438 369 444 q 383 419 383 431 l 383 419 l 383 357 q 399 269 383 294 q 451 244 414 244 l 451 244 q 507 274 489 244 q 525 365 525 303 l 525 365 l 525 499 q 499 560 525 536 q 432 583 474 583 l 432 583 q 332 532 371 583 l 332 532 q 300 519 319 514 l 300 519 l 76 588 q 58 608 58 592 l 58 608 l 61 619 q 210 783 107 724 q 451 842 314 842 l 451 842 q 656 798 569 842 q 790 674 743 754 q 836 483 836 593 l 836 483 l 836 25 q 829 7 836 14 q 811 0 822 0 l 811 0 l 599 0 q 574 24 575 0 l 574 24 l 569 82 q 346 -19 490 -19 l 346 -19 z "},"ล":{"ha":897,"x_min":49,"x_max":825,"o":"m 442 842 q 645 797 558 842 q 778 672 732 753 q 825 481 825 590 l 825 481 l 825 25 q 818 7 825 14 q 800 0 811 0 l 800 0 l 539 0 q 521 7 528 0 q 514 25 514 14 l 514 25 l 514 307 l 432 307 q 363 267 363 307 l 363 267 q 378 236 363 247 q 421 225 393 225 l 421 225 l 431 225 q 453 201 453 225 l 453 201 l 453 24 q 433 -3 453 1 l 433 -3 q 317 -14 369 -14 l 317 -14 q 121 51 190 -14 q 51 224 51 115 l 51 224 q 150 419 51 351 q 435 488 249 488 l 435 488 l 514 488 l 514 499 q 489 560 514 538 q 422 583 464 583 l 422 583 q 322 532 361 583 l 322 532 q 290 519 310 514 l 290 519 l 67 588 q 49 608 49 592 l 49 608 l 51 619 q 201 783 97 724 q 442 842 304 842 l 442 842 z "},"ส":{"ha":911,"x_min":49,"x_max":897,"o":"m 435 833 l 872 833 q 890 826 883 833 q 897 808 897 819 l 897 808 l 897 617 q 872 592 897 592 l 872 592 l 769 592 q 810 537 796 571 q 825 461 825 503 l 825 461 l 825 25 q 818 7 825 14 q 800 0 811 0 l 800 0 l 539 0 q 521 7 528 0 q 514 25 514 14 l 514 25 l 514 307 l 432 307 q 363 267 363 307 l 363 267 q 378 236 363 247 q 421 225 393 225 l 421 225 l 431 225 q 453 201 453 225 l 453 201 l 453 24 q 433 -3 453 1 l 433 -3 q 317 -14 369 -14 l 317 -14 q 121 51 190 -14 q 51 224 51 115 l 51 224 q 150 419 51 351 q 435 488 249 488 l 435 488 l 514 488 l 514 499 q 488 560 514 538 q 422 583 463 583 l 422 583 q 322 532 361 583 l 322 532 q 290 519 310 514 l 290 519 l 67 588 q 49 608 49 592 l 49 608 l 51 619 q 197 778 99 722 q 435 833 296 833 l 435 833 z "},"บ":{"ha":942,"x_min":72,"x_max":869,"o":"m 471 -19 q 176 78 281 -19 q 72 356 72 176 l 72 356 l 72 797 q 97 822 72 822 l 97 822 l 358 822 q 383 797 383 822 l 383 797 l 383 361 q 406 275 383 306 q 471 244 429 244 l 471 244 q 535 275 513 244 q 558 361 558 306 l 558 361 l 558 797 q 583 822 558 822 l 583 822 l 844 822 q 869 797 869 822 l 869 797 l 869 356 q 765 78 869 176 q 471 -19 661 -19 l 471 -19 z "},"ป":{"ha":942,"x_min":72,"x_max":869,"o":"m 471 -19 q 176 78 281 -19 q 72 356 72 176 l 72 356 l 72 797 q 97 822 72 822 l 97 822 l 358 822 q 383 797 383 822 l 383 797 l 383 361 q 406 275 383 306 q 471 244 429 244 l 471 244 q 535 275 513 244 q 558 361 558 306 l 558 361 l 558 1078 q 583 1103 558 1103 l 583 1103 l 844 1103 q 869 1078 869 1103 l 869 1078 l 869 356 q 765 78 869 176 q 471 -19 661 -19 l 471 -19 z "},"ษ":{"ha":983,"x_min":72,"x_max":961,"o":"m 897 619 l 936 619 q 954 613 947 619 q 961 594 961 606 l 961 594 l 961 422 q 954 404 961 411 q 936 397 947 397 l 936 397 l 897 397 l 897 369 q 790 82 897 183 q 485 -19 682 -19 l 485 -19 q 180 82 288 -19 q 72 369 72 183 l 72 369 l 72 797 q 97 822 72 822 l 97 822 l 358 822 q 383 797 383 822 l 383 797 l 383 375 q 410 278 383 313 q 485 244 436 244 l 485 244 q 560 278 533 244 q 586 375 586 313 l 586 375 l 586 397 l 475 397 q 457 404 464 397 q 450 422 450 411 l 450 422 l 450 594 q 457 613 450 606 q 475 619 464 619 l 475 619 l 586 619 l 586 797 q 611 822 586 822 l 611 822 l 872 822 q 897 797 897 822 l 897 797 l 897 619 z "},"ย":{"ha":950,"x_min":50,"x_max":867,"o":"m 842 0 l 410 0 q 150 65 239 0 q 61 256 61 129 l 61 256 q 96 379 61 331 q 196 447 131 428 l 196 447 q 88 510 126 463 q 50 629 50 557 l 50 629 q 125 786 50 731 q 335 842 200 842 l 335 842 q 468 828 403 842 l 468 828 q 489 800 489 824 l 489 800 l 489 631 q 468 608 489 608 l 468 608 q 447 610 458 608 q 424 611 436 611 l 424 611 q 380 599 396 611 q 364 565 364 588 l 364 565 q 378 533 364 544 q 419 522 393 522 l 419 522 l 464 522 q 482 515 475 522 q 489 497 489 508 l 489 497 l 489 375 q 482 357 489 364 q 464 350 475 350 l 464 350 l 444 350 q 397 338 414 350 q 381 301 381 325 l 381 301 q 397 259 381 274 q 446 244 414 244 l 446 244 l 531 244 q 549 251 542 244 q 556 269 556 258 l 556 269 l 556 797 q 563 815 556 808 q 581 822 569 822 l 581 822 l 842 822 q 860 815 853 822 q 867 797 867 808 l 867 797 l 867 25 q 860 7 867 14 q 842 0 853 0 l 842 0 z "},"ผ":{"ha":1017,"x_min":81,"x_max":933,"o":"m 372 0 l 106 0 q 88 7 94 0 q 81 25 81 14 l 81 25 l 81 525 q 360 833 81 833 l 360 833 q 456 826 421 833 l 456 826 q 478 800 478 822 l 478 800 l 478 594 q 474 574 478 579 q 456 569 469 569 l 456 569 l 431 569 q 369 479 369 569 l 369 479 l 369 286 l 460 389 q 490 403 472 403 l 490 403 l 515 403 q 546 389 533 403 l 546 389 l 636 286 l 636 797 q 643 815 636 808 q 661 822 650 822 l 661 822 l 908 822 q 926 815 919 822 q 933 797 933 808 l 933 797 l 933 25 q 926 7 933 14 q 908 0 919 0 l 908 0 l 633 0 q 603 15 614 0 l 603 15 l 503 139 l 403 15 q 372 0 392 0 l 372 0 z "},"ฝ":{"ha":1017,"x_min":81,"x_max":933,"o":"m 372 0 l 106 0 q 88 7 94 0 q 81 25 81 14 l 81 25 l 81 525 q 360 833 81 833 l 360 833 q 456 826 421 833 l 456 826 q 478 800 478 822 l 478 800 l 478 594 q 474 574 478 579 q 456 569 469 569 l 456 569 l 431 569 q 369 479 369 569 l 369 479 l 369 286 l 460 389 q 490 403 472 403 l 490 403 l 515 403 q 546 389 533 403 l 546 389 l 636 286 l 636 1078 q 643 1096 636 1089 q 661 1103 650 1103 l 661 1103 l 908 1103 q 926 1096 919 1103 q 933 1078 933 1089 l 933 1078 l 933 25 q 926 7 933 14 q 908 0 919 0 l 908 0 l 633 0 q 603 15 614 0 l 603 15 l 503 139 l 403 15 q 372 0 392 0 l 372 0 z "},"ฟ":{"ha":1111,"x_min":14,"x_max":1124,"o":"m 850 1103 l 1099 1103 q 1117 1096 1111 1103 q 1121 1075 1124 1089 l 1121 1075 l 901 22 q 875 0 897 0 l 875 0 l 686 0 q 667 6 675 0 q 658 22 660 13 l 658 22 l 554 443 l 428 21 q 400 0 422 0 l 400 0 l 217 0 q 198 6 206 0 q 189 22 190 13 l 189 22 l 15 794 l 14 803 q 20 817 14 813 q 38 822 26 822 l 38 822 l 286 822 q 314 800 310 822 l 314 800 l 379 438 l 456 800 q 482 822 460 822 l 482 822 l 632 822 q 658 800 654 822 l 658 800 l 732 438 l 824 1079 q 850 1103 828 1103 l 850 1103 z "},"พ":{"ha":1100,"x_min":14,"x_max":1088,"o":"m 821 822 l 1064 822 q 1082 815 1076 822 q 1085 794 1088 808 l 1085 794 l 904 22 q 876 0 899 0 l 876 0 l 693 0 q 665 21 671 0 l 665 21 l 553 443 l 435 21 q 407 0 429 0 l 407 0 l 224 0 q 196 22 201 0 l 196 22 l 15 794 q 14 803 14 797 l 14 803 q 36 822 14 822 l 36 822 l 285 822 q 313 800 308 822 l 313 800 l 378 439 l 451 800 q 478 822 456 822 l 478 822 l 628 822 q 654 800 650 822 l 654 800 l 731 439 l 793 800 q 821 822 797 822 l 821 822 z "},"ห":{"ha":944,"x_min":81,"x_max":908,"o":"m 765 403 l 906 29 q 908 17 908 21 l 908 17 q 888 0 908 0 l 888 0 l 604 0 q 575 19 582 0 l 575 19 l 476 331 l 392 331 l 392 25 q 385 7 392 14 q 367 0 378 0 l 367 0 l 106 0 q 88 7 94 0 q 81 25 81 14 l 81 25 l 81 797 q 88 815 81 808 q 106 822 94 822 l 106 822 l 353 822 q 371 815 364 822 q 378 797 378 808 l 378 797 l 378 581 l 472 581 q 548 601 524 581 q 572 667 572 622 l 572 667 l 572 797 q 579 815 572 808 q 597 822 586 822 l 597 822 l 853 822 q 871 815 864 822 q 878 797 878 808 l 878 797 l 878 633 q 849 500 878 558 q 765 403 819 442 l 765 403 z "},"ฬ":{"ha":1113,"x_min":11,"x_max":1090,"o":"m 828 1019 l 1069 1019 q 1090 1003 1090 1019 l 1090 1003 q 1088 990 1090 994 l 1088 990 l 978 782 q 1026 661 1026 740 l 1026 661 q 1019 597 1026 626 l 1019 597 l 899 22 q 872 0 894 0 l 872 0 l 682 0 q 654 21 661 0 l 654 21 l 550 322 l 428 19 q 399 0 419 0 l 399 0 l 214 0 q 195 6 203 0 q 186 22 188 13 l 186 22 l 13 794 l 11 803 q 17 817 11 813 q 35 822 24 822 l 35 822 l 283 822 q 310 799 306 822 l 310 799 l 376 336 l 457 544 q 485 564 464 564 l 485 564 l 615 564 q 643 544 636 564 l 643 544 l 722 335 l 754 583 q 744 626 757 611 q 704 642 731 642 l 704 642 l 489 642 q 471 649 478 642 q 464 667 464 656 l 464 667 l 464 797 q 471 815 464 808 q 489 822 478 822 l 489 822 l 729 822 l 799 1000 q 828 1019 807 1019 l 828 1019 z "},"อ":{"ha":919,"x_min":42,"x_max":878,"o":"m 443 842 q 674 788 576 842 q 825 635 772 735 q 878 401 878 536 l 878 401 q 826 177 878 272 q 678 31 775 82 q 450 -19 582 -19 l 450 -19 q 235 26 328 -19 q 92 156 143 72 q 42 351 42 240 l 42 351 l 42 454 q 49 472 42 465 q 67 479 56 479 l 67 479 l 431 479 q 449 472 442 479 q 456 454 456 465 l 456 454 l 456 318 q 449 300 456 307 q 431 293 442 293 l 431 293 l 333 293 q 369 241 343 260 q 431 222 394 222 l 431 222 q 524 272 490 222 q 558 406 558 321 l 558 406 q 523 542 558 492 q 428 592 488 592 l 428 592 q 329 540 365 592 l 329 540 q 315 526 322 529 q 297 526 307 524 l 297 526 l 72 588 q 54 608 54 592 l 54 608 l 57 619 q 205 784 106 726 q 443 842 304 842 l 443 842 z "},"ฮ":{"ha":933,"x_min":42,"x_max":922,"o":"m 443 833 l 897 833 q 915 826 908 833 q 922 808 922 819 l 922 808 l 922 617 q 897 592 922 592 l 897 592 l 796 592 q 856 512 835 564 q 878 392 878 460 l 878 392 q 826 174 878 267 q 677 31 774 81 q 450 -19 581 -19 l 450 -19 q 235 26 328 -19 q 92 156 143 72 q 42 351 42 240 l 42 351 l 42 454 q 49 472 42 465 q 67 479 56 479 l 67 479 l 431 479 q 449 472 442 479 q 456 454 456 465 l 456 454 l 456 318 q 449 300 456 307 q 431 293 442 293 l 431 293 l 335 293 q 369 241 343 260 q 432 222 394 222 l 432 222 q 525 270 492 222 q 558 406 558 318 l 558 406 q 523 542 558 492 q 428 592 488 592 l 428 592 q 329 540 365 592 l 329 540 q 315 526 322 529 q 297 526 307 524 l 297 526 l 72 588 q 54 608 54 592 l 54 608 l 57 619 q 202 779 104 725 q 443 833 300 833 l 443 833 z "},"า":{"ha":761,"x_min":18,"x_max":686,"o":"m 661 0 l 400 0 q 382 7 389 0 q 375 25 375 14 l 375 25 l 375 519 q 363 563 375 547 q 331 578 351 578 l 331 578 q 292 551 306 578 l 292 551 q 278 536 285 540 q 260 535 271 532 l 260 535 l 39 594 q 22 606 26 597 q 21 625 18 614 l 21 625 q 146 783 54 724 q 358 842 238 842 l 358 842 q 531 800 457 842 q 646 681 606 758 q 686 500 686 603 l 686 500 l 686 25 q 679 7 686 14 q 661 0 672 0 l 661 0 z "},"ำ":{"ha":761,"x_min":-421,"x_max":686,"o":"m -228 886 q -367 935 -312 886 q -421 1063 -421 985 l -421 1063 q -367 1190 -421 1140 q -228 1239 -312 1239 l -228 1239 q -89 1190 -143 1239 q -35 1063 -35 1140 l -35 1063 q -89 935 -35 985 q -228 886 -143 886 l -228 886 z m -228 1011 q -189 1026 -204 1011 q -174 1063 -174 1040 l -174 1063 q -189 1099 -174 1085 q -228 1114 -204 1114 l -228 1114 q -267 1099 -251 1114 q -282 1063 -282 1085 l -282 1063 q -267 1026 -282 1040 q -228 1011 -251 1011 l -228 1011 z m 661 0 l 400 0 q 382 7 389 0 q 375 25 375 14 l 375 25 l 375 519 q 363 563 375 547 q 331 578 351 578 l 331 578 q 292 551 306 578 l 292 551 q 278 536 285 540 q 260 535 271 532 l 260 535 l 39 594 q 22 606 26 597 q 21 625 18 614 l 21 625 q 146 783 54 724 q 358 842 238 842 l 358 842 q 531 800 457 842 q 646 681 606 758 q 686 500 686 603 l 686 500 l 686 25 q 679 7 686 14 q 661 0 672 0 l 661 0 z "},"ๅ":{"ha":761,"x_min":18,"x_max":686,"o":"m 661 -317 l 400 -317 q 382 -310 389 -317 q 375 -292 375 -303 l 375 -292 l 375 519 q 363 563 375 547 q 331 578 351 578 l 331 578 q 292 551 306 578 l 292 551 q 278 536 285 540 q 260 535 271 532 l 260 535 l 39 594 q 22 606 26 597 q 21 625 18 614 l 21 625 q 146 783 54 724 q 358 842 238 842 l 358 842 q 531 800 457 842 q 646 681 606 758 q 686 500 686 603 l 686 500 l 686 -292 q 679 -310 686 -303 q 661 -317 672 -317 l 661 -317 z "},"ะ":{"ha":544,"x_min":47,"x_max":489,"o":"m 464 439 l 319 439 q 115 497 182 439 q 47 678 47 556 l 47 678 l 47 725 q 54 743 47 736 q 72 750 61 750 l 72 750 l 292 750 q 310 743 303 750 q 317 725 317 736 l 317 725 l 317 708 q 331 667 317 682 q 372 653 346 653 l 372 653 l 464 653 q 482 646 475 653 q 489 628 489 639 l 489 628 l 489 464 q 482 446 489 453 q 464 439 475 439 l 464 439 z m 464 28 l 319 28 q 115 86 182 28 q 47 267 47 144 l 47 267 l 47 314 q 54 332 47 325 q 72 339 61 339 l 72 339 l 292 339 q 310 332 303 339 q 317 314 317 325 l 317 314 l 317 297 q 331 256 317 271 q 372 242 346 242 l 372 242 l 464 242 q 482 235 475 242 q 489 217 489 228 l 489 217 l 489 53 q 482 35 489 42 q 464 28 475 28 l 464 28 z "},"เ":{"ha":481,"x_min":89,"x_max":400,"o":"m 375 0 l 114 0 q 96 7 103 0 q 89 25 89 14 l 89 25 l 89 797 q 114 822 89 822 l 114 822 l 375 822 q 400 797 400 822 l 400 797 l 400 25 q 393 7 400 14 q 375 0 386 0 l 375 0 z "},"แ":{"ha":933,"x_min":89,"x_max":853,"o":"m 375 0 l 114 0 q 96 7 103 0 q 89 25 89 14 l 89 25 l 89 797 q 114 822 89 822 l 114 822 l 375 822 q 400 797 400 822 l 400 797 l 400 25 q 393 7 400 14 q 375 0 386 0 l 375 0 z m 828 0 l 567 0 q 549 7 556 0 q 542 25 542 14 l 542 25 l 542 797 q 567 822 542 822 l 567 822 l 828 822 q 853 797 853 822 l 853 797 l 853 25 q 846 7 853 14 q 828 0 839 0 l 828 0 z "},"ไ":{"ha":531,"x_min":-28,"x_max":564,"o":"m -3 1325 l 539 1325 q 557 1318 550 1325 q 564 1300 564 1311 l 564 1300 l 564 1136 q 549 1104 564 1118 l 549 1104 q 472 1004 494 1058 q 450 864 450 950 l 450 864 l 450 25 q 443 7 450 14 q 425 0 436 0 l 425 0 l 164 0 q 146 7 153 0 q 139 25 139 14 l 139 25 l 139 861 q 157 1004 139 956 q 228 1103 175 1053 l 228 1103 l -3 1103 q -21 1110 -14 1103 q -28 1128 -28 1117 l -28 1128 l -28 1300 q -21 1318 -28 1311 q -3 1325 -14 1325 l -3 1325 z "},"ใ":{"ha":564,"x_min":-26,"x_max":597,"o":"m 597 1089 q 568 968 597 1019 q 483 890 539 917 l 483 890 l 483 25 q 476 7 483 14 q 458 0 469 0 l 458 0 l 197 0 q 179 7 186 0 q 172 25 172 14 l 172 25 l 172 951 q 179 969 172 963 q 197 976 186 976 l 197 976 l 231 976 q 303 999 279 976 q 328 1060 328 1021 l 328 1060 q 310 1106 328 1090 q 265 1122 293 1122 l 265 1122 q 204 1085 226 1122 l 204 1085 q 172 1071 194 1067 l 172 1071 l -4 1111 q -22 1122 -17 1114 q -22 1142 -26 1131 l -22 1142 q 97 1291 15 1238 q 294 1344 178 1344 l 294 1344 q 515 1276 432 1344 q 597 1089 597 1207 l 597 1089 z "},"โ":{"ha":531,"x_min":25,"x_max":597,"o":"m 151 1325 l 572 1325 q 590 1318 583 1325 q 597 1300 597 1311 l 597 1300 l 597 1128 q 590 1110 597 1117 q 572 1103 583 1103 l 572 1103 l 361 1103 q 433 1003 415 1051 q 450 861 450 954 l 450 861 l 450 25 q 443 7 450 14 q 425 0 436 0 l 425 0 l 164 0 q 146 7 153 0 q 139 25 139 14 l 139 25 l 139 881 q 117 1021 139 967 q 40 1121 94 1075 l 40 1121 q 25 1153 25 1135 l 25 1153 l 25 1199 q 60 1290 25 1256 q 151 1325 94 1325 l 151 1325 z "},"ั":{"ha":0,"x_min":-564,"x_max":44,"o":"m 19 907 l -325 907 q -502 961 -440 907 q -564 1117 -564 1015 l -564 1117 l -564 1193 q -557 1211 -564 1204 q -539 1218 -550 1218 l -539 1218 l -319 1218 q -301 1211 -308 1218 q -294 1193 -294 1204 l -294 1193 l -294 1160 q -250 1115 -294 1115 l -250 1115 l 19 1115 q 38 1108 31 1115 q 44 1090 44 1101 l 44 1090 l 44 932 q 38 914 44 921 q 19 907 31 907 l 19 907 z "},"่":{"ha":0,"x_min":-369,"x_max":-86,"o":"m -111 907 l -344 907 q -362 914 -356 907 q -369 932 -369 921 l -369 932 l -369 1207 q -362 1225 -369 1218 q -344 1232 -356 1232 l -344 1232 l -111 1232 q -93 1225 -100 1232 q -86 1207 -86 1218 l -86 1207 l -86 932 q -93 914 -86 921 q -111 907 -100 907 l -111 907 z "},"้":{"ha":0,"x_min":-575,"x_max":8,"o":"m -225 1101 l -17 1101 q 1 1094 -6 1101 q 8 1076 8 1088 l 8 1076 l 8 932 q 1 914 8 921 q -17 907 -7 907 l -17 907 l -453 907 q -470 914 -462 907 q -478 932 -478 921 l -478 932 l -478 1053 l -550 1053 q -568 1060 -561 1053 q -575 1078 -575 1067 l -575 1078 l -575 1239 q -568 1257 -575 1250 q -550 1264 -561 1264 l -550 1264 l -364 1264 q -261 1228 -297 1264 q -225 1125 -225 1192 l -225 1125 l -225 1101 z "},"๊":{"ha":0,"x_min":-761,"x_max":-67,"o":"m -172 1093 l -92 1093 q -74 1086 -81 1093 q -67 1068 -67 1079 l -67 1068 l -67 932 q -74 914 -67 921 q -92 907 -81 907 l -92 907 l -350 907 q -367 914 -361 907 q -374 932 -374 921 l -374 932 l -374 1024 q -378 1049 -374 1040 q -394 1063 -382 1057 l -394 1063 l -447 1032 l -462 1032 l -515 1063 q -532 1049 -528 1057 q -536 1024 -536 1040 l -536 1024 l -536 932 q -560 907 -536 907 l -560 907 l -737 907 q -755 914 -749 907 q -761 932 -761 921 l -761 932 l -761 1101 q -569 1276 -761 1251 l -569 1276 l -454 1199 l -339 1276 q -172 1101 -172 1256 l -172 1101 l -172 1093 z "},"๋":{"ha":0,"x_min":-481,"x_max":25,"o":"m -100 1181 l 0 1181 q 18 1174 11 1181 q 25 1156 25 1167 l 25 1156 l 25 1039 q 18 1021 25 1028 q 0 1014 11 1014 l 0 1014 l -100 1014 l -100 932 q -107 914 -100 921 q -125 907 -114 907 l -125 907 l -331 907 q -349 914 -342 907 q -356 932 -356 921 l -356 932 l -356 1014 l -456 1014 q -474 1021 -467 1014 q -481 1039 -481 1028 l -481 1039 l -481 1156 q -474 1174 -481 1167 q -456 1181 -467 1181 l -456 1181 l -356 1181 l -356 1263 q -349 1281 -356 1274 q -331 1288 -342 1288 l -331 1288 l -125 1288 q -107 1281 -114 1288 q -100 1263 -100 1274 l -100 1263 l -100 1181 z "},"์":{"ha":0,"x_min":-457,"x_max":-21,"o":"m -204 907 l -432 907 q -450 914 -443 907 q -457 932 -457 921 l -457 932 l -457 1004 q -395 1160 -457 1106 q -218 1214 -333 1214 l -218 1214 l -46 1214 q -28 1207 -35 1214 q -21 1189 -21 1200 l -21 1189 l -21 1033 q -28 1015 -21 1022 q -46 1008 -35 1008 l -46 1008 l -135 1008 q -179 964 -179 1008 l -179 964 l -179 932 q -186 914 -179 921 q -204 907 -193 907 l -204 907 z "},"็":{"ha":0,"x_min":-769,"x_max":-144,"o":"m -169 1138 l -462 1138 q -511 1127 -494 1138 q -528 1099 -528 1117 l -528 1099 q -514 1070 -528 1081 q -475 1060 -500 1060 l -475 1060 q -424 1088 -439 1060 l -424 1088 q -394 1106 -414 1106 l -394 1106 l -356 1106 q -325 1092 -339 1106 l -325 1092 l -317 1083 q -246 1065 -299 1065 l -246 1065 l -169 1065 q -151 1058 -158 1065 q -144 1040 -144 1051 l -144 1040 l -144 932 q -151 914 -144 921 q -169 907 -158 907 l -169 907 l -246 907 q -325 922 -293 907 q -375 969 -357 936 l -375 969 l -383 983 q -564 893 -443 893 l -564 893 q -715 945 -660 893 q -769 1090 -769 997 l -769 1090 q -701 1246 -769 1193 q -503 1299 -633 1299 l -503 1299 l -169 1299 q -151 1292 -158 1299 q -144 1274 -144 1285 l -144 1274 l -144 1163 q -151 1144 -144 1151 q -169 1138 -158 1138 l -169 1138 z "},"๎":{"ha":0,"x_min":-447,"x_max":-69,"o":"m -217 1215 l -92 1215 q -69 1193 -69 1215 l -69 1193 l -69 1100 q -92 1078 -69 1078 l -92 1078 l -124 1078 q -151 1057 -151 1078 l -151 1057 q -131 1039 -151 1039 l -131 1039 l -122 1039 q -100 1017 -100 1039 l -100 1017 l -100 993 q -122 971 -100 971 l -122 971 l -142 971 q -181 935 -181 971 l -181 935 l -181 929 q -187 913 -181 919 q -206 907 -194 907 l -206 907 l -425 907 q -447 929 -447 907 l -447 929 l -447 949 q -426 1013 -447 986 q -365 1049 -406 1039 l -365 1049 q -399 1114 -399 1078 l -399 1114 q -349 1188 -399 1160 q -217 1215 -299 1215 l -217 1215 z "},"ิ":{"ha":0,"x_min":-792,"x_max":-72,"o":"m -186 907 l -767 907 q -785 914 -778 907 q -792 932 -792 921 l -792 932 l -792 1090 q -785 1108 -792 1101 q -767 1115 -778 1115 l -767 1115 l -97 1115 q -79 1108 -86 1115 q -72 1090 -72 1101 l -72 1090 l -72 1013 q -103 934 -72 961 q -186 907 -133 907 l -186 907 z "},"ี":{"ha":0,"x_min":-792,"x_max":-72,"o":"m -186 907 l -767 907 q -785 914 -778 907 q -792 932 -792 921 l -792 932 l -792 1090 q -785 1108 -792 1101 q -767 1115 -778 1115 l -767 1115 l -342 1115 l -342 1199 q -335 1217 -342 1210 q -317 1224 -328 1224 l -317 1224 l -97 1224 q -79 1217 -86 1224 q -72 1199 -72 1210 l -72 1199 l -72 1013 q -102 933 -72 960 q -186 907 -132 907 l -186 907 z "},"ึ":{"ha":0,"x_min":-792,"x_max":-32,"o":"m -208 1246 q -82 1198 -132 1246 q -32 1076 -32 1150 l -32 1076 q -82 955 -32 1003 q -208 907 -132 907 l -208 907 l -767 907 q -785 914 -778 907 q -792 932 -792 921 l -792 932 l -792 1090 q -785 1108 -792 1101 q -767 1115 -778 1115 l -767 1115 l -375 1115 q -317 1210 -362 1174 q -208 1246 -271 1246 l -208 1246 z m -208 1026 q -176 1040 -189 1026 q -162 1076 -162 1054 l -162 1076 q -176 1113 -162 1099 q -208 1126 -189 1126 l -208 1126 q -241 1113 -228 1126 q -254 1076 -254 1099 l -254 1076 q -241 1040 -254 1054 q -208 1026 -228 1026 l -208 1026 z "},"ื":{"ha":0,"x_min":-792,"x_max":-72,"o":"m -247 1224 l -97 1224 q -79 1217 -86 1224 q -72 1199 -72 1210 l -72 1199 l -72 1013 q -103 934 -72 961 q -186 907 -133 907 l -186 907 l -767 907 q -785 914 -778 907 q -792 932 -792 921 l -792 932 l -792 1090 q -785 1108 -792 1101 q -767 1115 -778 1115 l -767 1115 l -525 1115 l -525 1199 q -518 1217 -525 1210 q -500 1224 -511 1224 l -500 1224 l -358 1224 q -340 1217 -347 1224 q -333 1199 -333 1210 l -333 1199 l -333 1099 l -272 1099 l -272 1199 q -265 1217 -272 1210 q -247 1224 -258 1224 l -247 1224 z "},"ํ":{"ha":0,"x_min":-421,"x_max":-35,"o":"m -228 886 q -367 935 -312 886 q -421 1063 -421 985 l -421 1063 q -367 1190 -421 1140 q -228 1239 -312 1239 l -228 1239 q -89 1190 -143 1239 q -35 1063 -35 1140 l -35 1063 q -89 935 -35 985 q -228 886 -143 886 l -228 886 z m -228 1011 q -189 1026 -204 1011 q -174 1063 -174 1040 l -174 1063 q -189 1099 -174 1085 q -228 1114 -204 1114 l -228 1114 q -267 1099 -251 1114 q -282 1063 -282 1085 l -282 1063 q -267 1026 -282 1040 q -228 1011 -251 1011 l -228 1011 z "},"ุ":{"ha":0,"x_min":-417,"x_max":-72,"o":"m -97 -78 q -79 -85 -86 -78 q -72 -103 -72 -92 l -72 -103 l -72 -372 q -79 -390 -72 -383 q -97 -397 -86 -397 l -97 -397 l -299 -397 q -317 -390 -310 -397 q -324 -372 -324 -383 l -324 -372 l -324 -269 l -392 -269 q -410 -262 -403 -269 q -417 -244 -417 -256 l -417 -244 l -417 -103 q -410 -85 -417 -92 q -392 -78 -403 -78 l -392 -78 l -97 -78 z "},"ู":{"ha":0,"x_min":-667,"x_max":-72,"o":"m -261 -78 l -97 -78 q -79 -85 -86 -78 q -72 -103 -72 -92 l -72 -103 l -72 -240 q -142 -383 -72 -333 q -337 -432 -211 -432 l -337 -432 q -521 -386 -458 -432 q -583 -251 -583 -340 l -583 -251 l -583 -250 l -642 -250 q -660 -243 -653 -250 q -667 -225 -667 -236 l -667 -225 l -667 -103 q -660 -85 -667 -92 q -642 -78 -653 -78 l -642 -78 l -411 -78 q -393 -85 -400 -78 q -386 -103 -386 -92 l -386 -103 l -386 -225 q -373 -266 -386 -251 q -336 -281 -360 -281 l -336 -281 q -299 -266 -312 -281 q -286 -225 -286 -251 l -286 -225 l -286 -103 q -279 -85 -286 -92 q -261 -78 -272 -78 l -261 -78 z "},"ฺ":{"ha":0,"x_min":-374,"x_max":-82,"o":"m -228 -357 q -333 -317 -292 -357 q -374 -214 -374 -276 l -374 -214 q -333 -111 -374 -151 q -228 -71 -292 -71 l -228 -71 q -123 -111 -164 -71 q -82 -214 -82 -151 l -82 -214 q -123 -317 -82 -276 q -228 -357 -164 -357 l -228 -357 z "},"๐":{"ha":914,"x_min":44,"x_max":869,"o":"m 457 -19 q 245 30 339 -19 q 98 167 151 79 q 44 365 44 256 l 44 365 q 98 563 44 475 q 245 701 151 651 q 457 750 339 750 l 457 750 q 669 701 575 750 q 816 563 763 651 q 869 365 869 475 l 869 365 q 816 167 869 256 q 669 30 763 79 q 457 -19 575 -19 l 457 -19 z m 457 221 q 553 261 515 221 q 592 365 592 301 l 592 365 q 553 467 592 426 q 457 507 515 507 l 457 507 q 360 467 399 507 q 322 365 322 426 l 322 365 q 360 261 322 301 q 457 221 399 221 l 457 221 z "},"๑":{"ha":892,"x_min":44,"x_max":847,"o":"m 290 -174 l 286 -174 q 263 -151 265 -174 l 263 -151 l 239 22 l 239 28 q 263 50 239 47 l 263 50 q 485 131 415 61 q 556 331 556 200 l 556 331 q 433 500 556 500 l 433 500 q 366 480 390 500 q 342 425 342 460 l 342 425 q 357 378 342 397 q 400 360 372 360 l 400 360 l 410 360 q 432 336 432 360 l 432 336 l 432 163 q 411 135 432 142 l 411 135 q 307 121 365 121 l 307 121 q 113 192 181 121 q 44 389 44 264 l 44 389 q 92 580 44 499 q 229 706 140 661 q 436 750 318 750 l 436 750 q 654 699 561 750 q 797 556 747 649 q 847 338 847 463 l 847 338 q 778 81 847 192 q 584 -95 710 -31 q 290 -174 458 -160 l 290 -174 z "},"๒":{"ha":1075,"x_min":69,"x_max":1011,"o":"m 551 -19 q 267 14 371 -19 q 116 122 163 47 q 69 326 69 197 l 69 326 l 69 850 q 76 868 69 861 q 94 875 83 875 l 94 875 l 314 875 q 332 868 325 875 q 339 850 339 861 l 339 850 l 339 338 q 385 238 339 267 q 547 210 432 210 l 547 210 q 703 235 658 210 q 747 324 747 261 l 747 324 l 747 474 q 717 518 747 511 l 717 518 l 685 494 l 676 494 l 644 518 q 622 505 631 515 q 614 481 614 494 l 614 481 l 614 374 q 607 356 614 363 q 589 349 600 349 l 589 349 l 406 349 q 388 356 394 349 q 381 374 381 363 l 381 374 l 381 499 q 434 671 381 600 q 575 747 488 742 l 575 747 l 681 663 l 786 747 q 950 660 889 736 q 1011 464 1011 583 l 1011 464 l 1011 306 q 967 114 1011 185 q 823 12 922 43 q 551 -19 724 -19 l 551 -19 z "},"๓":{"ha":1038,"x_min":64,"x_max":965,"o":"m 724 744 q 903 670 840 744 q 965 457 965 596 l 965 457 l 965 25 q 958 7 965 14 q 940 0 951 0 l 940 0 l 714 0 q 696 7 703 0 q 689 25 689 14 l 689 25 l 689 439 q 678 474 689 461 q 647 488 667 488 l 647 488 q 619 473 631 488 q 607 435 607 458 l 607 435 l 607 319 q 600 301 607 308 q 582 294 593 294 l 582 294 l 454 294 q 436 301 443 294 q 429 319 429 308 l 429 319 l 429 436 q 417 474 429 460 q 385 488 406 488 l 385 488 q 352 474 364 488 q 340 436 340 460 l 340 436 l 340 301 q 401 225 340 225 l 401 225 l 426 225 q 444 220 440 225 q 449 200 449 215 l 449 200 l 449 22 q 426 -4 449 0 l 426 -4 q 331 -11 392 -11 l 331 -11 q 133 62 203 -11 q 64 269 64 135 l 64 269 l 64 457 q 131 667 64 590 q 314 744 197 744 l 314 744 q 440 715 385 744 q 522 631 496 685 l 522 631 q 597 714 546 683 q 724 744 649 744 l 724 744 z "},"๔":{"ha":882,"x_min":44,"x_max":854,"o":"m 574 494 l 483 494 q 379 456 417 494 q 342 350 342 417 l 342 350 q 375 252 342 289 q 469 215 408 215 l 469 215 l 472 215 l 472 311 q 515 414 472 378 q 639 450 558 450 l 639 450 l 776 450 q 794 443 788 450 q 801 425 801 436 l 801 425 l 801 303 q 794 285 801 292 q 776 278 788 278 l 776 278 l 742 278 q 707 243 707 278 l 707 243 l 707 208 l 807 208 q 825 201 818 208 q 832 183 832 194 l 832 183 l 832 25 q 825 7 832 14 q 807 0 818 0 l 807 0 l 408 0 q 142 97 240 0 q 44 365 44 193 l 44 365 q 144 634 44 538 q 414 731 243 731 l 414 731 l 496 731 q 541 747 525 731 q 557 792 557 763 l 557 792 l 557 850 q 564 868 557 861 q 582 875 571 875 l 582 875 l 829 875 q 847 868 840 875 q 854 850 854 861 l 854 850 l 854 786 q 785 567 854 639 q 574 494 715 494 l 574 494 z "},"๕":{"ha":882,"x_min":44,"x_max":854,"o":"m 574 494 l 483 494 q 379 456 417 494 q 342 350 342 417 l 342 350 q 375 252 342 289 q 469 215 408 215 l 469 215 l 472 215 l 472 311 q 515 414 472 378 q 639 450 558 450 l 639 450 l 776 450 q 794 443 788 450 q 801 425 801 436 l 801 425 l 801 303 q 794 285 801 292 q 776 278 788 278 l 776 278 l 742 278 q 707 243 707 278 l 707 243 l 707 208 l 807 208 q 825 201 818 208 q 832 183 832 194 l 832 183 l 832 25 q 825 7 832 14 q 807 0 818 0 l 807 0 l 408 0 q 142 97 240 0 q 44 365 44 193 l 44 365 q 76 533 44 460 q 165 653 107 606 l 165 653 q 133 746 133 693 l 133 746 q 187 870 133 821 q 322 919 240 919 l 322 919 q 454 870 403 919 q 506 746 506 821 l 506 746 q 504 731 506 736 l 504 731 l 510 731 q 555 747 539 731 q 571 792 571 763 l 571 792 l 571 850 q 578 868 571 861 q 596 875 585 875 l 596 875 l 829 875 q 847 868 840 875 q 854 850 854 861 l 854 850 l 854 786 q 785 567 854 639 q 574 494 715 494 l 574 494 z m 322 793 q 291 780 303 793 q 279 746 279 767 l 279 746 q 291 712 279 725 q 322 699 303 699 l 322 699 q 353 712 342 699 q 365 746 365 725 l 365 746 q 353 780 365 767 q 322 793 342 793 l 322 793 z "},"๖":{"ha":844,"x_min":-8,"x_max":800,"o":"m 454 750 q 637 705 558 750 q 758 576 715 660 q 800 381 800 492 l 800 381 q 697 85 800 189 q 406 -19 593 -19 l 406 -19 q 179 40 265 -19 q 61 215 93 100 l 61 215 q 60 224 60 218 l 60 224 q 79 246 60 242 l 79 246 l 285 297 q 293 299 288 299 l 293 299 q 317 281 310 299 l 317 281 q 400 224 342 224 l 400 224 q 476 261 449 224 q 503 360 503 299 l 503 360 q 475 455 503 421 q 399 489 447 489 l 399 489 q 310 451 350 489 l 310 451 q 279 438 296 438 l 279 438 l 85 438 q 57 460 61 438 l 57 460 l -8 849 l -8 854 q 15 875 -8 875 l 15 875 l 261 875 q 286 851 285 875 l 286 851 l 294 710 q 454 750 368 750 l 454 750 z "},"๗":{"ha":1378,"x_min":64,"x_max":1308,"o":"m 1036 875 l 1283 875 q 1301 868 1294 875 q 1308 850 1308 861 l 1308 850 l 1308 375 q 1214 93 1308 186 q 926 0 1119 0 l 926 0 l 697 0 q 679 7 686 0 q 672 25 672 14 l 672 25 l 672 439 q 662 474 672 461 q 633 488 651 488 l 633 488 q 606 474 617 488 q 596 435 596 460 l 596 435 l 596 319 q 589 301 596 308 q 571 294 582 294 l 571 294 l 449 294 q 431 301 438 294 q 424 319 424 308 l 424 319 l 424 436 q 413 474 424 460 q 382 488 401 488 l 382 488 q 351 474 363 488 q 340 436 340 460 l 340 436 l 340 301 q 401 225 340 225 l 401 225 l 426 225 q 444 220 440 225 q 449 200 449 215 l 449 200 l 449 22 q 426 -4 449 0 l 426 -4 q 331 -11 392 -11 l 331 -11 q 133 62 203 -11 q 64 269 64 135 l 64 269 l 64 457 q 130 667 64 590 q 311 744 196 744 l 311 744 q 434 715 381 744 q 514 631 488 685 l 514 631 q 587 715 538 685 q 710 744 636 744 l 710 744 q 935 457 935 744 l 935 457 l 935 243 l 940 243 q 1011 375 1011 243 l 1011 375 l 1011 850 q 1018 868 1011 861 q 1036 875 1025 875 l 1036 875 z "},"๘":{"ha":1017,"x_min":44,"x_max":964,"o":"m 729 351 l 939 351 q 957 344 950 351 q 964 326 964 338 l 964 326 l 964 251 q 882 51 964 117 q 632 -14 800 -14 l 632 -14 l 517 74 l 514 74 l 399 -14 q 132 94 219 -4 q 44 353 44 192 l 44 353 q 92 556 44 471 q 227 686 140 642 q 428 731 314 731 l 428 731 l 578 731 q 623 747 607 731 q 639 792 639 763 l 639 792 l 639 850 q 646 868 639 861 q 664 875 653 875 l 664 875 l 911 875 q 929 868 922 875 q 936 850 936 861 l 936 850 l 936 786 q 867 569 936 639 q 656 499 797 499 l 656 499 l 500 499 q 367 457 413 499 q 322 340 322 415 l 322 340 q 371 218 322 264 l 371 218 l 503 319 l 528 319 l 671 210 q 704 281 704 231 l 704 281 l 704 326 q 711 344 704 338 q 729 351 718 351 l 729 351 z "},"๙":{"ha":1014,"x_min":64,"x_max":994,"o":"m 721 875 l 969 875 q 988 868 981 875 q 994 850 994 861 l 994 850 l 994 683 q 947 545 994 590 q 804 500 900 500 l 804 500 l 785 500 q 736 453 736 500 l 736 453 q 750 392 736 425 l 750 392 l 892 29 l 894 18 q 872 0 894 0 l 872 0 l 628 0 q 600 19 607 0 l 600 19 l 449 429 q 420 475 436 463 q 382 488 404 488 l 382 488 q 351 474 363 488 q 340 436 340 460 l 340 436 l 340 301 q 401 225 340 225 l 401 225 l 426 225 q 444 220 440 225 q 449 200 449 215 l 449 200 l 449 22 q 426 -4 449 0 l 426 -4 q 331 -11 392 -11 l 331 -11 q 133 62 203 -11 q 64 269 64 135 l 64 269 l 64 457 q 344 744 64 744 l 344 744 q 470 726 418 744 q 563 664 522 707 l 563 664 q 597 714 574 697 q 649 731 619 731 l 649 731 l 661 731 q 689 741 682 731 q 696 776 696 751 l 696 776 l 696 850 q 703 868 696 861 q 721 875 710 875 l 721 875 z "},"๏":{"ha":853,"x_min":42,"x_max":811,"o":"m 426 28 q 228 74 317 28 q 91 201 140 119 q 42 383 42 282 l 42 383 q 91 566 42 485 q 228 693 140 647 q 426 739 317 739 l 426 739 q 624 693 536 739 q 762 566 713 647 q 811 383 811 485 l 811 383 q 762 201 811 282 q 624 74 713 119 q 426 28 536 28 l 426 28 z m 426 172 q 583 232 521 172 q 644 383 644 292 l 644 383 q 583 535 644 475 q 426 594 521 594 l 426 594 q 270 535 332 594 q 208 383 208 475 l 208 383 q 270 232 208 292 q 426 172 332 172 l 426 172 z m 426 236 q 318 278 361 236 q 275 383 275 319 l 275 383 q 318 489 275 447 q 426 531 361 531 l 426 531 q 535 489 492 531 q 578 383 578 447 l 578 383 q 535 278 578 319 q 426 236 492 236 l 426 236 z m 426 329 q 466 344 450 329 q 482 383 482 360 l 482 383 q 466 422 482 407 q 426 438 450 438 l 426 438 q 387 422 403 438 q 371 383 371 407 l 371 383 q 387 344 371 360 q 426 329 403 329 l 426 329 z "},"๛":{"ha":1175,"x_min":42,"x_max":1147,"o":"m 1119 421 q 1129 422 1124 422 l 1129 422 q 1147 401 1147 422 l 1147 401 l 1147 231 q 1126 201 1147 208 l 1126 201 q 1075 196 1104 196 l 1075 196 q 956 234 1007 196 q 886 336 906 272 l 886 336 l 839 188 q 810 167 833 167 l 810 167 l 717 167 q 688 186 696 167 l 688 186 l 635 310 q 531 140 607 200 q 344 81 456 81 l 344 81 q 124 161 206 81 q 42 378 42 242 l 42 378 q 82 537 42 468 q 193 642 122 606 q 353 679 264 679 l 353 679 q 447 668 396 679 l 447 668 q 467 639 469 663 l 467 639 l 453 485 q 425 465 451 458 l 425 465 q 399 468 408 468 l 399 468 q 355 446 371 468 q 339 388 339 424 l 339 388 q 358 324 339 346 q 411 303 378 303 l 411 303 q 501 372 469 303 q 542 579 532 440 l 542 579 q 567 604 544 604 l 567 604 l 668 604 q 696 583 690 604 l 696 583 l 760 369 l 821 540 q 849 560 828 560 l 849 560 l 932 560 q 960 538 954 560 l 960 538 q 1089 418 994 418 l 1089 418 q 1119 421 1100 418 l 1119 421 z "},"ๆ":{"ha":904,"x_min":33,"x_max":826,"o":"m 801 -317 l 540 -317 q 522 -310 529 -317 q 515 -292 515 -303 l 515 -292 l 515 543 q 474 603 515 588 l 474 603 l 431 569 l 414 569 l 371 603 q 341 578 351 596 q 331 536 331 561 l 331 536 l 331 386 q 324 368 331 375 q 306 361 317 361 l 306 361 l 58 361 q 40 368 47 361 q 33 386 33 375 l 33 386 l 33 546 q 108 741 33 663 q 310 836 183 819 l 310 836 l 422 763 l 536 836 q 750 748 674 821 q 826 557 826 675 l 826 557 l 826 -292 q 819 -310 826 -303 q 801 -317 813 -317 l 801 -317 z "},"ฯ":{"ha":876,"x_min":33,"x_max":788,"o":"m 524 822 l 763 822 q 781 815 774 822 q 788 797 788 808 l 788 797 l 788 25 q 781 7 788 14 q 763 0 774 0 l 763 0 l 501 0 q 483 7 490 0 q 476 25 476 14 l 476 25 l 476 263 l 328 263 q 113 340 192 263 q 33 551 33 418 l 33 551 q 107 758 33 681 q 306 836 181 836 l 306 836 q 406 825 353 836 l 406 825 q 426 797 426 821 l 426 797 l 426 643 q 404 619 426 619 l 404 619 l 388 619 q 331 568 331 619 l 331 568 q 346 527 331 542 q 388 513 361 513 l 388 513 l 499 513 l 499 797 q 506 815 499 808 q 524 822 513 822 l 524 822 z "},"๚":{"ha":1288,"x_min":33,"x_max":1199,"o":"m 524 822 l 763 822 q 781 815 774 822 q 788 797 788 808 l 788 797 l 788 25 q 781 7 788 14 q 763 0 774 0 l 763 0 l 501 0 q 483 7 490 0 q 476 25 476 14 l 476 25 l 476 263 l 328 263 q 113 340 192 263 q 33 551 33 418 l 33 551 q 107 758 33 681 q 306 836 181 836 l 306 836 q 406 825 353 836 l 406 825 q 426 797 426 821 l 426 797 l 426 643 q 404 619 426 619 l 404 619 l 388 619 q 331 568 331 619 l 331 568 q 346 527 331 542 q 388 513 361 513 l 388 513 l 499 513 l 499 797 q 506 815 499 808 q 524 822 513 822 l 524 822 z m 913 822 l 1174 822 q 1192 815 1185 822 q 1199 797 1199 808 l 1199 797 l 1199 25 q 1192 7 1199 14 q 1174 0 1185 0 l 1174 0 l 913 0 q 894 7 901 0 q 888 25 888 14 l 888 25 l 888 797 q 894 815 888 808 q 913 822 901 822 l 913 822 z "},"ﬁ":{"ha":1025,"x_min":14,"x_max":965,"o":"m 803 817 q 687 860 733 817 q 640 971 640 903 l 640 971 q 687 1082 640 1039 q 803 1125 733 1125 l 803 1125 q 919 1082 872 1125 q 965 971 965 1039 l 965 971 q 919 860 965 903 q 803 817 872 817 l 803 817 z m 394 0 l 139 0 q 121 7 128 0 q 114 25 114 14 l 114 25 l 114 496 l 39 496 q 21 503 28 496 q 14 521 14 510 l 14 521 l 14 721 q 21 739 14 732 q 39 746 28 746 l 39 746 l 115 746 q 201 972 122 888 q 424 1056 279 1056 l 424 1056 q 569 1033 496 1056 l 569 1033 q 590 1004 590 1028 l 590 1004 l 590 817 q 572 796 590 796 l 572 796 q 561 797 565 796 l 561 797 q 501 806 535 806 l 501 806 q 450 790 471 806 q 422 746 429 775 l 422 746 l 931 746 q 949 739 942 746 q 956 721 956 732 l 956 721 l 956 25 q 949 7 956 14 q 931 0 942 0 l 931 0 l 675 0 q 657 7 664 0 q 650 25 650 14 l 650 25 l 650 496 l 419 496 l 419 25 q 413 7 419 14 q 394 0 406 0 l 394 0 z "},"ﬂ":{"ha":1025,"x_min":14,"x_max":956,"o":"m 394 0 l 139 0 q 121 7 128 0 q 114 25 114 14 l 114 25 l 114 496 l 39 496 q 21 503 28 496 q 14 521 14 510 l 14 521 l 14 721 q 21 739 14 732 q 39 746 28 746 l 39 746 l 115 746 q 201 972 122 888 q 424 1056 279 1056 l 424 1056 q 569 1033 496 1056 l 569 1033 q 590 1004 590 1028 l 590 1004 l 590 817 q 572 796 590 796 l 572 796 q 561 797 565 796 l 561 797 q 501 806 535 806 l 501 806 q 450 790 471 806 q 422 746 429 775 l 422 746 l 539 746 q 557 739 550 746 q 564 721 564 732 l 564 721 l 564 521 q 557 503 564 510 q 539 496 550 496 l 539 496 l 419 496 l 419 25 q 413 7 419 14 q 394 0 406 0 l 394 0 z m 931 0 l 675 0 q 657 7 664 0 q 650 25 650 14 l 650 25 l 650 1017 q 657 1035 650 1028 q 675 1042 664 1042 l 675 1042 l 931 1042 q 949 1035 942 1042 q 956 1017 956 1028 l 956 1017 l 956 25 q 949 7 956 14 q 931 0 942 0 l 931 0 z "},"⁄":{"ha":167,"x_min":-353,"x_max":519,"o":"m -157 0 l -331 0 q -353 15 -353 0 l -353 15 q -347 31 -353 19 l -347 31 l 293 1003 q 324 1019 304 1019 l 324 1019 l 497 1019 q 519 1004 519 1019 l 519 1004 q 514 989 519 1000 l 514 989 l -126 17 q -157 0 -137 0 l -157 0 z "},"½":{"ha":1317,"x_min":58,"x_max":1258,"o":"m 400 461 l 236 461 q 214 483 214 461 l 214 483 l 214 781 l 113 756 l 106 754 q 85 768 92 754 l 85 768 l 61 815 q 58 826 58 824 l 58 826 q 68 846 58 838 l 68 846 l 271 1010 q 299 1019 282 1019 l 299 1019 l 400 1019 q 422 997 422 1019 l 422 997 l 422 483 q 400 461 422 461 l 400 461 z m 399 0 l 225 0 q 203 15 203 0 l 203 15 q 208 31 203 19 l 208 31 l 849 1003 q 879 1019 860 1019 l 879 1019 l 1053 1019 q 1075 1004 1075 1019 l 1075 1004 q 1069 989 1075 1000 l 1069 989 l 429 17 q 399 0 419 0 l 399 0 z m 1236 0 l 803 0 q 781 22 781 0 l 781 22 l 781 47 q 792 74 781 60 l 792 74 l 940 231 q 1006 308 985 278 q 1028 360 1028 338 l 1028 360 q 1018 385 1028 376 q 994 394 1008 394 l 994 394 q 965 385 976 394 q 943 351 954 375 l 943 351 q 914 338 935 333 l 914 338 l 785 372 q 769 399 764 379 l 769 399 q 858 525 793 478 q 1014 572 924 572 l 1014 572 q 1178 519 1115 572 q 1242 382 1242 467 l 1242 382 q 1207 276 1242 326 q 1093 167 1172 225 l 1093 167 l 1236 167 q 1258 144 1258 167 l 1258 144 l 1258 22 q 1236 0 1258 0 l 1236 0 z "},"¼":{"ha":1317,"x_min":58,"x_max":1276,"o":"m 400 461 l 236 461 q 214 483 214 461 l 214 483 l 214 781 l 113 756 l 106 754 q 85 768 92 754 l 85 768 l 61 815 q 58 826 58 824 l 58 826 q 68 846 58 838 l 68 846 l 271 1010 q 299 1019 282 1019 l 299 1019 l 400 1019 q 422 997 422 1019 l 422 997 l 422 483 q 400 461 422 461 l 400 461 z m 454 0 l 281 0 q 258 15 258 0 l 258 15 q 264 31 258 19 l 264 31 l 904 1003 q 935 1019 915 1019 l 935 1019 l 1108 1019 q 1131 1004 1131 1019 l 1131 1004 q 1125 989 1131 1000 l 1125 989 l 485 17 q 454 0 474 0 l 454 0 z m 1178 0 l 1038 0 q 1015 22 1015 0 l 1015 22 l 1015 94 l 764 94 q 742 117 742 94 l 742 117 l 742 142 q 751 169 742 156 l 751 169 l 1051 546 q 1078 558 1060 558 l 1078 558 l 1178 558 q 1200 536 1200 558 l 1200 536 l 1200 215 l 1254 215 q 1276 193 1276 215 l 1276 193 l 1276 117 q 1254 94 1276 94 l 1254 94 l 1200 94 l 1200 22 q 1178 0 1200 0 l 1178 0 z m 1015 318 l 935 215 l 1015 215 l 1015 318 z "},"¾":{"ha":1317,"x_min":18,"x_max":1276,"o":"m 268 447 q 109 490 172 447 q 19 606 46 532 l 19 606 q 18 614 18 608 l 18 614 q 35 632 18 628 l 35 632 l 150 664 q 158 665 153 665 l 158 665 q 178 650 169 665 l 178 650 q 250 607 203 607 l 250 607 q 292 619 276 607 q 308 650 308 631 l 308 650 q 293 678 308 667 q 250 690 278 690 l 250 690 l 229 690 q 210 713 210 690 l 210 713 l 210 785 q 229 807 210 807 l 229 807 l 250 807 q 290 817 278 807 q 303 843 303 828 l 303 843 q 290 870 303 860 q 260 881 278 881 l 260 881 q 200 846 222 881 l 200 846 q 172 833 189 828 l 172 833 l 56 867 q 40 877 44 869 q 40 894 36 885 l 40 894 q 124 998 65 963 q 272 1033 183 1033 l 272 1033 q 441 992 376 1033 q 506 874 506 950 l 506 874 q 483 803 506 836 q 422 751 461 771 l 422 751 q 517 626 517 719 l 517 626 q 445 497 517 546 q 268 447 374 447 l 268 447 z m 454 0 l 281 0 q 258 15 258 0 l 258 15 q 264 31 258 19 l 264 31 l 904 1003 q 935 1019 915 1019 l 935 1019 l 1108 1019 q 1131 1004 1131 1019 l 1131 1004 q 1125 989 1131 1000 l 1125 989 l 485 17 q 454 0 474 0 l 454 0 z m 1178 0 l 1038 0 q 1015 22 1015 0 l 1015 22 l 1015 94 l 764 94 q 742 117 742 94 l 742 117 l 742 142 q 751 169 742 156 l 751 169 l 1051 546 q 1078 558 1060 558 l 1078 558 l 1178 558 q 1200 536 1200 558 l 1200 536 l 1200 215 l 1254 215 q 1276 193 1276 215 l 1276 193 l 1276 117 q 1254 94 1276 94 l 1254 94 l 1200 94 l 1200 22 q 1178 0 1200 0 l 1178 0 z m 1015 318 l 935 215 l 1015 215 l 1015 318 z "},".":{"ha":439,"x_min":49,"x_max":390,"o":"m 219 -14 q 97 31 146 -14 q 49 149 49 76 l 49 149 q 98 265 49 219 q 219 310 147 310 l 219 310 q 341 265 292 310 q 390 149 390 219 l 390 149 q 342 31 390 76 q 219 -14 293 -14 l 219 -14 z "},",":{"ha":439,"x_min":49,"x_max":390,"o":"m 225 -253 l 92 -253 q 72 -244 78 -253 q 71 -224 67 -236 l 71 -224 l 146 0 q 75 58 101 19 q 49 149 49 97 l 49 149 q 98 265 49 219 q 219 310 147 310 l 219 310 q 341 265 292 310 q 390 149 390 219 l 390 149 q 374 40 390 89 q 304 -124 357 -10 l 304 -124 l 254 -233 q 225 -253 246 -253 l 225 -253 z "},":":{"ha":439,"x_min":49,"x_max":390,"o":"m 219 432 q 97 477 146 432 q 49 594 49 522 l 49 594 q 98 710 49 665 q 219 756 147 756 l 219 756 q 341 710 292 756 q 390 594 390 665 l 390 594 q 342 477 390 522 q 219 432 293 432 l 219 432 z m 219 -14 q 97 31 146 -14 q 49 149 49 76 l 49 149 q 98 265 49 219 q 219 310 147 310 l 219 310 q 341 265 292 310 q 390 149 390 219 l 390 149 q 342 31 390 76 q 219 -14 293 -14 l 219 -14 z "},";":{"ha":439,"x_min":49,"x_max":390,"o":"m 219 432 q 97 477 146 432 q 49 594 49 522 l 49 594 q 98 710 49 665 q 219 756 147 756 l 219 756 q 341 710 292 756 q 390 594 390 665 l 390 594 q 342 477 390 522 q 219 432 293 432 l 219 432 z m 225 -253 l 92 -253 q 72 -244 78 -253 q 71 -224 67 -236 l 71 -224 l 146 0 q 75 58 101 19 q 49 149 49 97 l 49 149 q 98 265 49 219 q 219 310 147 310 l 219 310 q 341 265 292 310 q 390 149 390 219 l 390 149 q 374 40 390 89 q 304 -124 357 -10 l 304 -124 l 254 -233 q 225 -253 246 -253 l 225 -253 z "},"…":{"ha":1389,"x_min":61,"x_max":1328,"o":"m 232 -14 q 110 31 158 -14 q 61 149 61 76 l 61 149 q 110 265 61 219 q 232 310 160 310 l 232 310 q 353 265 304 310 q 403 149 403 219 l 403 149 q 354 31 403 76 q 232 -14 306 -14 l 232 -14 z m 693 -14 q 571 31 619 -14 q 522 149 522 76 l 522 149 q 572 265 522 219 q 693 310 621 310 l 693 310 q 815 265 765 310 q 864 149 864 219 l 864 149 q 815 31 864 76 q 693 -14 767 -14 l 693 -14 z m 1157 -14 q 1035 31 1083 -14 q 986 149 986 76 l 986 149 q 1035 265 986 219 q 1157 310 1085 310 l 1157 310 q 1278 265 1229 310 q 1328 149 1328 219 l 1328 149 q 1279 31 1328 76 q 1157 -14 1231 -14 l 1157 -14 z "},"!":{"ha":439,"x_min":54,"x_max":385,"o":"m 329 371 l 115 371 q 97 378 104 371 q 89 396 89 385 l 89 396 l 71 994 q 94 1019 71 1019 l 94 1019 l 350 1019 q 374 994 374 1019 l 374 994 l 356 396 q 348 378 356 385 q 329 371 340 371 l 329 371 z m 219 -14 q 101 30 149 -14 q 54 143 54 74 l 54 143 q 101 256 54 213 q 219 300 149 300 l 219 300 q 338 256 290 300 q 385 143 385 213 l 385 143 q 338 30 385 74 q 219 -14 290 -14 l 219 -14 z "},"?":{"ha":815,"x_min":8,"x_max":767,"o":"m 510 371 l 263 371 q 244 378 251 371 q 238 396 238 385 l 238 396 l 233 558 q 240 576 233 569 q 258 583 247 583 l 258 583 l 293 583 q 423 612 386 583 q 460 694 460 640 l 460 694 q 438 749 460 729 q 381 769 417 769 l 381 769 q 293 721 324 769 l 293 721 q 261 706 281 701 l 261 706 l 31 758 q 13 769 18 761 q 13 789 8 778 l 13 789 q 160 974 57 908 q 393 1039 263 1039 l 393 1039 q 587 1001 501 1039 q 719 892 672 963 q 767 731 767 822 l 767 731 q 705 547 767 626 q 536 436 643 467 l 536 436 l 535 396 q 528 378 535 385 q 510 371 521 371 l 510 371 z m 385 -14 q 267 30 314 -14 q 219 143 219 74 l 219 143 q 267 256 219 213 q 385 300 314 300 l 385 300 q 503 256 456 300 q 550 143 550 213 l 550 143 q 503 30 550 74 q 385 -14 456 -14 l 385 -14 z "},"·":{"ha":494,"x_min":76,"x_max":418,"o":"m 247 322 q 125 367 174 322 q 76 485 76 413 l 76 485 q 126 601 76 556 q 247 646 175 646 l 247 646 q 369 601 319 646 q 418 485 418 556 l 418 485 q 369 367 418 413 q 247 322 321 322 l 247 322 z "},"•":{"ha":561,"x_min":69,"x_max":492,"o":"m 281 217 q 175 245 224 217 q 98 322 126 274 q 69 428 69 371 l 69 428 q 98 533 69 485 q 175 610 126 582 q 281 639 224 639 l 281 639 q 386 610 338 639 q 463 533 435 582 q 492 428 492 485 l 492 428 q 463 322 492 371 q 386 245 435 274 q 281 217 338 217 l 281 217 z "},"*":{"ha":728,"x_min":53,"x_max":675,"o":"m 196 449 l 122 500 q 110 521 110 508 l 110 521 q 114 535 110 526 l 114 535 l 190 688 l 65 769 q 53 790 53 778 l 53 790 q 56 803 53 799 l 56 803 l 94 886 q 126 900 104 907 l 126 900 l 265 857 l 290 997 q 318 1019 294 1019 l 318 1019 l 410 1019 q 438 997 433 1019 l 438 997 l 463 857 l 601 900 q 611 901 604 901 l 611 901 q 633 886 626 901 l 633 886 l 672 803 q 675 790 675 799 l 675 790 q 663 769 675 778 l 663 769 l 538 688 l 614 535 q 618 521 618 526 l 618 521 q 606 500 618 508 l 606 500 l 532 449 q 515 442 522 442 l 515 442 q 496 451 506 442 l 496 451 l 364 590 l 232 451 q 213 442 222 442 l 213 442 q 196 449 206 442 l 196 449 z "},"#":{"ha":1104,"x_min":29,"x_max":1075,"o":"m 357 0 l 150 0 q 131 7 138 0 q 128 28 125 14 l 128 28 l 165 203 l 54 203 q 35 210 42 203 q 32 231 29 217 l 32 231 l 74 425 q 100 447 78 447 l 100 447 l 217 447 l 244 579 l 133 579 q 115 586 121 579 q 111 607 108 593 l 111 607 l 153 801 q 179 824 157 824 l 179 824 l 296 824 l 332 993 q 358 1015 336 1015 l 358 1015 l 565 1015 q 584 1008 578 1015 q 588 988 590 1001 l 588 988 l 553 824 l 682 824 l 718 993 q 744 1015 722 1015 l 744 1015 l 953 1015 q 972 1008 965 1015 q 975 988 978 1001 l 975 988 l 940 824 l 1050 824 q 1069 817 1063 824 q 1072 796 1075 810 l 1072 796 l 1031 601 q 1004 579 1026 579 l 1004 579 l 888 579 l 860 447 l 971 447 q 990 440 983 447 q 993 419 996 433 l 993 419 l 951 225 q 925 203 947 203 l 925 203 l 808 203 l 769 22 q 743 0 765 0 l 743 0 l 538 0 q 519 7 525 0 q 515 28 513 14 l 515 28 l 551 203 l 421 203 l 383 22 q 357 0 379 0 l 357 0 z m 501 579 l 474 447 l 603 447 l 631 579 l 501 579 z "},"/":{"ha":657,"x_min":13,"x_max":644,"o":"m 285 -153 l 36 -153 q 17 -145 22 -153 q 15 -125 13 -137 l 15 -125 l 344 1021 q 372 1042 350 1042 l 372 1042 l 621 1042 q 640 1034 635 1042 q 642 1014 644 1026 l 642 1014 l 313 -132 q 285 -153 307 -153 l 285 -153 z "},"\\":{"ha":657,"x_min":14,"x_max":643,"o":"m 621 -153 l 372 -153 q 344 -132 350 -153 l 344 -132 l 15 1014 q 14 1022 14 1017 l 14 1022 q 36 1042 14 1042 l 36 1042 l 285 1042 q 313 1021 307 1042 l 313 1021 l 642 -125 q 643 -133 643 -128 l 643 -133 q 621 -153 643 -153 l 621 -153 z "},"(":{"ha":583,"x_min":50,"x_max":556,"o":"m 533 -208 q 168 -29 286 -200 q 50 444 50 142 l 50 444 q 167 917 50 746 q 531 1097 285 1088 l 531 1097 q 556 1072 556 1097 l 556 1072 l 556 814 q 532 788 556 790 l 532 788 q 434 744 469 782 q 384 635 399 707 q 369 444 369 563 l 369 444 q 384 254 369 326 q 434 144 399 182 q 532 101 469 107 l 532 101 q 556 75 556 99 l 556 75 l 556 -183 q 549 -201 556 -194 q 533 -208 543 -208 l 533 -208 z "},")":{"ha":583,"x_min":28,"x_max":533,"o":"m 53 -208 q 28 -183 28 -208 l 28 -183 l 28 75 q 51 101 28 99 l 51 101 q 149 144 114 107 q 199 254 185 182 q 214 444 214 326 l 214 444 q 199 635 214 563 q 149 744 185 707 q 51 788 114 782 l 51 788 q 28 814 28 790 l 28 814 l 28 1072 q 34 1090 28 1083 q 50 1097 40 1097 l 50 1097 q 415 918 297 1089 q 533 444 533 747 l 533 444 q 416 -28 533 143 q 53 -208 299 -199 l 53 -208 z "},"{":{"ha":640,"x_min":47,"x_max":613,"o":"m 588 -208 l 553 -208 q 264 -127 364 -208 q 164 156 164 -46 l 164 156 l 164 257 q 153 314 164 300 q 117 328 143 328 l 117 328 l 72 328 q 54 335 61 328 q 47 353 47 342 l 47 353 l 47 538 q 54 556 47 549 q 72 563 61 563 l 72 563 l 117 563 q 153 576 143 563 q 164 633 164 590 l 164 633 l 164 735 q 264 1017 164 936 q 553 1099 364 1099 l 553 1099 l 588 1099 q 606 1092 599 1099 q 613 1074 613 1085 l 613 1074 l 613 869 q 606 851 613 858 q 588 844 599 844 l 588 844 l 585 844 q 499 814 528 844 q 469 728 469 783 l 469 728 l 469 588 q 445 493 469 528 q 368 444 421 458 l 368 444 q 445 397 421 431 q 469 303 469 363 l 469 303 l 469 163 q 499 76 469 107 q 585 46 528 46 l 585 46 l 588 46 q 606 39 599 46 q 613 21 613 32 l 613 21 l 613 -183 q 606 -201 613 -194 q 588 -208 599 -208 l 588 -208 z "},"}":{"ha":640,"x_min":28,"x_max":593,"o":"m 88 -208 l 53 -208 q 35 -201 42 -208 q 28 -183 28 -194 l 28 -183 l 28 21 q 35 39 28 32 q 53 46 42 46 l 53 46 l 56 46 q 142 76 113 46 q 171 163 171 107 l 171 163 l 171 303 q 195 397 171 363 q 272 446 219 432 l 272 446 q 195 494 219 460 q 171 588 171 528 l 171 588 l 171 728 q 142 814 171 783 q 56 844 113 844 l 56 844 l 53 844 q 35 851 42 844 q 28 869 28 858 l 28 869 l 28 1074 q 35 1092 28 1085 q 53 1099 42 1099 l 53 1099 l 88 1099 q 376 1017 276 1099 q 476 735 476 936 l 476 735 l 476 633 q 487 576 476 590 q 524 563 497 563 l 524 563 l 568 563 q 586 556 579 563 q 593 538 593 549 l 593 538 l 593 353 q 586 335 593 342 q 568 328 579 328 l 568 328 l 524 328 q 487 314 497 328 q 476 257 476 300 l 476 257 l 476 156 q 376 -127 476 -46 q 88 -208 276 -208 l 88 -208 z "},"[":{"ha":600,"x_min":69,"x_max":572,"o":"m 547 -208 l 94 -208 q 76 -201 83 -208 q 69 -183 69 -194 l 69 -183 l 69 1074 q 76 1092 69 1085 q 94 1099 83 1099 l 94 1099 l 547 1099 q 565 1092 558 1099 q 572 1074 572 1085 l 572 1074 l 572 846 q 565 828 572 835 q 547 821 558 821 l 547 821 l 375 821 l 375 69 l 547 69 q 565 63 558 69 q 572 44 572 56 l 572 44 l 572 -183 q 565 -201 572 -194 q 547 -208 558 -208 l 547 -208 z "},"]":{"ha":600,"x_min":28,"x_max":531,"o":"m 506 -208 l 53 -208 q 35 -201 42 -208 q 28 -183 28 -194 l 28 -183 l 28 44 q 35 63 28 56 q 53 69 42 69 l 53 69 l 225 69 l 225 821 l 53 821 q 35 828 42 821 q 28 846 28 835 l 28 846 l 28 1074 q 35 1092 28 1085 q 53 1099 42 1099 l 53 1099 l 506 1099 q 524 1092 517 1099 q 531 1074 531 1085 l 531 1074 l 531 -183 q 524 -201 531 -194 q 506 -208 517 -208 l 506 -208 z "},"-":{"ha":631,"x_min":60,"x_max":571,"o":"m 546 322 l 85 322 q 67 329 74 322 q 60 347 60 336 l 60 347 l 60 558 q 67 576 60 569 q 85 583 74 583 l 85 583 l 546 583 q 564 576 557 583 q 571 558 571 569 l 571 558 l 571 347 q 564 329 571 336 q 546 322 557 322 l 546 322 z "},"­":{"ha":631,"x_min":60,"x_max":571,"o":"m 546 322 l 85 322 q 67 329 74 322 q 60 347 60 336 l 60 347 l 60 558 q 67 576 60 569 q 85 583 74 583 l 85 583 l 546 583 q 564 576 557 583 q 571 558 571 569 l 571 558 l 571 347 q 564 329 571 336 q 546 322 557 322 l 546 322 z "},"–":{"ha":694,"x_min":0,"x_max":694,"o":"m 669 322 l 25 322 q 7 329 14 322 q 0 347 0 336 l 0 347 l 0 558 q 7 576 0 569 q 25 583 14 583 l 25 583 l 669 583 q 688 576 681 583 q 694 558 694 569 l 694 558 l 694 347 q 688 329 694 336 q 669 322 681 322 l 669 322 z "},"—":{"ha":1389,"x_min":0,"x_max":1389,"o":"m 1364 322 l 25 322 q 7 329 14 322 q 0 347 0 336 l 0 347 l 0 558 q 7 576 0 569 q 25 583 14 583 l 25 583 l 1364 583 q 1382 576 1375 583 q 1389 558 1389 569 l 1389 558 l 1389 347 q 1382 329 1389 336 q 1364 322 1375 322 l 1364 322 z "},"‐":{"ha":631,"x_min":60,"x_max":571,"o":"m 546 322 l 85 322 q 67 329 74 322 q 60 347 60 336 l 60 347 l 60 558 q 67 576 60 569 q 85 583 74 583 l 85 583 l 546 583 q 564 576 557 583 q 571 558 571 569 l 571 558 l 571 347 q 564 329 571 336 q 546 322 557 322 l 546 322 z "},"‑":{"ha":631,"x_min":60,"x_max":571,"o":"m 546 322 l 85 322 q 67 329 74 322 q 60 347 60 336 l 60 347 l 60 558 q 67 576 60 569 q 85 583 74 583 l 85 583 l 546 583 q 564 576 557 583 q 571 558 571 569 l 571 558 l 571 347 q 564 329 571 336 q 546 322 557 322 l 546 322 z "},"_":{"ha":788,"x_min":42,"x_max":746,"o":"m 722 -303 l 65 -303 q 49 -295 56 -303 q 42 -278 42 -287 l 42 -278 l 42 -67 q 49 -49 42 -57 q 65 -42 56 -42 l 65 -42 l 722 -42 q 739 -49 732 -42 q 746 -67 746 -57 l 746 -67 l 746 -278 q 739 -295 746 -287 q 722 -303 732 -303 l 722 -303 z "},"“":{"ha":803,"x_min":69,"x_max":733,"o":"m 219 553 q 112 592 154 553 q 69 693 69 632 l 69 693 q 85 773 69 726 q 154 931 101 819 l 154 931 l 188 1001 q 217 1019 197 1019 l 217 1019 l 329 1019 q 349 1011 343 1019 q 350 990 354 1003 l 350 990 l 289 822 q 348 771 326 806 q 369 693 369 736 l 369 693 q 327 592 369 632 q 219 553 285 553 l 219 553 z m 583 553 q 476 592 518 553 q 433 693 433 632 l 433 693 q 449 773 433 726 q 518 931 465 819 l 518 931 l 551 1001 q 581 1019 561 1019 l 581 1019 l 693 1019 q 713 1011 707 1019 q 714 990 718 1003 l 714 990 l 653 822 q 712 771 690 806 q 733 693 733 736 l 733 693 q 691 592 733 632 q 583 553 649 553 l 583 553 z "},"”":{"ha":803,"x_min":69,"x_max":733,"o":"m 222 575 l 110 575 q 90 583 96 575 q 89 604 85 592 l 89 604 l 150 772 q 91 824 113 789 q 69 901 69 858 l 69 901 q 112 1002 69 963 q 219 1042 154 1042 l 219 1042 q 327 1002 285 1042 q 369 901 369 963 l 369 901 q 353 823 369 868 q 285 664 338 778 l 285 664 l 251 593 q 222 575 244 575 l 222 575 z m 586 575 l 474 575 q 454 583 460 575 q 453 604 449 592 l 453 604 l 514 772 q 455 824 476 789 q 433 901 433 858 l 433 901 q 476 1002 433 963 q 583 1042 518 1042 l 583 1042 q 691 1002 649 1042 q 733 901 733 963 l 733 901 q 717 823 733 868 q 649 664 701 778 l 649 664 l 615 593 q 586 575 608 575 l 586 575 z "},"‘":{"ha":439,"x_min":69,"x_max":369,"o":"m 219 553 q 112 592 154 553 q 69 693 69 632 l 69 693 q 85 773 69 726 q 154 931 101 819 l 154 931 l 188 1001 q 217 1019 197 1019 l 217 1019 l 329 1019 q 349 1011 343 1019 q 350 990 354 1003 l 350 990 l 289 822 q 348 771 326 806 q 369 693 369 736 l 369 693 q 327 592 369 632 q 219 553 285 553 l 219 553 z "},"’":{"ha":439,"x_min":69,"x_max":369,"o":"m 222 575 l 110 575 q 90 583 96 575 q 89 604 85 592 l 89 604 l 150 772 q 91 824 113 789 q 69 901 69 858 l 69 901 q 112 1002 69 963 q 219 1042 154 1042 l 219 1042 q 327 1002 285 1042 q 369 901 369 963 l 369 901 q 353 823 369 868 q 285 664 338 778 l 285 664 l 251 593 q 222 575 244 575 l 222 575 z "},"\"":{"ha":803,"x_min":75,"x_max":729,"o":"m 313 575 l 126 575 q 101 599 103 575 l 101 599 l 75 993 l 75 996 q 100 1019 75 1019 l 100 1019 l 339 1019 q 358 1013 351 1019 q 364 993 365 1006 l 364 993 l 338 599 q 313 575 336 575 l 313 575 z m 676 575 l 490 575 q 465 599 467 575 l 465 599 l 439 993 l 439 996 q 464 1019 439 1019 l 464 1019 l 703 1019 q 722 1013 715 1019 q 728 993 729 1006 l 728 993 l 701 599 q 676 575 700 575 l 676 575 z "},"'":{"ha":439,"x_min":75,"x_max":365,"o":"m 313 575 l 126 575 q 101 599 103 575 l 101 599 l 75 993 l 75 996 q 100 1019 75 1019 l 100 1019 l 339 1019 q 358 1013 351 1019 q 364 993 365 1006 l 364 993 l 338 599 q 313 575 336 575 l 313 575 z "}," ":{"ha":1389,"x_min":null,"x_max":null,"o":""}," ":{"ha":1389,"x_min":null,"x_max":null,"o":""}," ":{"ha":694,"x_min":null,"x_max":null,"o":""}," ":{"ha":694,"x_min":null,"x_max":null,"o":""}," ":{"ha":833,"x_min":null,"x_max":null,"o":""}," ":{"ha":347,"x_min":null,"x_max":null,"o":""}," ":{"ha":231,"x_min":null,"x_max":null,"o":""}," ":{"ha":439,"x_min":null,"x_max":null,"o":""}," ":{"ha":232,"x_min":null,"x_max":null,"o":""}," ":{"ha":278,"x_min":null,"x_max":null,"o":""}," ":{"ha":278,"x_min":null,"x_max":null,"o":""}," ":{"ha":463,"x_min":null,"x_max":null,"o":""},"​":{"ha":0,"x_min":null,"x_max":null,"o":""},"‍":{"ha":0,"x_min":null,"x_max":null,"o":""},"‌":{"ha":0,"x_min":null,"x_max":null,"o":""},"⁠":{"ha":0,"x_min":null,"x_max":null,"o":""},"﻿":{"ha":0,"x_min":null,"x_max":null,"o":""},"฿":{"ha":874,"x_min":83,"x_max":818,"o":"m 818 322 q 751 144 818 207 q 540 64 685 81 l 540 64 l 540 -79 q 533 -97 540 -90 q 515 -104 526 -104 l 515 -104 l 329 -104 q 311 -97 318 -104 q 304 -79 304 -90 l 304 -79 l 304 57 l 108 57 q 90 64 97 57 q 83 82 83 71 l 83 82 l 83 938 q 90 956 83 949 q 108 963 97 963 l 108 963 l 304 963 l 304 1099 q 311 1117 304 1110 q 329 1124 318 1124 l 329 1124 l 515 1124 q 533 1117 526 1124 q 540 1099 540 1110 l 540 1099 l 540 957 q 717 883 663 940 q 772 728 772 825 l 772 728 q 738 613 772 663 q 639 536 704 564 l 639 536 q 773 455 728 511 q 818 322 818 399 l 818 322 z m 351 758 l 351 610 l 438 610 q 483 628 464 610 q 503 683 503 646 l 503 683 q 483 740 503 721 q 438 758 464 758 l 438 758 l 351 758 z m 351 261 l 449 261 q 508 281 485 261 q 532 340 532 300 l 532 340 q 508 401 532 381 q 449 421 485 421 l 449 421 l 351 421 l 351 261 z "},"¢":{"ha":842,"x_min":36,"x_max":821,"o":"m 535 0 l 349 0 q 331 7 338 0 q 324 25 324 14 l 324 25 l 324 117 q 113 247 189 146 q 36 496 36 349 l 36 496 q 113 744 36 643 q 324 875 189 846 l 324 875 l 324 994 q 331 1013 324 1006 q 349 1019 338 1019 l 349 1019 l 535 1019 q 553 1013 546 1019 q 560 994 560 1006 l 560 994 l 560 869 q 708 790 646 847 q 799 644 771 733 l 799 644 q 800 633 800 640 l 800 633 q 782 613 800 617 l 782 613 l 567 554 q 558 553 564 553 l 558 553 q 535 569 543 553 l 535 569 q 444 622 504 622 l 444 622 q 371 588 397 622 q 344 496 344 553 l 344 496 q 371 404 344 439 q 444 369 397 369 l 444 369 q 533 426 507 369 l 533 426 q 565 443 544 449 l 565 443 l 796 385 q 813 353 821 378 l 813 353 q 716 206 782 264 q 560 122 650 147 l 560 122 l 560 25 q 553 7 560 14 q 535 0 546 0 l 535 0 z "},"¤":{"ha":892,"x_min":50,"x_max":842,"o":"m 182 167 l 60 275 q 50 293 50 285 l 50 293 q 58 310 50 301 l 58 310 l 146 407 q 118 536 118 467 l 118 536 q 147 667 118 611 l 147 667 l 58 765 q 50 782 50 774 l 50 782 q 60 800 50 790 l 60 800 l 182 908 q 197 915 189 915 l 197 915 q 217 906 207 915 l 217 906 l 303 808 q 446 833 368 833 l 446 833 q 589 808 525 833 l 589 808 l 675 906 q 693 915 683 915 l 693 915 q 710 908 703 915 l 710 908 l 832 800 q 842 782 842 790 l 842 782 q 833 765 842 774 l 833 765 l 744 667 q 774 536 774 611 l 774 536 q 746 407 774 467 l 746 407 l 833 310 q 842 293 842 301 l 842 293 q 832 275 842 285 l 832 275 l 710 167 q 694 160 703 160 l 694 160 q 675 169 685 160 l 675 169 l 589 267 q 446 242 525 242 l 446 242 q 303 267 368 242 l 303 267 l 217 169 q 197 160 207 160 l 197 160 q 182 167 189 160 l 182 167 z m 446 436 q 518 464 490 436 q 546 538 546 492 l 546 538 q 518 611 546 583 q 446 639 490 639 l 446 639 q 374 611 401 639 q 346 538 346 583 l 346 538 q 374 464 346 492 q 446 436 401 436 l 446 436 z "},"$":{"ha":874,"x_min":43,"x_max":800,"o":"m 529 -104 l 343 -104 q 325 -97 332 -104 q 318 -79 318 -90 l 318 -79 l 318 53 q 150 132 221 74 q 44 279 79 190 l 44 279 q 43 289 43 282 l 43 289 q 63 310 43 306 l 63 310 l 289 363 l 296 364 q 319 346 314 364 l 319 346 q 421 281 351 281 l 421 281 q 458 291 444 281 q 471 319 471 301 l 471 319 q 456 352 471 339 q 406 378 442 365 l 406 378 l 343 399 q 142 513 207 442 q 76 688 76 585 l 76 688 q 144 861 76 788 q 318 964 211 935 l 318 964 l 318 1099 q 325 1117 318 1110 q 343 1124 332 1124 l 343 1124 l 529 1124 q 547 1117 540 1124 q 554 1099 554 1110 l 554 1099 l 554 964 q 704 888 640 942 q 799 749 768 835 l 799 749 q 800 738 800 744 l 800 738 q 782 717 800 721 l 782 717 l 549 658 q 540 657 546 657 l 540 657 q 517 676 525 657 l 517 676 q 428 739 489 739 l 428 739 q 396 730 408 739 q 383 706 383 721 l 383 706 q 401 670 383 686 q 478 632 419 654 l 478 632 l 539 610 q 735 494 674 560 q 796 329 796 428 l 796 329 q 731 157 796 229 q 554 57 667 85 l 554 57 l 554 -79 q 547 -97 554 -90 q 529 -104 540 -104 l 529 -104 z "},"€":{"ha":1024,"x_min":14,"x_max":979,"o":"m 106 371 l 39 371 q 21 378 28 371 q 14 396 14 385 l 14 396 l 14 457 q 21 475 14 468 q 39 482 28 482 l 39 482 l 94 482 l 94 510 l 94 538 l 39 538 q 21 544 28 538 q 14 563 14 551 l 14 563 l 14 624 q 21 642 14 635 q 39 649 28 649 l 39 649 l 106 649 q 252 937 138 835 q 549 1039 367 1039 l 549 1039 q 806 969 700 1039 q 964 768 913 900 l 964 768 q 965 757 965 764 l 965 757 q 947 736 965 740 l 947 736 l 694 667 q 685 665 692 665 l 685 665 q 661 679 671 665 l 661 679 q 612 724 639 711 q 549 736 585 736 l 549 736 q 433 649 463 736 l 433 649 l 596 649 q 614 642 607 649 q 621 624 621 635 l 621 624 l 621 563 q 614 544 621 551 q 596 538 607 538 l 596 538 l 414 538 l 414 510 l 414 482 l 596 482 q 614 475 607 482 q 621 457 621 468 l 621 457 l 621 396 q 614 378 621 385 q 596 371 607 371 l 596 371 l 432 371 q 549 283 464 283 l 549 283 q 661 346 625 283 l 661 346 q 693 361 672 368 l 693 361 l 958 294 q 974 283 969 292 q 975 265 979 275 l 975 265 q 813 59 928 138 q 549 -19 699 -19 l 549 -19 q 252 83 367 -19 q 106 371 138 185 l 106 371 z "},"£":{"ha":890,"x_min":42,"x_max":863,"o":"m 801 0 l 67 0 q 49 7 56 0 q 42 25 42 14 l 42 25 l 42 106 q 51 138 42 122 l 51 138 q 134 285 114 238 q 154 389 154 332 l 154 389 q 153 414 154 406 l 153 414 l 83 414 q 65 421 72 414 q 58 439 58 428 l 58 439 l 58 542 q 65 560 58 553 q 83 567 72 567 l 83 567 l 121 567 q 103 714 103 642 l 103 714 q 149 883 103 810 q 278 998 194 957 q 469 1039 361 1039 l 469 1039 q 713 965 608 1039 q 861 760 817 890 l 861 760 q 863 749 863 756 l 863 749 q 844 728 863 732 l 844 728 l 617 665 q 608 664 614 664 l 608 664 q 585 682 593 664 l 585 682 q 492 749 553 749 l 492 749 q 444 728 460 749 q 429 669 429 707 l 429 669 q 447 567 429 633 l 447 567 l 599 567 q 617 560 610 567 q 624 542 624 553 l 624 542 l 624 439 q 617 421 624 428 q 599 414 610 414 l 599 414 l 458 414 q 404 297 446 347 l 404 297 l 801 297 q 819 290 813 297 q 826 272 826 283 l 826 272 l 826 25 q 819 7 826 14 q 801 0 813 0 l 801 0 z "},"¥":{"ha":1064,"x_min":11,"x_max":1053,"o":"m 374 186 l 190 186 q 172 193 179 186 q 165 211 165 200 l 165 211 l 165 272 q 172 290 165 283 q 190 297 179 297 l 190 297 l 374 297 l 374 353 l 190 353 q 172 360 179 353 q 165 378 165 367 l 165 378 l 165 439 q 172 457 165 450 q 190 464 179 464 l 190 464 l 315 464 l 15 989 q 11 1003 11 997 l 11 1003 q 17 1015 11 1010 q 33 1019 24 1019 l 33 1019 l 343 1019 q 372 1001 364 1019 l 372 1001 l 536 654 l 697 1001 q 726 1019 704 1019 l 726 1019 l 1031 1019 q 1047 1015 1040 1019 q 1053 1003 1053 1010 l 1053 1003 q 1049 989 1053 997 l 1049 989 l 746 464 l 872 464 q 890 457 883 464 q 897 439 897 450 l 897 439 l 897 378 q 890 360 897 367 q 872 353 883 353 l 872 353 l 690 353 l 690 297 l 872 297 q 890 290 883 297 q 897 272 897 283 l 897 272 l 897 211 q 890 193 897 200 q 872 186 883 186 l 872 186 l 690 186 l 690 25 q 683 7 690 14 q 665 0 676 0 l 665 0 l 399 0 q 381 7 388 0 q 374 25 374 14 l 374 25 l 374 186 z "},"+":{"ha":833,"x_min":75,"x_max":758,"o":"m 529 111 l 304 111 q 287 119 294 111 q 279 136 279 126 l 279 136 l 279 322 l 100 322 q 83 330 90 322 q 75 347 75 338 l 75 347 l 75 558 q 83 576 75 569 q 100 583 90 583 l 100 583 l 279 583 l 279 769 q 287 788 279 781 q 304 794 294 794 l 304 794 l 529 794 q 547 788 540 794 q 554 769 554 781 l 554 769 l 554 583 l 733 583 q 751 576 744 583 q 758 558 758 569 l 758 558 l 758 347 q 751 330 758 338 q 733 322 744 322 l 733 322 l 554 322 l 554 136 q 547 119 554 126 q 529 111 540 111 l 529 111 z "},"−":{"ha":833,"x_min":75,"x_max":758,"o":"m 733 322 l 100 322 q 83 330 90 322 q 75 347 75 338 l 75 347 l 75 558 q 83 576 75 569 q 100 583 90 583 l 100 583 l 733 583 q 751 576 744 583 q 758 558 758 569 l 758 558 l 758 347 q 751 330 758 338 q 733 322 744 322 l 733 322 z "},"×":{"ha":833,"x_min":71,"x_max":764,"o":"m 232 118 l 83 267 q 76 285 76 274 l 76 285 q 83 303 76 296 l 83 303 l 228 447 l 79 594 q 71 613 71 601 l 71 613 q 79 632 71 624 l 79 632 l 238 790 q 256 797 244 797 l 256 797 q 274 790 268 797 l 274 790 l 422 642 l 567 786 q 585 793 574 793 l 585 793 q 603 786 597 793 l 603 786 l 751 636 q 760 618 760 628 l 760 618 q 751 600 760 608 l 751 600 l 607 457 l 756 308 q 764 290 764 300 l 764 290 q 756 271 764 279 l 756 271 l 597 114 q 579 107 590 107 l 579 107 q 561 114 571 107 l 561 114 l 413 263 l 268 118 q 250 110 260 110 l 250 110 q 232 118 240 110 l 232 118 z "},"÷":{"ha":833,"x_min":75,"x_max":758,"o":"m 417 611 q 326 645 363 611 q 290 732 290 679 l 290 732 q 326 818 290 785 q 417 851 363 851 l 417 851 q 508 819 472 851 q 543 732 543 786 l 543 732 q 507 644 543 678 q 417 611 471 611 l 417 611 z m 733 336 l 100 336 q 83 344 90 336 q 75 361 75 351 l 75 361 l 75 544 q 83 563 75 556 q 100 569 90 569 l 100 569 l 733 569 q 751 563 744 569 q 758 544 758 556 l 758 544 l 758 361 q 751 344 758 351 q 733 336 744 336 l 733 336 z m 417 54 q 326 88 363 54 q 290 175 290 121 l 290 175 q 326 260 290 226 q 417 294 363 294 l 417 294 q 507 260 471 294 q 543 175 543 226 l 543 175 q 508 88 543 121 q 417 54 472 54 l 417 54 z "},"=":{"ha":833,"x_min":75,"x_max":758,"o":"m 733 490 l 100 490 q 83 498 90 490 q 75 515 75 506 l 75 515 l 75 726 q 83 744 75 738 q 100 751 90 751 l 100 751 l 733 751 q 751 744 744 751 q 758 726 758 738 l 758 726 l 758 515 q 751 498 758 506 q 733 490 744 490 l 733 490 z m 733 133 l 100 133 q 83 141 90 133 q 75 158 75 149 l 75 158 l 75 369 q 83 388 75 381 q 100 394 90 394 l 100 394 l 733 394 q 751 388 744 394 q 758 369 758 381 l 758 369 l 758 158 q 751 141 758 149 q 733 133 744 133 l 733 133 z "},">":{"ha":833,"x_min":138,"x_max":758,"o":"m 740 338 l 167 51 q 154 49 163 49 l 154 49 q 138 69 138 49 l 138 69 l 138 308 q 157 338 138 329 l 157 338 l 386 433 l 157 529 q 138 558 138 538 l 138 558 l 138 804 q 154 825 138 825 l 154 825 q 167 822 163 825 l 167 822 l 740 536 q 758 506 758 528 l 758 506 l 758 368 q 740 338 758 346 l 740 338 z "},"<":{"ha":833,"x_min":75,"x_max":696,"o":"m 696 315 l 696 69 q 679 49 696 49 l 679 49 q 667 51 671 49 l 667 51 l 93 338 q 75 368 75 346 l 75 368 l 75 506 q 93 536 75 528 l 93 536 l 667 822 q 679 825 671 825 l 679 825 q 696 804 696 825 l 696 804 l 696 565 q 676 536 696 544 l 676 536 l 447 440 l 676 344 q 696 315 696 336 l 696 315 z "},"~":{"ha":833,"x_min":33,"x_max":800,"o":"m 558 228 q 456 252 499 228 q 367 319 414 276 l 367 319 q 330 351 344 340 q 301 361 315 361 l 301 361 q 268 337 279 361 q 256 258 257 313 l 256 258 q 249 239 256 246 q 231 232 242 232 l 231 232 l 58 232 q 40 239 47 232 q 33 258 33 246 l 33 258 q 99 533 38 439 q 275 626 161 626 l 275 626 q 377 602 335 626 q 467 535 419 578 l 467 535 q 503 503 489 514 q 532 493 518 493 l 532 493 q 565 517 554 493 q 578 596 576 542 l 578 596 q 585 615 578 608 q 603 622 592 622 l 603 622 l 775 622 q 793 612 786 622 q 799 582 800 601 l 799 582 q 731 318 792 408 q 558 228 671 228 l 558 228 z "},"¬":{"ha":833,"x_min":69,"x_max":744,"o":"m 719 97 l 494 97 q 476 104 483 97 q 469 122 469 111 l 469 122 l 469 350 l 94 350 q 76 357 83 350 q 69 375 69 364 l 69 375 l 69 586 q 76 604 69 597 q 94 611 83 611 l 94 611 l 719 611 q 738 604 731 611 q 744 586 744 597 l 744 586 l 744 122 q 738 104 744 111 q 719 97 731 97 l 719 97 z "},"^":{"ha":833,"x_min":29,"x_max":804,"o":"m 304 468 l 51 468 q 35 473 42 468 q 29 485 29 478 l 29 485 q 33 499 29 490 l 33 499 l 318 1003 q 347 1019 329 1019 l 347 1019 l 486 1019 q 515 1001 504 1019 l 515 1001 l 800 499 q 804 485 804 490 l 804 485 q 798 473 804 478 q 782 468 792 468 l 782 468 l 536 468 q 507 488 515 468 l 507 488 l 421 676 l 333 488 q 304 468 325 468 l 304 468 z "},"%":{"ha":1317,"x_min":21,"x_max":1296,"o":"m 288 447 q 92 525 164 447 q 21 740 21 603 l 21 740 q 92 956 21 878 q 288 1033 164 1033 l 288 1033 q 483 956 411 1033 q 554 740 554 878 l 554 740 q 483 525 554 603 q 288 447 411 447 l 288 447 z m 419 0 l 246 0 q 224 15 224 0 l 224 15 q 229 31 224 19 l 229 31 l 869 1003 q 900 1019 881 1019 l 900 1019 l 1074 1019 q 1096 1004 1096 1019 l 1096 1004 q 1090 989 1096 1000 l 1090 989 l 450 17 q 419 0 440 0 l 419 0 z m 288 614 q 327 643 314 614 q 340 740 340 672 l 340 740 q 327 838 340 808 q 288 867 314 867 l 288 867 q 248 838 261 867 q 235 740 235 808 l 235 740 q 248 643 235 672 q 288 614 261 614 l 288 614 z m 1029 -14 q 834 64 906 -14 q 763 279 763 142 l 763 279 q 834 494 763 417 q 1029 572 906 572 l 1029 572 q 1224 494 1153 572 q 1296 279 1296 417 l 1296 279 q 1224 64 1296 142 q 1029 -14 1153 -14 l 1029 -14 z m 1029 153 q 1069 182 1056 153 q 1082 279 1082 211 l 1082 279 q 1069 376 1082 347 q 1029 406 1056 406 l 1029 406 q 990 376 1003 406 q 976 279 976 347 l 976 279 q 990 182 976 211 q 1029 153 1003 153 l 1029 153 z "},"‰":{"ha":1892,"x_min":21,"x_max":1871,"o":"m 288 447 q 92 525 164 447 q 21 740 21 603 l 21 740 q 92 956 21 878 q 288 1033 164 1033 l 288 1033 q 483 956 411 1033 q 554 740 554 878 l 554 740 q 483 525 554 603 q 288 447 411 447 l 288 447 z m 419 0 l 246 0 q 224 15 224 0 l 224 15 q 229 31 224 19 l 229 31 l 869 1003 q 900 1019 881 1019 l 900 1019 l 1074 1019 q 1096 1004 1096 1019 l 1096 1004 q 1090 989 1096 1000 l 1090 989 l 450 17 q 419 0 440 0 l 419 0 z m 288 614 q 327 643 314 614 q 340 740 340 672 l 340 740 q 327 838 340 808 q 288 867 314 867 l 288 867 q 248 838 261 867 q 235 740 235 808 l 235 740 q 248 643 235 672 q 288 614 261 614 l 288 614 z m 1029 -14 q 834 64 906 -14 q 763 279 763 142 l 763 279 q 834 494 763 417 q 1029 572 906 572 l 1029 572 q 1224 494 1153 572 q 1296 279 1296 417 l 1296 279 q 1224 64 1296 142 q 1029 -14 1153 -14 l 1029 -14 z m 1604 -14 q 1409 64 1481 -14 q 1338 279 1338 142 l 1338 279 q 1409 494 1338 417 q 1604 572 1481 572 l 1604 572 q 1799 494 1728 572 q 1871 279 1871 417 l 1871 279 q 1799 64 1871 142 q 1604 -14 1728 -14 l 1604 -14 z m 1029 153 q 1069 182 1056 153 q 1082 279 1082 211 l 1082 279 q 1069 376 1082 347 q 1029 406 1056 406 l 1029 406 q 990 376 1003 406 q 976 279 976 347 l 976 279 q 990 182 976 211 q 1029 153 1003 153 l 1029 153 z m 1604 153 q 1644 182 1631 153 q 1657 279 1657 211 l 1657 279 q 1644 376 1657 347 q 1604 406 1631 406 l 1604 406 q 1565 376 1578 406 q 1551 279 1551 347 l 1551 279 q 1565 182 1551 211 q 1604 153 1578 153 l 1604 153 z "},"✉":{"ha":1389,"x_min":249,"x_max":1138,"o":"m 1031 106 l 358 106 q 281 137 313 106 q 249 214 249 168 l 249 214 l 249 743 q 281 822 249 789 q 358 854 313 854 l 358 854 l 1031 854 q 1106 822 1075 854 q 1138 743 1138 789 l 1138 743 l 1138 214 q 1106 138 1138 169 q 1031 106 1075 106 l 1031 106 z m 693 419 l 1019 694 q 1031 717 1031 703 l 1031 717 q 1024 733 1031 725 q 1006 742 1018 742 l 1006 742 q 988 735 996 742 l 988 735 l 693 486 l 399 735 q 381 742 389 742 l 381 742 q 362 733 368 742 q 356 717 356 725 l 356 717 q 367 694 356 703 l 367 694 l 693 419 z "},"@":{"ha":1585,"x_min":64,"x_max":1521,"o":"m 778 -365 q 402 -276 564 -365 q 152 -31 240 -186 q 64 318 64 125 l 64 318 q 160 697 64 531 q 426 955 257 863 q 806 1047 596 1047 l 806 1047 q 1180 964 1017 1047 q 1432 735 1343 881 q 1521 408 1521 590 l 1521 408 q 1477 183 1521 278 q 1353 37 1433 88 q 1167 -14 1274 -14 l 1167 -14 q 1031 22 1090 -14 q 947 121 972 58 l 947 121 q 724 -14 875 -14 l 724 -14 q 560 30 631 -14 q 449 153 489 74 q 410 335 410 232 l 410 335 q 449 517 410 438 q 560 640 489 596 q 724 683 631 683 l 724 683 q 906 608 838 683 l 906 608 l 907 646 q 915 664 907 657 q 933 671 922 671 l 933 671 l 1115 671 q 1133 664 1126 671 q 1140 646 1140 657 l 1140 646 l 1140 308 q 1214 200 1140 200 l 1214 200 q 1276 253 1253 200 q 1299 408 1299 307 l 1299 408 q 1241 640 1299 542 q 1072 792 1183 739 q 806 844 961 844 l 806 844 q 538 785 656 844 q 353 608 421 726 q 286 318 286 490 l 286 318 q 432 -43 286 76 q 828 -162 578 -162 l 828 -162 q 1019 -146 932 -162 l 1019 -146 l 1026 -146 q 1047 -168 1047 -146 l 1047 -168 l 1047 -314 q 1031 -340 1047 -336 l 1031 -340 q 778 -365 913 -365 l 778 -365 z m 786 222 q 861 253 832 222 q 890 335 890 285 l 890 335 q 861 416 890 385 q 786 447 832 447 l 786 447 q 711 416 740 447 q 682 335 682 385 l 682 335 q 711 253 682 285 q 786 222 740 222 l 786 222 z "},"&":{"ha":1063,"x_min":56,"x_max":1035,"o":"m 519 -19 q 267 19 371 -19 q 109 127 163 57 q 56 290 56 197 l 56 290 q 101 440 56 378 q 235 532 147 501 l 235 532 q 129 625 165 569 q 93 751 93 681 l 93 751 q 142 899 93 833 q 279 1002 192 965 q 476 1039 367 1039 l 476 1039 q 730 969 628 1039 q 868 772 832 900 l 868 772 q 869 764 869 769 l 869 764 q 849 742 869 746 l 849 742 l 604 690 q 601 690 603 690 q 597 690 599 689 l 597 690 q 572 707 581 690 l 572 707 q 482 775 546 775 l 482 775 q 426 754 447 775 q 404 700 404 733 l 404 700 q 472 632 404 632 l 472 632 l 510 632 q 528 625 521 632 q 535 607 535 618 l 535 607 l 535 431 q 528 413 535 419 q 510 406 521 406 l 510 406 l 472 406 q 400 387 425 406 q 375 333 375 368 l 375 333 q 413 267 375 290 q 524 244 450 244 l 524 244 q 672 350 672 244 l 672 350 q 659 389 672 372 q 626 406 646 406 l 626 406 l 621 406 q 611 417 611 406 l 611 417 l 611 607 q 618 625 611 618 q 636 632 625 632 l 636 632 l 1010 632 q 1028 625 1021 632 q 1035 607 1035 618 l 1035 607 l 1035 431 q 1028 413 1035 419 q 1010 406 1021 406 l 1010 406 l 922 406 q 951 296 951 351 l 951 296 q 898 130 951 201 q 747 19 844 58 q 519 -19 650 -19 l 519 -19 z "},"¶":{"ha":960,"x_min":42,"x_max":857,"o":"m 540 -125 l 382 -125 q 364 -118 371 -125 q 357 -100 357 -111 l 357 -100 l 357 276 q 199 335 271 289 q 84 461 126 382 q 42 646 42 540 l 42 646 q 94 847 42 763 q 232 976 146 932 q 417 1019 318 1019 l 417 1019 l 832 1019 q 850 1013 843 1019 q 857 994 857 1006 l 857 994 l 857 -100 q 850 -118 857 -111 q 832 -125 843 -125 l 832 -125 l 674 -125 q 656 -118 663 -125 q 649 -100 649 -111 l 649 -100 l 649 825 l 565 825 l 565 -100 q 558 -118 565 -111 q 540 -125 551 -125 l 540 -125 z "},"§":{"ha":783,"x_min":53,"x_max":715,"o":"m 368 -147 q 166 -101 243 -147 q 54 39 89 -56 l 54 39 q 53 50 53 43 l 53 50 q 71 69 53 65 l 71 69 l 265 117 q 274 118 268 118 l 274 118 q 296 100 288 118 l 296 100 q 349 61 317 61 l 349 61 q 378 71 367 61 q 389 96 389 81 l 389 96 q 376 151 389 117 l 376 151 q 210 189 283 151 q 97 292 138 226 q 56 442 56 358 l 56 442 q 83 568 56 511 q 161 664 111 625 l 161 664 q 120 730 133 697 q 107 808 107 763 l 107 808 q 147 928 107 875 q 255 1010 188 981 q 400 1039 322 1039 l 400 1039 q 602 993 525 1039 q 714 853 679 947 l 714 853 q 715 842 715 849 l 715 842 q 697 822 715 826 l 697 822 l 503 775 q 494 774 500 774 l 494 774 q 472 792 482 774 l 472 792 q 419 831 451 831 l 419 831 q 390 820 401 831 q 379 792 379 810 l 379 792 q 396 732 379 772 l 396 732 q 620 649 538 726 q 703 442 703 571 l 703 442 q 678 318 703 374 q 610 225 654 263 l 610 225 q 649 160 636 193 q 661 83 661 126 l 661 83 q 621 -36 661 17 q 513 -118 581 -89 q 368 -147 446 -147 l 368 -147 z m 379 344 q 448 371 422 344 q 474 442 474 397 l 474 442 q 448 513 474 486 q 379 539 422 539 l 379 539 q 310 513 336 539 q 285 442 285 486 l 285 442 q 310 371 285 397 q 379 344 336 344 l 379 344 z "},"©":{"ha":1189,"x_min":64,"x_max":1125,"o":"m 594 -19 q 322 48 443 -19 q 133 235 201 115 q 64 510 64 356 l 64 510 q 133 784 64 664 q 322 972 201 904 q 594 1039 443 1039 l 594 1039 q 867 972 746 1039 q 1056 784 988 904 q 1125 510 1125 664 l 1125 510 q 1056 235 1125 356 q 867 48 988 115 q 594 -19 746 -19 l 594 -19 z m 594 119 q 793 167 706 119 q 931 302 881 214 q 981 510 981 390 l 981 510 q 931 717 981 629 q 793 853 881 806 q 594 900 706 900 l 594 900 q 396 853 483 900 q 258 717 308 806 q 208 510 208 629 l 208 510 q 258 302 208 390 q 396 167 308 214 q 594 119 483 119 l 594 119 z m 594 224 q 386 303 464 224 q 308 510 308 382 l 308 510 q 386 717 308 638 q 594 796 464 796 l 594 796 q 762 753 690 796 q 864 625 833 711 l 864 625 q 865 615 865 621 l 865 615 q 846 593 865 597 l 846 593 l 703 554 q 694 553 700 553 l 694 553 q 669 569 681 553 l 669 569 q 607 603 647 603 l 607 603 q 552 577 571 603 q 533 510 533 551 l 533 510 q 552 442 533 468 q 607 417 571 417 l 607 417 q 669 453 647 417 l 669 453 q 683 468 676 464 q 700 469 690 472 l 700 469 l 857 431 q 873 419 868 428 q 874 399 878 410 l 874 399 q 767 268 843 313 q 594 224 692 224 l 594 224 z "},"®":{"ha":856,"x_min":64,"x_max":792,"o":"m 428 319 q 240 366 322 319 q 110 496 157 413 q 64 686 64 579 l 64 686 q 110 876 64 793 q 240 1006 157 960 q 428 1053 322 1053 l 428 1053 q 616 1006 533 1053 q 745 876 699 960 q 792 686 792 793 l 792 686 q 745 496 792 579 q 616 366 699 413 q 428 319 533 319 l 428 319 z m 428 410 q 627 486 554 410 q 700 686 700 563 l 700 686 q 627 886 700 810 q 428 963 554 963 l 428 963 q 228 886 301 963 q 156 686 156 810 l 156 686 q 228 486 156 563 q 428 410 301 410 l 428 410 z m 374 528 l 307 528 q 299 536 299 528 l 299 536 l 299 860 q 307 868 299 868 l 307 868 l 431 868 q 538 838 503 868 q 572 757 572 807 l 572 757 q 556 699 572 725 q 507 657 540 672 l 507 657 l 579 538 q 579 531 581 533 q 574 528 578 528 l 574 528 l 496 528 q 486 533 490 528 l 486 533 l 424 643 l 382 643 l 382 536 q 374 528 382 528 l 374 528 z m 429 800 l 382 800 l 382 711 l 429 711 q 474 722 460 711 q 488 757 488 733 l 488 757 q 473 788 488 776 q 429 800 458 800 l 429 800 z "},"™":{"ha":1417,"x_min":24,"x_max":1383,"o":"m 417 458 l 217 458 q 199 465 206 458 q 192 483 192 472 l 192 483 l 192 789 l 49 789 q 31 796 38 789 q 24 814 24 803 l 24 814 l 24 994 q 31 1013 24 1006 q 49 1019 38 1019 l 49 1019 l 585 1019 q 603 1013 596 1019 q 610 994 610 1006 l 610 994 l 610 814 q 603 796 610 803 q 585 789 596 789 l 585 789 l 442 789 l 442 483 q 435 465 442 472 q 417 458 428 458 l 417 458 z m 844 458 l 676 458 q 658 465 665 458 q 651 483 651 472 l 651 483 l 651 994 q 658 1013 651 1006 q 676 1019 665 1019 l 676 1019 l 849 1019 q 879 1003 869 1019 l 879 1003 l 1019 788 l 1160 1003 q 1190 1019 1171 1019 l 1190 1019 l 1358 1019 q 1376 1013 1369 1019 q 1383 994 1383 1006 l 1383 994 l 1383 483 q 1376 465 1383 472 q 1358 458 1369 458 l 1358 458 l 1190 458 q 1172 465 1179 458 q 1165 483 1165 472 l 1165 483 l 1165 718 l 1074 582 q 1043 565 1064 565 l 1043 565 l 978 565 q 947 581 957 565 l 947 581 l 869 693 l 869 483 q 863 465 869 472 q 844 458 856 458 l 844 458 z "},"°":{"ha":619,"x_min":64,"x_max":556,"o":"m 310 597 q 133 658 203 597 q 64 818 64 718 l 64 818 q 133 978 64 918 q 310 1039 203 1039 l 310 1039 q 486 978 417 1039 q 556 818 556 918 l 556 818 q 486 658 556 718 q 310 597 417 597 l 310 597 z m 310 742 q 364 763 343 742 q 385 818 385 783 l 385 818 q 364 874 385 853 q 310 894 343 894 l 310 894 q 256 874 276 894 q 235 818 235 853 l 235 818 q 256 763 235 783 q 310 742 276 742 l 310 742 z "},"|":{"ha":489,"x_min":92,"x_max":397,"o":"m 372 -153 l 117 -153 q 99 -146 107 -153 q 92 -128 92 -139 l 92 -128 l 92 1017 q 99 1035 92 1028 q 117 1042 107 1042 l 117 1042 l 372 1042 q 390 1035 383 1042 q 397 1017 397 1028 l 397 1017 l 397 -128 q 390 -146 397 -139 q 372 -153 383 -153 l 372 -153 z "},"†":{"ha":703,"x_min":42,"x_max":661,"o":"m 479 -125 l 224 -125 q 206 -118 213 -125 q 199 -100 199 -111 l 199 -100 l 199 558 l 67 558 q 49 565 56 558 q 42 583 42 572 l 42 583 l 42 783 q 49 801 42 794 q 67 808 56 808 l 67 808 l 199 808 l 199 994 q 206 1013 199 1006 q 224 1019 213 1019 l 224 1019 l 479 1019 q 497 1013 490 1019 q 504 994 504 1006 l 504 994 l 504 808 l 636 808 q 654 801 647 808 q 661 783 661 794 l 661 783 l 661 583 q 654 565 661 572 q 636 558 647 558 l 636 558 l 504 558 l 504 -100 q 497 -118 504 -111 q 479 -125 490 -125 l 479 -125 z "},"‡":{"ha":703,"x_min":42,"x_max":661,"o":"m 199 100 l 67 100 q 49 107 56 100 q 42 125 42 114 l 42 125 l 42 325 q 49 343 42 336 q 67 350 56 350 l 67 350 l 199 350 l 199 558 l 67 558 q 49 565 56 558 q 42 583 42 572 l 42 583 l 42 783 q 49 801 42 794 q 67 808 56 808 l 67 808 l 199 808 l 199 994 q 206 1013 199 1006 q 224 1019 213 1019 l 224 1019 l 479 1019 q 497 1013 490 1019 q 504 994 504 1006 l 504 994 l 504 808 l 636 808 q 654 801 647 808 q 661 783 661 794 l 661 783 l 661 583 q 654 565 661 572 q 636 558 647 558 l 636 558 l 504 558 l 504 350 l 636 350 q 654 343 647 350 q 661 325 661 336 l 661 325 l 661 125 q 654 107 661 114 q 636 100 647 100 l 636 100 l 504 100 l 504 -100 q 497 -118 504 -111 q 479 -125 490 -125 l 479 -125 l 224 -125 q 206 -118 213 -125 q 199 -100 199 -111 l 199 -100 l 199 100 z "},"🎵":{"ha":1389,"x_min":275,"x_max":1025,"o":"m 404 49 q 313 88 351 49 q 275 179 275 126 l 275 179 q 313 274 275 235 q 404 314 351 314 l 404 314 q 472 296 436 314 l 472 296 l 472 744 q 485 781 472 764 q 517 803 499 797 l 517 803 l 951 918 q 965 919 956 919 l 965 919 q 1007 902 989 919 q 1025 863 1025 885 l 1025 863 l 1025 313 q 986 217 1025 257 q 890 178 947 178 l 890 178 q 798 216 836 178 q 760 313 760 254 l 760 313 q 799 404 760 365 q 890 443 838 443 l 890 443 q 960 425 925 443 l 960 425 l 960 724 l 540 611 l 540 179 q 500 88 540 126 q 404 49 460 49 l 404 49 z "},"👤":{"ha":1389,"x_min":261,"x_max":1129,"o":"m 261 0 l 261 126 q 278 192 261 161 q 324 242 294 224 l 324 242 l 565 392 q 581 422 581 401 l 581 422 q 567 471 581 440 l 567 471 l 535 531 q 526 547 531 538 q 514 569 521 557 l 514 569 q 482 608 494 583 q 469 658 469 632 l 469 658 q 482 707 469 682 l 482 707 q 546 874 486 810 q 696 938 606 938 l 696 938 q 847 874 788 938 q 908 707 906 810 l 908 707 q 921 658 921 682 l 921 658 q 908 608 921 632 q 876 569 896 583 l 876 569 q 865 547 869 557 q 856 531 860 538 l 856 531 l 824 471 q 810 422 810 440 l 810 422 q 825 392 810 403 l 825 392 l 1067 243 q 1112 194 1094 226 q 1129 126 1129 163 l 1129 126 l 1129 0 l 261 0 z "},"💬":{"ha":1389,"x_min":260,"x_max":1128,"o":"m 485 22 l 453 54 q 319 239 379 128 q 260 475 260 350 l 260 475 q 314 709 260 608 q 467 864 368 810 q 700 918 567 918 l 700 918 q 926 872 829 918 q 1075 740 1022 825 q 1128 539 1128 654 l 1128 539 q 1077 346 1128 435 q 939 205 1026 257 q 749 153 851 153 l 749 153 l 632 153 q 553 126 586 153 q 503 61 521 100 l 503 61 l 485 22 z m 513 467 q 544 481 531 467 q 558 513 558 494 l 558 513 q 545 547 558 533 q 513 560 532 560 l 513 560 q 481 547 493 560 q 468 513 468 533 l 468 513 q 481 481 468 494 q 513 467 494 467 l 513 467 z m 690 467 q 722 481 708 467 q 736 513 736 494 l 736 513 q 722 547 736 533 q 690 560 708 560 l 690 560 q 658 547 671 560 q 646 513 646 533 l 646 513 q 659 481 646 494 q 690 467 672 467 l 690 467 z m 868 467 q 899 481 886 467 q 913 513 913 494 l 913 513 q 899 547 913 533 q 868 560 886 560 l 868 560 q 835 547 847 560 q 822 513 822 533 l 822 513 q 835 481 822 494 q 868 467 849 467 l 868 467 z "},"📞":{"ha":1389,"x_min":236,"x_max":1154,"o":"m 940 19 q 720 83 839 19 q 483 265 601 147 l 483 265 q 303 507 369 379 q 236 732 236 635 l 236 732 q 272 839 236 801 l 272 839 l 342 910 q 411 938 369 938 l 411 938 q 490 903 460 938 l 490 903 l 597 781 q 611 744 611 764 l 611 744 q 592 704 611 724 l 592 704 l 499 608 q 540 526 500 582 q 633 417 581 469 l 633 417 q 742 326 685 365 q 824 283 799 286 l 824 283 l 918 378 q 961 396 936 396 l 961 396 q 1000 381 982 396 l 1000 381 l 1121 272 q 1154 197 1154 243 l 1154 197 q 1126 128 1154 156 l 1126 128 l 1057 57 q 1009 29 1040 39 q 940 19 978 19 l 940 19 z "},"📷":{"ha":1389,"x_min":250,"x_max":1138,"o":"m 1079 81 l 307 81 q 267 98 283 81 q 250 139 250 115 l 250 139 l 250 775 q 267 817 250 800 q 307 835 283 835 l 307 835 l 479 835 l 524 899 q 574 924 540 924 l 574 924 l 813 924 q 838 917 825 924 q 858 900 850 911 l 858 900 l 908 835 l 1079 835 q 1120 817 1103 835 q 1138 775 1138 800 l 1138 775 l 1138 139 q 1120 98 1138 115 q 1079 81 1103 81 l 1079 81 z m 693 267 q 789 292 744 267 q 859 362 833 318 q 885 457 885 406 l 885 457 q 859 554 885 510 q 789 624 833 599 q 693 650 744 650 l 693 650 q 598 624 642 650 q 528 554 554 599 q 503 457 503 510 l 503 457 q 528 362 503 406 q 598 292 554 318 q 693 267 642 267 l 693 267 z m 693 317 q 594 358 636 317 q 551 457 551 400 l 551 457 q 593 557 551 515 q 693 599 635 599 l 693 599 q 793 558 751 599 q 835 457 835 517 l 835 457 q 793 358 835 400 q 693 317 751 317 l 693 317 z "},"🔈":{"ha":1389,"x_min":199,"x_max":1189,"o":"m 785 21 q 760 29 771 21 l 760 29 l 514 268 l 232 268 q 208 277 218 268 q 199 299 199 286 l 199 299 l 199 658 q 208 681 199 672 q 232 690 218 690 l 232 690 l 514 690 l 760 929 q 786 940 771 940 l 786 940 q 808 930 799 940 q 817 904 817 919 l 817 904 l 817 51 q 809 28 817 35 q 785 21 801 21 l 785 21 z m 1022 169 l 988 226 q 1088 333 1051 267 q 1125 475 1125 399 l 1125 475 q 988 722 1125 626 l 988 722 l 1022 778 q 1144 647 1099 729 q 1189 475 1189 565 l 1189 475 q 1145 301 1189 381 q 1022 169 1101 221 l 1022 169 z m 943 297 l 907 353 q 974 481 974 400 l 974 481 q 956 543 974 514 q 907 594 939 572 l 907 594 l 943 650 q 1016 573 993 615 q 1039 474 1039 531 l 1039 474 q 1013 375 1039 422 q 943 297 988 328 l 943 297 z "},"🔍":{"ha":1389,"x_min":240,"x_max":1149,"o":"m 1079 18 l 825 271 q 606 196 732 196 l 606 196 q 423 245 507 196 q 290 378 339 294 q 240 561 240 463 l 240 561 q 290 744 240 660 q 423 877 339 828 q 606 926 507 926 l 606 926 q 790 877 706 926 q 923 744 874 828 q 972 561 972 660 l 972 561 q 896 342 972 438 l 896 342 l 1149 88 l 1079 18 z m 606 296 q 738 331 678 296 q 834 428 799 367 q 869 561 869 489 l 869 561 q 834 694 869 633 q 738 790 799 754 q 606 825 678 825 l 606 825 q 473 790 533 825 q 377 694 413 754 q 342 561 342 633 l 342 561 q 377 428 342 489 q 473 332 413 368 q 606 296 533 296 l 606 296 z "},"🕓":{"ha":1389,"x_min":228,"x_max":1160,"o":"m 693 13 q 460 75 567 13 q 291 244 354 138 q 228 476 228 351 l 228 476 q 291 708 228 601 q 461 878 354 815 q 693 940 568 940 l 693 940 q 926 877 819 940 q 1097 708 1033 814 q 1160 475 1160 601 l 1160 475 q 1097 244 1160 350 q 926 75 1033 138 q 693 13 819 13 l 693 13 z m 668 461 l 842 361 l 865 406 l 718 490 l 718 731 l 668 731 l 668 461 z "},"🛍":{"ha":1389,"x_min":314,"x_max":1074,"o":"m 314 249 l 314 760 q 331 801 314 783 q 371 818 349 818 l 371 818 l 513 818 q 537 910 513 868 q 603 976 561 951 q 693 1000 644 1000 l 693 1000 q 785 976 743 1000 q 851 910 826 951 q 875 818 875 868 l 875 818 l 1015 818 q 1056 801 1039 818 q 1074 760 1074 783 l 1074 760 l 1074 249 l 314 249 z m 578 818 l 810 818 q 776 901 810 867 q 693 935 742 935 l 693 935 q 612 901 646 935 q 578 818 578 867 l 578 818 z m 1015 24 l 371 24 q 331 41 347 24 q 314 83 314 58 l 314 83 l 314 200 l 1074 200 l 1074 83 q 1056 41 1074 58 q 1015 24 1039 24 l 1015 24 z "},"☻":{"ha":1389,"x_min":228,"x_max":1160,"o":"m 693 13 q 460 75 567 13 q 291 244 354 138 q 228 476 228 351 l 228 476 q 291 708 228 601 q 461 878 354 815 q 693 940 568 940 l 693 940 q 926 877 819 940 q 1097 708 1033 814 q 1160 475 1160 601 l 1160 475 q 1097 244 1160 350 q 926 75 1033 138 q 693 13 819 13 l 693 13 z m 550 517 q 584 532 569 517 q 599 568 599 547 l 599 568 q 584 603 599 588 q 550 618 569 618 l 550 618 q 513 603 528 618 q 497 568 497 589 l 497 568 q 513 532 497 547 q 550 517 528 517 l 550 517 z m 840 517 q 877 532 863 517 q 892 568 892 547 l 892 568 q 877 603 892 589 q 840 618 863 618 l 840 618 q 806 603 821 618 q 792 568 792 588 l 792 568 q 806 532 792 547 q 840 517 821 517 l 840 517 z m 694 272 q 801 300 751 272 q 878 376 850 328 l 878 376 q 882 390 882 383 l 882 390 q 868 410 882 404 l 868 410 q 856 413 860 413 l 856 413 q 832 401 839 413 l 832 401 q 776 342 814 364 q 694 321 738 321 l 694 321 q 617 342 653 321 q 557 401 581 364 l 557 401 q 533 413 550 413 l 533 413 q 515 406 522 413 q 508 390 508 400 l 508 390 q 513 376 508 383 l 513 376 q 592 300 544 328 q 694 272 640 272 l 694 272 z "},"":{"ha":1389,"x_min":204,"x_max":1183,"o":"m 963 0 l 425 0 q 315 30 365 0 q 234 110 264 60 q 204 221 204 161 l 204 221 l 204 758 q 234 869 204 818 q 315 949 264 919 q 425 979 365 979 l 425 979 l 963 979 q 1073 949 1022 979 q 1153 869 1124 919 q 1183 758 1183 818 l 1183 758 l 1183 221 q 1153 110 1183 161 q 1073 30 1124 60 q 963 0 1022 0 l 963 0 z m 676 178 q 694 183 681 178 l 694 183 q 817 259 728 197 q 951 372 906 321 l 951 372 q 1021 535 1021 453 l 1021 535 q 977 668 1021 607 q 858 765 933 729 q 694 801 783 801 l 694 801 q 532 765 607 801 q 413 668 457 729 q 368 535 368 607 l 368 535 q 403 415 368 471 q 501 322 439 360 q 640 274 564 285 l 640 274 q 669 258 664 271 l 669 258 q 671 246 671 256 l 671 246 q 669 228 671 232 l 669 228 l 664 192 q 676 178 664 178 l 676 178 z m 572 451 l 481 451 q 475 458 475 451 l 475 458 l 475 600 q 476 605 475 603 q 481 607 478 607 l 481 607 l 504 607 q 508 605 507 607 q 510 600 510 603 l 510 600 l 510 488 l 572 488 q 578 481 578 488 l 578 481 l 578 458 q 572 451 578 451 l 572 451 z m 628 451 l 604 451 q 597 458 597 451 l 597 458 l 597 600 q 599 605 597 603 q 604 607 601 607 l 604 607 l 628 607 q 633 605 631 607 q 635 600 635 603 l 635 600 l 635 458 q 628 451 635 451 l 628 451 z m 686 451 l 663 451 q 657 458 657 451 l 657 458 l 657 600 q 658 605 657 603 q 663 607 660 607 l 663 607 l 685 607 q 692 601 689 607 l 692 601 l 756 515 l 756 600 q 757 605 756 603 q 761 607 758 607 l 761 607 l 786 607 q 790 605 789 607 q 792 600 792 603 l 792 600 l 792 458 q 786 451 792 451 l 786 451 l 763 451 q 756 456 758 451 l 756 456 l 692 542 l 692 458 q 686 451 692 451 l 686 451 z m 911 451 l 821 451 q 814 458 814 451 l 814 458 l 814 600 q 816 605 814 603 q 821 607 818 607 l 821 607 l 911 607 q 916 605 914 607 q 918 600 918 603 l 918 600 l 918 578 q 916 572 918 575 q 911 569 914 569 l 911 569 l 850 569 l 850 546 l 911 546 q 918 540 918 546 l 918 540 l 918 517 q 911 511 918 511 l 911 511 l 850 511 l 850 488 l 911 488 q 918 481 918 488 l 918 481 l 918 458 q 911 451 918 451 l 911 451 z "},"":{"ha":2022,"x_min":225,"x_max":1797,"o":"m 572 204 l 247 204 q 232 210 239 204 q 225 225 225 217 l 225 225 l 225 732 q 232 747 225 742 q 247 753 239 753 l 247 753 l 331 753 q 347 747 340 753 q 353 732 353 742 l 353 732 l 353 331 l 572 331 q 588 324 582 331 q 594 308 594 318 l 594 308 l 594 225 q 588 210 594 215 q 572 204 582 204 l 572 204 z m 768 204 l 686 204 q 671 210 676 204 q 665 225 665 215 l 665 225 l 665 732 q 671 747 665 742 q 686 753 676 753 l 686 753 l 768 753 q 784 747 778 753 q 790 732 790 742 l 790 732 l 790 225 q 784 210 790 215 q 768 204 778 204 l 768 204 z m 974 204 l 892 204 q 876 210 882 204 q 869 225 869 215 l 869 225 l 869 732 q 876 747 869 742 q 892 753 882 753 l 892 753 l 971 753 q 996 740 988 753 l 996 740 l 1222 431 l 1222 732 q 1228 747 1222 742 q 1243 753 1235 753 l 1243 753 l 1328 753 q 1343 747 1336 753 q 1350 732 1350 742 l 1350 732 l 1350 225 q 1343 210 1350 217 q 1328 204 1336 204 l 1328 204 l 1246 204 q 1221 217 1229 204 l 1221 217 l 994 526 l 994 225 q 989 210 994 215 q 974 204 983 204 l 974 204 z m 1775 204 l 1450 204 q 1435 210 1442 204 q 1428 225 1428 217 l 1428 225 l 1428 732 q 1435 747 1428 742 q 1450 753 1442 753 l 1450 753 l 1775 753 q 1790 747 1783 753 q 1797 732 1797 742 l 1797 732 l 1797 649 q 1790 634 1797 640 q 1775 628 1783 628 l 1775 628 l 1553 628 l 1553 542 l 1775 542 q 1790 535 1783 542 q 1797 521 1797 529 l 1797 521 l 1797 436 q 1790 422 1797 428 q 1775 415 1783 415 l 1775 415 l 1553 415 l 1553 331 l 1775 331 q 1790 324 1783 331 q 1797 308 1797 318 l 1797 308 l 1797 225 q 1790 210 1797 217 q 1775 204 1783 204 l 1775 204 z "},"":{"ha":1553,"x_min":69,"x_max":1483,"o":"m 246 308 q 119 358 168 308 q 69 486 69 407 l 69 486 q 119 613 69 564 q 246 663 168 663 l 246 663 q 374 613 324 663 q 424 486 424 564 l 424 486 q 374 358 424 407 q 246 308 324 308 l 246 308 z m 779 329 l 575 329 q 569 335 569 329 l 569 335 l 569 636 q 575 643 569 643 l 575 643 l 622 643 q 628 636 628 643 l 628 636 l 628 385 l 779 385 q 783 379 783 385 l 783 379 l 783 335 q 779 329 783 329 l 779 329 z m 874 329 l 828 329 q 822 335 822 329 l 822 335 l 822 636 q 828 643 822 643 l 828 643 l 874 643 q 879 636 879 643 l 879 636 l 879 335 q 874 329 879 329 l 874 329 z m 996 329 l 951 329 q 946 335 946 329 l 946 335 l 946 636 q 951 643 946 643 l 951 643 l 1000 643 q 1007 639 1004 643 l 1007 639 l 1147 424 l 1147 636 q 1153 643 1147 643 l 1153 643 l 1196 643 q 1201 636 1201 643 l 1201 636 l 1201 335 q 1196 329 1201 329 l 1196 329 l 1149 329 q 1142 333 1144 329 l 1142 333 l 1001 550 l 1001 335 q 996 329 1001 329 l 996 329 z m 1476 329 l 1274 329 q 1268 335 1268 329 l 1268 335 l 1268 636 q 1274 643 1268 643 l 1274 643 l 1472 643 q 1478 636 1478 643 l 1478 636 l 1478 593 q 1472 588 1478 588 l 1472 588 l 1325 588 l 1325 517 l 1458 517 q 1463 511 1463 517 l 1463 511 l 1463 468 q 1458 464 1463 464 l 1458 464 l 1325 464 l 1325 383 l 1476 383 q 1483 378 1483 383 l 1483 378 l 1483 335 q 1476 329 1483 329 l 1476 329 z m 246 340 q 349 381 310 340 q 389 486 389 422 l 389 486 q 349 590 389 549 q 246 631 310 631 l 246 631 q 142 590 182 631 q 103 486 103 549 l 103 486 q 142 381 103 422 q 246 340 182 340 l 246 340 z m 247 390 q 179 417 204 390 q 154 486 154 443 l 154 486 q 179 554 154 528 q 246 581 204 581 l 246 581 q 329 529 311 581 l 329 529 q 325 522 331 525 l 325 522 l 296 514 q 288 518 292 513 l 288 518 q 271 535 279 531 q 249 540 263 540 l 249 540 q 213 525 225 540 q 200 486 200 510 l 200 486 q 213 447 200 463 q 250 431 226 431 l 250 431 q 274 437 264 431 q 289 454 285 443 l 289 454 q 296 458 290 460 l 296 458 l 328 450 q 332 443 333 449 l 332 443 q 300 403 324 417 q 247 390 276 390 l 247 390 z "},"ﬄ":{"ha":1561,"x_min":14,"x_max":1492,"o":"m 394 0 l 139 0 q 121 7 128 0 q 114 25 114 14 l 114 25 l 114 496 l 39 496 q 21 503 28 496 q 14 521 14 510 l 14 521 l 14 721 q 21 739 14 732 q 39 746 28 746 l 39 746 l 115 746 q 205 970 126 885 q 429 1056 283 1056 l 429 1056 q 651 1001 557 1056 l 651 1001 q 665 981 665 993 l 665 981 l 663 968 l 599 803 q 579 788 593 788 l 579 788 q 565 790 574 788 l 565 790 q 489 806 531 806 l 489 806 q 413 746 421 806 l 413 746 l 651 746 q 737 972 658 888 q 960 1056 815 1056 l 960 1056 q 1106 1033 1032 1056 l 1106 1033 q 1126 1004 1126 1028 l 1126 1004 l 1126 817 q 1108 796 1126 796 l 1108 796 q 1097 797 1101 796 l 1097 797 q 1038 806 1071 806 l 1038 806 q 986 790 1007 806 q 958 746 965 775 l 958 746 l 1075 746 q 1093 739 1086 746 q 1100 721 1100 732 l 1100 721 l 1100 521 q 1093 503 1100 510 q 1075 496 1086 496 l 1075 496 l 956 496 l 956 25 q 949 7 956 14 q 931 0 942 0 l 931 0 l 675 0 q 657 7 664 0 q 650 25 650 14 l 650 25 l 650 496 l 419 496 l 419 25 q 413 7 419 14 q 394 0 406 0 l 394 0 z m 1467 0 l 1211 0 q 1193 7 1200 0 q 1186 25 1186 14 l 1186 25 l 1186 1017 q 1193 1035 1186 1028 q 1211 1042 1200 1042 l 1211 1042 l 1467 1042 q 1485 1035 1478 1042 q 1492 1017 1492 1028 l 1492 1017 l 1492 25 q 1485 7 1492 14 q 1467 0 1478 0 l 1467 0 z "},"ﬃ":{"ha":1547,"x_min":14,"x_max":1488,"o":"m 1325 817 q 1209 860 1256 817 q 1163 971 1163 903 l 1163 971 q 1209 1082 1163 1039 q 1325 1125 1256 1125 l 1325 1125 q 1441 1082 1394 1125 q 1488 971 1488 1039 l 1488 971 q 1441 860 1488 903 q 1325 817 1394 817 l 1325 817 z m 394 0 l 139 0 q 121 7 128 0 q 114 25 114 14 l 114 25 l 114 496 l 39 496 q 21 503 28 496 q 14 521 14 510 l 14 521 l 14 721 q 21 739 14 732 q 39 746 28 746 l 39 746 l 115 746 q 205 970 126 885 q 429 1056 283 1056 l 429 1056 q 651 1001 557 1056 l 651 1001 q 665 981 665 993 l 665 981 l 663 968 l 599 803 q 579 788 593 788 l 579 788 q 565 790 574 788 l 565 790 q 489 806 531 806 l 489 806 q 413 746 421 806 l 413 746 l 651 746 q 737 972 658 888 q 960 1056 815 1056 l 960 1056 q 1106 1033 1032 1056 l 1106 1033 q 1126 1004 1126 1028 l 1126 1004 l 1126 817 q 1108 796 1126 796 l 1108 796 q 1097 797 1101 796 l 1097 797 q 1038 806 1071 806 l 1038 806 q 986 790 1007 806 q 958 746 965 775 l 958 746 l 1453 746 q 1471 739 1464 746 q 1478 721 1478 732 l 1478 721 l 1478 25 q 1471 7 1478 14 q 1453 0 1464 0 l 1453 0 l 1197 0 q 1179 7 1186 0 q 1172 25 1172 14 l 1172 25 l 1172 496 l 956 496 l 956 25 q 949 7 956 14 q 931 0 942 0 l 931 0 l 675 0 q 657 7 664 0 q 650 25 650 14 l 650 25 l 650 496 l 419 496 l 419 25 q 413 7 419 14 q 394 0 406 0 l 394 0 z "},"ﬀ":{"ha":1161,"x_min":14,"x_max":1265,"o":"m 394 0 l 139 0 q 121 7 128 0 q 114 25 114 14 l 114 25 l 114 496 l 39 496 q 21 503 28 496 q 14 521 14 510 l 14 521 l 14 721 q 21 739 14 732 q 39 746 28 746 l 39 746 l 115 746 q 205 970 126 885 q 429 1056 283 1056 l 429 1056 q 651 1001 557 1056 l 651 1001 q 665 981 665 993 l 665 981 l 663 968 l 599 803 q 579 788 593 788 l 579 788 q 565 790 574 788 l 565 790 q 489 806 531 806 l 489 806 q 413 746 421 806 l 413 746 l 651 746 q 741 970 663 885 q 965 1056 819 1056 l 965 1056 q 1261 899 1163 1056 l 1261 899 q 1265 886 1265 893 l 1265 886 q 1250 865 1265 872 l 1250 865 l 1085 786 q 1071 783 1081 783 l 1071 783 q 1050 792 1061 783 l 1050 792 q 1007 806 1032 806 l 1007 806 q 968 790 983 806 q 949 746 953 775 l 949 746 l 1103 746 q 1121 739 1114 746 q 1128 721 1128 732 l 1128 721 l 1128 521 q 1121 503 1128 510 q 1103 496 1114 496 l 1103 496 l 956 496 l 956 25 q 949 7 956 14 q 931 0 942 0 l 931 0 l 675 0 q 657 7 664 0 q 650 25 650 14 l 650 25 l 650 496 l 419 496 l 419 25 q 413 7 419 14 q 394 0 406 0 l 394 0 z "}}}
